# Blender v2.77 (sub 0) OBJ File: ''
# www.blender.org
mtllib legionsword.mtl
o SamAsWarrior2
v -13.000000 20.000002 -5.999997
v -13.000000 17.000002 -6.999997
v -13.000000 17.000002 -5.999997
v -13.000000 20.000002 -6.999997
v -13.000000 21.000000 4.000003
v -13.000000 14.999999 3.000002
v -13.000000 14.999999 4.000002
v -13.000000 21.000000 3.000003
v -12.000000 16.999996 18.000002
v -12.000000 15.999999 4.000002
v -12.000000 15.999997 18.000002
v -12.000000 16.999998 17.000002
v -12.000000 17.000000 5.000003
v -12.000000 17.999996 18.000004
v -12.000000 16.999996 19.000002
v -12.000000 17.999998 17.000004
v -12.000000 17.999998 16.000004
v -12.000000 18.000000 5.000003
v -12.000000 18.999996 19.000004
v -12.000000 18.999996 18.000004
v -12.000000 18.999998 16.000004
v -12.000000 19.000002 -6.999997
v -12.000000 18.000002 -7.999997
v -12.000000 18.000002 -6.999997
v -12.000000 19.000002 -7.999997
v -12.000000 19.999996 18.000004
v -12.000000 20.000000 4.000003
v -11.000000 15.999997 18.000002
v -11.000000 15.999999 4.000002
v -11.000000 16.999996 18.000002
v -11.000000 16.999998 17.000002
v -11.000000 17.000000 5.000003
v -11.000000 16.999996 19.000002
v -11.000000 17.999996 18.000004
v -11.000000 17.999998 17.000004
v -11.000000 17.999998 16.000004
v -11.000000 18.000000 5.000003
v -11.000000 18.999996 19.000004
v -11.000000 18.999996 18.000004
v -11.000000 18.999998 16.000004
v -11.000000 18.000002 -6.999997
v -11.000000 18.000002 -7.999997
v -11.000000 19.000002 -6.999997
v -11.000000 19.000002 -7.999997
v -11.000000 19.999996 18.000004
v -11.000000 20.000000 4.000003
v -10.000000 17.000002 -5.999997
v -10.000000 17.000002 -6.999997
v -10.000000 20.000002 -5.999997
v -10.000000 20.000002 -6.999997
v -10.000000 14.999999 4.000002
v -10.000000 14.999999 3.000002
v -10.000000 21.000000 4.000003
v -10.000000 21.000000 3.000003
v -11.000000 16.999996 19.000002
v -12.000000 18.999996 19.000004
v -12.000000 16.999996 19.000002
v -11.000000 18.999996 19.000004
v -11.000000 15.999997 18.000002
v -12.000000 16.999996 18.000002
v -12.000000 15.999997 18.000002
v -11.000000 16.999996 18.000002
v -11.000000 18.999996 18.000004
v -12.000000 19.999996 18.000004
v -12.000000 18.999996 18.000004
v -11.000000 19.999996 18.000004
v -12.000000 15.999999 4.000002
v -13.000000 21.000000 4.000003
v -13.000000 14.999999 4.000002
v -12.000000 20.000000 4.000003
v -11.000000 15.999999 4.000002
v -11.000000 20.000000 4.000003
v -10.000000 14.999999 4.000002
v -10.000000 21.000000 4.000003
v -10.000000 17.000002 -5.999997
v -13.000000 20.000002 -5.999997
v -13.000000 17.000002 -5.999997
v -10.000000 20.000002 -5.999997
v -13.000000 14.999999 3.000002
v -13.000000 21.000000 3.000003
v -12.000000 15.999999 3.000003
v -12.000000 20.000000 3.000003
v -11.000000 15.999999 3.000003
v -11.000000 20.000000 3.000003
v -10.000000 14.999999 3.000002
v -10.000000 21.000000 3.000003
v -13.000000 17.000002 -6.999997
v -13.000000 20.000002 -6.999997
v -12.000000 18.000002 -6.999997
v -12.000000 19.000002 -6.999997
v -11.000000 18.000002 -6.999997
v -11.000000 19.000002 -6.999997
v -10.000000 17.000002 -6.999997
v -10.000000 20.000002 -6.999997
v -12.000000 18.000002 -7.999997
v -12.000000 19.000002 -7.999997
v -11.000000 18.000002 -7.999997
v -11.000000 19.000002 -7.999997
v -13.000000 14.999999 3.000002
v -10.000000 14.999999 4.000002
v -13.000000 14.999999 4.000002
v -10.000000 14.999999 3.000002
v -12.000000 15.999999 4.000002
v -11.000000 15.999997 18.000002
v -12.000000 15.999997 18.000002
v -11.000000 15.999999 4.000002
v -12.000000 16.999996 18.000002
v -11.000000 16.999996 19.000002
v -12.000000 16.999996 19.000002
v -11.000000 16.999996 18.000002
v -13.000000 17.000002 -6.999997
v -10.000000 17.000002 -5.999997
v -13.000000 17.000002 -5.999997
v -10.000000 17.000002 -6.999997
v -12.000000 18.000002 -7.999997
v -11.000000 18.000002 -6.999997
v -12.000000 18.000002 -6.999997
v -11.000000 18.000002 -7.999997
v -12.000000 18.999996 19.000004
v -11.000000 18.999996 19.000004
v -12.000000 18.999996 18.000004
v -11.000000 18.999996 18.000004
v -12.000000 19.000002 -6.999997
v -11.000000 19.000002 -6.999997
v -12.000000 19.000002 -7.999997
v -11.000000 19.000002 -7.999997
v -12.000000 19.999996 18.000004
v -11.000000 19.999996 18.000004
v -12.000000 20.000000 4.000003
v -11.000000 20.000000 4.000003
v -13.000000 20.000002 -5.999997
v -10.000000 20.000002 -5.999997
v -13.000000 20.000002 -6.999997
v -10.000000 20.000002 -6.999997
v -13.000000 21.000000 4.000003
v -10.000000 21.000000 4.000003
v -13.000000 21.000000 3.000003
v -10.000000 21.000000 3.000003
vt 0.0684 0.5000
vt 0.0684 0.5000
vt 0.0684 0.5000
vt 0.0684 0.5000
vt 0.0684 0.5000
vt 0.0684 0.5000
vt 0.0684 0.5000
vt 0.0684 0.5000
vt 0.9707 0.5000
vt 0.9707 0.5000
vt 0.9707 0.5000
vt 0.9707 0.5000
vt 0.9707 0.5000
vt 0.9707 0.5000
vt 0.9707 0.5000
vt 0.9668 0.5000
vt 0.9668 0.5000
vt 0.9668 0.5000
vt 0.9707 0.5000
vt 0.9668 0.5000
vt 0.9707 0.5000
vt 0.9668 0.5000
vt 0.9707 0.5000
vt 0.9668 0.5000
vt 0.9707 0.5000
vt 0.9668 0.5000
vt 0.9707 0.5000
vt 0.9707 0.5000
vt 0.9668 0.5000
vt 0.0684 0.5000
vt 0.0684 0.5000
vt 0.0684 0.5000
vt 0.0684 0.5000
vt 0.9707 0.5000
vt 0.9707 0.5000
vt 0.9707 0.5000
vt 0.9707 0.5000
vt 0.9707 0.5000
vt 0.9707 0.5000
vt 0.9707 0.5000
vt 0.9707 0.5000
vt 0.9707 0.5000
vt 0.9668 0.5000
vt 0.9668 0.5000
vt 0.9668 0.5000
vt 0.9707 0.5000
vt 0.9668 0.5000
vt 0.9707 0.5000
vt 0.9668 0.5000
vt 0.9707 0.5000
vt 0.9668 0.5000
vt 0.9707 0.5000
vt 0.9668 0.5000
vt 0.9707 0.5000
vt 0.9707 0.5000
vt 0.9668 0.5000
vt 0.0684 0.5000
vt 0.0684 0.5000
vt 0.0684 0.5000
vt 0.0684 0.5000
vt 0.9707 0.5000
vt 0.9707 0.5000
vt 0.0684 0.5000
vt 0.0684 0.5000
vt 0.0684 0.5000
vt 0.0684 0.5000
vt 0.0684 0.5000
vt 0.0684 0.5000
vt 0.0684 0.5000
vt 0.0684 0.5000
vt 0.9707 0.5000
vt 0.9707 0.5000
vt 0.9707 0.5000
vt 0.9707 0.5000
vt 0.9707 0.5000
vt 0.9707 0.5000
vt 0.9707 0.5000
vt 0.9707 0.5000
vt 0.9707 0.5000
vt 0.9707 0.5000
vt 0.9707 0.5000
vt 0.9707 0.5000
vt 0.0684 0.5000
vt 0.0684 0.5000
vt 0.0684 0.5000
vt 0.0684 0.5000
vt 0.0684 0.5000
vt 0.0684 0.5000
vt 0.0684 0.5000
vt 0.0684 0.5000
vt 0.0684 0.5000
vt 0.0684 0.5000
vt 0.0684 0.5000
vt 0.0684 0.5000
vt 0.0684 0.5000
vt 0.0684 0.5000
vt 0.0684 0.5000
vt 0.0684 0.5000
vt 0.0684 0.5000
vt 0.9707 0.5000
vt 0.9707 0.5000
vt 0.9707 0.5000
vt 0.0684 0.5000
vt 0.9707 0.5000
vt 0.0684 0.5000
vt 0.0684 0.5000
vt 0.0684 0.5000
vt 0.0684 0.5000
vt 0.0684 0.5000
vt 0.0684 0.5000
vt 0.0684 0.5000
vt 0.0684 0.5000
vt 0.0684 0.5000
vt 0.0684 0.5000
vt 0.0684 0.5000
vt 0.0684 0.5000
vt 0.0684 0.5000
vt 0.0684 0.5000
vt 0.0684 0.5000
vt 0.0684 0.5000
vt 0.0684 0.5000
vt 0.0684 0.5000
vt 0.9707 0.5000
vt 0.9707 0.5000
vt 0.9707 0.5000
vt 0.9707 0.5000
vt 0.9707 0.5000
vt 0.9707 0.5000
vt 0.9707 0.5000
vt 0.9707 0.5000
vt 0.0684 0.5000
vt 0.0684 0.5000
vt 0.0684 0.5000
vt 0.0684 0.5000
vt 0.0684 0.5000
vt 0.0684 0.5000
vt 0.0684 0.5000
vt 0.0684 0.5000
vt 0.9707 0.5000
vt 0.9707 0.5000
vt 0.9707 0.5000
vt 0.9707 0.5000
vt 0.0684 0.5000
vt 0.0684 0.5000
vt 0.0684 0.5000
vt 0.0684 0.5000
vt 0.9707 0.5000
vt 0.9707 0.5000
vt 0.9707 0.5000
vt 0.9707 0.5000
vt 0.0684 0.5000
vt 0.0684 0.5000
vt 0.0684 0.5000
vt 0.0684 0.5000
vt 0.0684 0.5000
vt 0.0684 0.5000
vt 0.0684 0.5000
vt 0.0684 0.5000
vn -1.0000 0.0000 0.0000
vn 1.0000 0.0000 0.0000
vn 0.0000 -0.0000 1.0000
vn -0.0000 0.0000 -1.0000
vn 0.0000 -1.0000 0.0000
vn 0.0000 1.0000 0.0000
usemtl palette.001
s 1
f 1/1/1 2/2/1 3/3/1
f 4/4/1 2/2/1 1/1/1
f 5/5/1 6/6/1 7/7/1
f 8/8/1 6/6/1 5/5/1
f 9/9/1 10/10/1 11/11/1
f 12/12/1 10/10/1 9/9/1
f 13/13/1 10/10/1 12/12/1
f 14/14/1 9/9/1 15/15/1
f 14/14/1 12/12/1 9/9/1
f 16/16/1 13/17/1 12/18/1
f 16/19/1 12/12/1 14/14/1
f 17/20/1 13/17/1 16/16/1
f 18/21/1 10/10/1 13/13/1
f 18/22/1 13/17/1 17/20/1
f 19/23/1 14/14/1 15/15/1
f 20/24/1 17/20/1 16/16/1
f 20/25/1 14/14/1 19/23/1
f 20/24/1 16/16/1 14/26/1
f 21/27/1 18/21/1 17/28/1
f 21/29/1 17/20/1 20/24/1
f 22/30/1 23/31/1 24/32/1
f 25/33/1 23/31/1 22/30/1
f 26/34/1 21/27/1 20/25/1
f 27/35/1 18/21/1 21/27/1
f 27/35/1 21/27/1 26/34/1
f 27/35/1 10/10/1 18/21/1
f 28/36/2 29/37/2 30/38/2
f 30/38/2 29/37/2 31/39/2
f 31/39/2 29/37/2 32/40/2
f 33/41/2 30/38/2 34/42/2
f 30/38/2 31/39/2 34/42/2
f 31/43/2 32/44/2 35/45/2
f 34/42/2 31/39/2 35/46/2
f 35/45/2 32/44/2 36/47/2
f 32/40/2 29/37/2 37/48/2
f 36/47/2 32/44/2 37/49/2
f 33/41/2 34/42/2 38/50/2
f 35/45/2 36/47/2 39/51/2
f 38/50/2 34/42/2 39/52/2
f 34/53/2 35/45/2 39/51/2
f 36/54/2 37/48/2 40/55/2
f 39/51/2 36/47/2 40/56/2
f 41/57/2 42/58/2 43/59/2
f 43/59/2 42/58/2 44/60/2
f 39/52/2 40/55/2 45/61/2
f 40/55/2 37/48/2 46/62/2
f 45/61/2 40/55/2 46/62/2
f 37/48/2 29/37/2 46/62/2
f 47/63/2 48/64/2 49/65/2
f 49/65/2 48/64/2 50/66/2
f 51/67/2 52/68/2 53/69/2
f 53/69/2 52/68/2 54/70/2
f 55/71/3 56/72/3 57/73/3
f 58/74/3 56/72/3 55/71/3
f 59/75/3 60/76/3 61/77/3
f 62/78/3 60/76/3 59/75/3
f 63/79/3 64/80/3 65/81/3
f 66/82/3 64/80/3 63/79/3
f 67/83/3 68/84/3 69/85/3
f 70/86/3 68/84/3 67/83/3
f 71/87/3 67/83/3 69/85/3
f 72/88/3 68/84/3 70/86/3
f 73/89/3 71/87/3 69/85/3
f 73/89/3 72/88/3 71/87/3
f 74/90/3 68/84/3 72/88/3
f 74/90/3 72/88/3 73/89/3
f 75/91/3 76/92/3 77/93/3
f 78/94/3 76/92/3 75/91/3
f 79/95/4 80/96/4 81/97/4
f 81/97/4 80/96/4 82/98/4
f 79/95/4 81/97/4 83/99/4
f 81/100/4 82/101/4 83/102/4
f 82/98/4 80/96/4 84/103/4
f 83/102/4 82/101/4 84/104/4
f 79/95/4 83/99/4 85/105/4
f 83/99/4 84/103/4 85/105/4
f 84/103/4 80/96/4 86/106/4
f 85/105/4 84/103/4 86/106/4
f 87/107/4 88/108/4 89/109/4
f 89/109/4 88/108/4 90/110/4
f 87/107/4 89/109/4 91/111/4
f 90/110/4 88/108/4 92/112/4
f 87/107/4 91/111/4 93/113/4
f 91/111/4 92/112/4 93/113/4
f 92/112/4 88/108/4 94/114/4
f 93/113/4 92/112/4 94/114/4
f 95/115/4 96/116/4 97/117/4
f 97/117/4 96/116/4 98/118/4
f 99/119/5 100/120/5 101/121/5
f 102/122/5 100/120/5 99/119/5
f 103/123/5 104/124/5 105/125/5
f 106/126/5 104/124/5 103/123/5
f 107/127/5 108/128/5 109/129/5
f 110/130/5 108/128/5 107/127/5
f 111/131/5 112/132/5 113/133/5
f 114/134/5 112/132/5 111/131/5
f 115/135/5 116/136/5 117/137/5
f 118/138/5 116/136/5 115/135/5
f 119/139/6 120/140/6 121/141/6
f 121/141/6 120/140/6 122/142/6
f 123/143/6 124/144/6 125/145/6
f 125/145/6 124/144/6 126/146/6
f 127/147/6 128/148/6 129/149/6
f 129/149/6 128/148/6 130/150/6
f 131/151/6 132/152/6 133/153/6
f 133/153/6 132/152/6 134/154/6
f 135/155/6 136/156/6 137/157/6
f 137/157/6 136/156/6 138/158/6
