# Blender v2.77 (sub 0) OBJ File: ''
# www.blender.org
mtllib wolftail.mtl
o Wolf.001
v -1.246703 15.000006 -16.999996
v -1.246703 14.000006 -16.999996
v -1.246703 14.000006 -15.999996
v -1.246703 16.000008 -18.999996
v -1.246703 15.000006 -18.999996
v -1.246703 17.000004 -15.999994
v -1.246703 16.000008 -20.999996
v -1.246703 17.000008 -17.999996
v -1.246703 17.000008 -20.999996
v -1.246703 18.000008 -17.999992
v -1.246703 17.000008 -21.999996
v -1.246703 18.000008 -20.999992
v -1.246703 18.000008 -21.999992
v -1.246703 19.000008 -20.999992
v -1.246703 18.000008 -22.999992
v -1.246703 19.000008 -22.999992
v -0.246703 15.000006 -16.999996
v -0.246703 14.000006 -17.999996
v -0.246703 14.000006 -16.999996
v -0.246703 15.000006 -17.999996
v -0.246703 16.000008 -18.999996
v -0.246703 15.000008 -20.999996
v -0.246703 15.000006 -18.999996
v -0.246703 16.000008 -20.999996
v -0.246703 17.000008 -20.999996
v -0.246703 16.000008 -21.999996
v -0.246703 17.000008 -21.999996
v -0.246703 18.000004 -16.999992
v -0.246703 17.000008 -17.999996
v -0.246703 17.000004 -16.999996
v -0.246703 18.000008 -17.999992
v -0.246703 18.000008 -21.999992
v -0.246703 17.000008 -22.999996
v -0.246703 18.000008 -22.999992
v -0.246703 19.000008 -19.999992
v -0.246703 18.000008 -20.999992
v -0.246703 18.000008 -19.999992
v -0.246703 19.000008 -20.999992
v -0.246703 19.000008 -22.999992
v -0.246703 18.000008 -23.999992
v -0.246703 19.000008 -23.999992
v -0.246703 20.000008 -23.999992
v -0.246703 19.000008 -21.999992
v -0.246703 21.000008 -21.999992
v -0.246703 20.000008 -24.999992
v -0.246703 21.000008 -22.999992
v -0.246703 22.000008 -22.999992
v -0.246703 22.000008 -24.999992
v 0.753297 14.000006 -16.999996
v 0.753297 14.000006 -17.999996
v 0.753297 15.000006 -16.999996
v 0.753297 15.000006 -17.999996
v 0.753297 15.000006 -18.999996
v 0.753297 15.000008 -20.999996
v 0.753297 16.000008 -18.999996
v 0.753297 16.000008 -20.999996
v 0.753297 16.000008 -21.999996
v 0.753297 17.000008 -20.999996
v 0.753297 17.000008 -21.999996
v 0.753297 17.000004 -16.999996
v 0.753297 17.000008 -17.999996
v 0.753297 18.000004 -16.999992
v 0.753297 18.000008 -17.999992
v 0.753297 17.000008 -22.999996
v 0.753297 18.000008 -21.999992
v 0.753297 18.000008 -22.999992
v 0.753297 18.000008 -19.999992
v 0.753297 18.000008 -20.999992
v 0.753297 19.000008 -19.999992
v 0.753297 19.000008 -20.999992
v 0.753297 18.000008 -23.999992
v 0.753297 19.000008 -22.999992
v 0.753297 19.000008 -23.999992
v 0.753297 19.000008 -21.999992
v 0.753297 20.000008 -23.999992
v 0.753297 21.000008 -21.999992
v 0.753297 20.000008 -24.999992
v 0.753297 21.000008 -22.999992
v 0.753297 22.000008 -22.999992
v 0.753297 22.000008 -24.999992
v 1.753297 14.000006 -15.999996
v 1.753297 14.000006 -16.999996
v 1.753297 15.000006 -16.999996
v 1.753297 15.000006 -18.999996
v 1.753297 16.000008 -18.999996
v 1.753297 17.000004 -15.999994
v 1.753297 16.000008 -20.999996
v 1.753297 17.000008 -17.999996
v 1.753297 17.000008 -20.999996
v 1.753297 17.000008 -21.999996
v 1.753297 18.000008 -17.999992
v 1.753297 18.000008 -20.999992
v 1.753297 18.000008 -21.999992
v 1.753297 18.000008 -22.999992
v 1.753297 19.000008 -20.999992
v 1.753297 19.000008 -22.999992
v -0.246703 16.000004 -15.999994
v -1.246703 17.000004 -15.999994
v -1.246703 14.000006 -15.999996
v -0.246703 17.000004 -15.999994
v 0.753297 16.000004 -15.999994
v 0.753297 17.000004 -15.999994
v 1.753297 14.000006 -15.999996
v 1.753297 17.000004 -15.999994
v 0.753297 17.000004 -16.999996
v -0.246703 18.000004 -16.999992
v -0.246703 17.000004 -16.999996
v 0.753297 18.000004 -16.999992
v -0.246703 17.000008 -17.999996
v -1.246703 18.000008 -17.999992
v -1.246703 17.000008 -17.999996
v -0.246703 18.000008 -17.999992
v 1.753297 17.000008 -17.999996
v 0.753297 18.000008 -17.999992
v 0.753297 17.000008 -17.999996
v 1.753297 18.000008 -17.999992
v 0.753297 18.000008 -19.999992
v -0.246703 19.000008 -19.999992
v -0.246703 18.000008 -19.999992
v 0.753297 19.000008 -19.999992
v -0.246703 18.000008 -20.999992
v -1.246703 19.000008 -20.999992
v -1.246703 18.000008 -20.999992
v -0.246703 19.000008 -20.999992
v 1.753297 18.000008 -20.999992
v 0.753297 19.000008 -20.999992
v 0.753297 18.000008 -20.999992
v 1.753297 19.000008 -20.999992
v 0.753297 19.000008 -21.999992
v -0.246703 21.000008 -21.999992
v -0.246703 19.000008 -21.999992
v 0.753297 21.000008 -21.999992
v 0.753297 21.000008 -22.999992
v -0.246703 22.000008 -22.999992
v -0.246703 21.000008 -22.999992
v 0.753297 22.000008 -22.999992
v -1.246703 14.000006 -16.999996
v -1.246703 15.000006 -16.999996
v -0.246703 14.000006 -16.999996
v -0.246703 15.000006 -16.999996
v 0.753297 14.000006 -16.999996
v 0.753297 15.000006 -16.999996
v 1.753297 14.000006 -16.999996
v 1.753297 15.000006 -16.999996
v -0.246703 14.000006 -17.999996
v -0.246703 15.000006 -17.999996
v 0.753297 14.000006 -17.999996
v 0.753297 15.000006 -17.999996
v -1.246703 15.000006 -18.999996
v -1.246703 16.000008 -18.999996
v -0.246703 15.000006 -18.999996
v -0.246703 16.000008 -18.999996
v 0.753297 15.000006 -18.999996
v 0.753297 16.000008 -18.999996
v 1.753297 15.000006 -18.999996
v 1.753297 16.000008 -18.999996
v -1.246703 16.000008 -20.999996
v -1.246703 17.000008 -20.999996
v -0.246703 16.000008 -20.999996
v -0.246703 17.000008 -20.999996
v -0.246703 15.000008 -20.999996
v 0.753297 15.000008 -20.999996
v 0.753297 16.000008 -20.999996
v 0.753297 17.000008 -20.999996
v 1.753297 16.000008 -20.999996
v 1.753297 17.000008 -20.999996
v -1.246703 17.000008 -21.999996
v -1.246703 18.000008 -21.999992
v -0.246703 17.000008 -21.999996
v -0.246703 18.000008 -21.999992
v -0.246703 16.000008 -21.999996
v 0.753297 16.000008 -21.999996
v 0.753297 17.000008 -21.999996
v 0.753297 18.000008 -21.999992
v 1.753297 17.000008 -21.999996
v 1.753297 18.000008 -21.999992
v -1.246703 18.000008 -22.999992
v -1.246703 19.000008 -22.999992
v -0.246703 18.000008 -22.999992
v -0.246703 19.000008 -22.999992
v -0.246703 17.000008 -22.999996
v 0.753297 17.000008 -22.999996
v 0.753297 18.000008 -22.999992
v 0.753297 19.000008 -22.999992
v 1.753297 18.000008 -22.999992
v 1.753297 19.000008 -22.999992
v -0.246703 18.000008 -23.999992
v -0.246703 19.000008 -23.999992
v 0.753297 18.000008 -23.999992
v -0.246703 20.000008 -23.999992
v 0.753297 19.000008 -23.999992
v 0.753297 20.000008 -23.999992
v -0.246703 20.000008 -24.999992
v -0.246703 22.000008 -24.999992
v 0.753297 20.000008 -24.999992
v 0.753297 22.000008 -24.999992
v -1.246703 14.000006 -16.999996
v 1.753297 14.000006 -15.999996
v -1.246703 14.000006 -15.999996
v -0.246703 14.000006 -16.999996
v 0.753297 14.000006 -16.999996
v 1.753297 14.000006 -16.999996
v -0.246703 14.000006 -17.999996
v 0.753297 14.000006 -17.999996
v -0.246703 15.000006 -17.999996
v -0.246703 15.000006 -16.999996
v -1.246703 15.000006 -16.999996
v 0.753297 15.000006 -17.999996
v 1.753297 15.000006 -16.999996
v 0.753297 15.000006 -16.999996
v -1.246703 15.000006 -18.999996
v -0.246703 15.000006 -18.999996
v 0.753297 15.000006 -18.999996
v 1.753297 15.000006 -18.999996
v -0.246703 15.000008 -20.999996
v 0.753297 15.000008 -20.999996
v -1.246703 16.000008 -20.999996
v -0.246703 16.000008 -18.999996
v -1.246703 16.000008 -18.999996
v -0.246703 16.000008 -20.999996
v 0.753297 16.000008 -20.999996
v 1.753297 16.000008 -18.999996
v 0.753297 16.000008 -18.999996
v 1.753297 16.000008 -20.999996
v -0.246703 16.000008 -21.999996
v 0.753297 16.000008 -21.999996
v -1.246703 17.000008 -21.999996
v -0.246703 17.000008 -20.999996
v -1.246703 17.000008 -20.999996
v -0.246703 17.000008 -21.999996
v 0.753297 17.000008 -21.999996
v 1.753297 17.000008 -20.999996
v 0.753297 17.000008 -20.999996
v 1.753297 17.000008 -21.999996
v -0.246703 17.000008 -22.999996
v 0.753297 17.000008 -22.999996
v -1.246703 18.000008 -22.999992
v -0.246703 18.000008 -21.999992
v -1.246703 18.000008 -21.999992
v -0.246703 18.000008 -22.999992
v 0.753297 18.000008 -22.999992
v 1.753297 18.000008 -21.999992
v 0.753297 18.000008 -21.999992
v 1.753297 18.000008 -22.999992
v -0.246703 18.000008 -23.999992
v 0.753297 18.000008 -23.999992
v -0.246703 20.000008 -24.999992
v 0.753297 20.000008 -23.999992
v -0.246703 20.000008 -23.999992
v 0.753297 20.000008 -24.999992
v -1.246703 17.000004 -15.999994
v -0.246703 17.000004 -15.999994
v -0.246703 17.000004 -16.999996
v 0.753297 17.000004 -15.999994
v 1.753297 17.000004 -15.999994
v 0.753297 17.000004 -16.999996
v -1.246703 17.000008 -17.999996
v -0.246703 17.000008 -17.999996
v 0.753297 17.000008 -17.999996
v 1.753297 17.000008 -17.999996
v -0.246703 18.000004 -16.999992
v 0.753297 18.000004 -16.999992
v -0.246703 18.000008 -17.999992
v 0.753297 18.000008 -17.999992
v -1.246703 18.000008 -17.999992
v -0.246703 18.000008 -19.999992
v 1.753297 18.000008 -17.999992
v 0.753297 18.000008 -19.999992
v -1.246703 18.000008 -20.999992
v -0.246703 18.000008 -20.999992
v 0.753297 18.000008 -20.999992
v 1.753297 18.000008 -20.999992
v -0.246703 19.000008 -19.999992
v 0.753297 19.000008 -19.999992
v -0.246703 19.000008 -20.999992
v 0.753297 19.000008 -20.999992
v -1.246703 19.000008 -20.999992
v -0.246703 19.000008 -21.999992
v 1.753297 19.000008 -20.999992
v 0.753297 19.000008 -21.999992
v -1.246703 19.000008 -22.999992
v -0.246703 19.000008 -22.999992
v 0.753297 19.000008 -22.999992
v 1.753297 19.000008 -22.999992
v -0.246703 21.000008 -21.999992
v 0.753297 21.000008 -21.999992
v -0.246703 21.000008 -22.999992
v 0.753297 21.000008 -22.999992
v -0.246703 22.000008 -22.999992
v 0.753297 22.000008 -22.999992
v -0.246703 22.000008 -24.999992
v 0.753297 22.000008 -24.999992
vt 0.9785 0.5000
vt 0.9785 0.5000
vt 0.9785 0.5000
vt 0.9785 0.5000
vt 0.9785 0.5000
vt 0.9785 0.5000
vt 0.9785 0.5000
vt 0.9785 0.5000
vt 0.9785 0.5000
vt 0.9785 0.5000
vt 0.9785 0.5000
vt 0.9785 0.5000
vt 0.9785 0.5000
vt 0.9785 0.5000
vt 0.9785 0.5000
vt 0.9785 0.5000
vt 0.9785 0.5000
vt 0.9785 0.5000
vt 0.9785 0.5000
vt 0.9785 0.5000
vt 0.9785 0.5000
vt 0.9785 0.5000
vt 0.9785 0.5000
vt 0.9785 0.5000
vt 0.9785 0.5000
vt 0.9785 0.5000
vt 0.9785 0.5000
vt 0.9824 0.5000
vt 0.9824 0.5000
vt 0.9824 0.5000
vt 0.9824 0.5000
vt 0.9785 0.5000
vt 0.9785 0.5000
vt 0.9785 0.5000
vt 0.9824 0.5000
vt 0.9824 0.5000
vt 0.9824 0.5000
vt 0.9824 0.5000
vt 0.9785 0.5000
vt 0.9785 0.5000
vt 0.9785 0.5000
vt 0.9824 0.5000
vt 0.9824 0.5000
vt 0.9824 0.5000
vt 0.9824 0.5000
vt 0.9824 0.5000
vt 0.9824 0.5000
vt 0.9824 0.5000
vt 0.9824 0.5000
vt 0.9824 0.5000
vt 0.9785 0.5000
vt 0.9785 0.5000
vt 0.9785 0.5000
vt 0.9785 0.5000
vt 0.9785 0.5000
vt 0.9785 0.5000
vt 0.9785 0.5000
vt 0.9785 0.5000
vt 0.9785 0.5000
vt 0.9785 0.5000
vt 0.9785 0.5000
vt 0.9824 0.5000
vt 0.9824 0.5000
vt 0.9824 0.5000
vt 0.9824 0.5000
vt 0.9785 0.5000
vt 0.9785 0.5000
vt 0.9785 0.5000
vt 0.9824 0.5000
vt 0.9824 0.5000
vt 0.9824 0.5000
vt 0.9824 0.5000
vt 0.9785 0.5000
vt 0.9785 0.5000
vt 0.9785 0.5000
vt 0.9824 0.5000
vt 0.9824 0.5000
vt 0.9824 0.5000
vt 0.9824 0.5000
vt 0.9824 0.5000
vt 0.9824 0.5000
vt 0.9824 0.5000
vt 0.9824 0.5000
vt 0.9824 0.5000
vt 0.9785 0.5000
vt 0.9785 0.5000
vt 0.9785 0.5000
vt 0.9785 0.5000
vt 0.9785 0.5000
vt 0.9785 0.5000
vt 0.9785 0.5000
vt 0.9785 0.5000
vt 0.9785 0.5000
vt 0.9785 0.5000
vt 0.9785 0.5000
vt 0.9785 0.5000
vt 0.9785 0.5000
vt 0.9785 0.5000
vt 0.9785 0.5000
vt 0.9785 0.5000
vt 0.9785 0.5000
vt 0.9785 0.5000
vt 0.9785 0.5000
vt 0.9785 0.5000
vt 0.9785 0.5000
vt 0.9824 0.5000
vt 0.9824 0.5000
vt 0.9824 0.5000
vt 0.9824 0.5000
vt 0.9785 0.5000
vt 0.9785 0.5000
vt 0.9785 0.5000
vt 0.9824 0.5000
vt 0.9824 0.5000
vt 0.9824 0.5000
vt 0.9824 0.5000
vt 0.9785 0.5000
vt 0.9785 0.5000
vt 0.9785 0.5000
vt 0.9785 0.5000
vt 0.9785 0.5000
vt 0.9785 0.5000
vt 0.9785 0.5000
vt 0.9785 0.5000
vt 0.9824 0.5000
vt 0.9824 0.5000
vt 0.9824 0.5000
vt 0.9824 0.5000
vt 0.9785 0.5000
vt 0.9785 0.5000
vt 0.9785 0.5000
vt 0.9785 0.5000
vt 0.9785 0.5000
vt 0.9785 0.5000
vt 0.9785 0.5000
vt 0.9785 0.5000
vt 0.9824 0.5000
vt 0.9824 0.5000
vt 0.9824 0.5000
vt 0.9824 0.5000
vt 0.9824 0.5000
vt 0.9824 0.5000
vt 0.9824 0.5000
vt 0.9824 0.5000
vt 0.9785 0.5000
vt 0.9785 0.5000
vt 0.9785 0.5000
vt 0.9785 0.5000
vt 0.9785 0.5000
vt 0.9785 0.5000
vt 0.9785 0.5000
vt 0.9785 0.5000
vt 0.9785 0.5000
vt 0.9785 0.5000
vt 0.9785 0.5000
vt 0.9785 0.5000
vt 0.9785 0.5000
vt 0.9785 0.5000
vt 0.9785 0.5000
vt 0.9785 0.5000
vt 0.9785 0.5000
vt 0.9785 0.5000
vt 0.9785 0.5000
vt 0.9785 0.5000
vt 0.9785 0.5000
vt 0.9785 0.5000
vt 0.9785 0.5000
vt 0.9785 0.5000
vt 0.9785 0.5000
vt 0.9785 0.5000
vt 0.9785 0.5000
vt 0.9785 0.5000
vt 0.9785 0.5000
vt 0.9785 0.5000
vt 0.9785 0.5000
vt 0.9785 0.5000
vt 0.9785 0.5000
vt 0.9785 0.5000
vt 0.9785 0.5000
vt 0.9785 0.5000
vt 0.9785 0.5000
vt 0.9785 0.5000
vt 0.9785 0.5000
vt 0.9785 0.5000
vt 0.9785 0.5000
vt 0.9785 0.5000
vt 0.9785 0.5000
vt 0.9785 0.5000
vt 0.9785 0.5000
vt 0.9785 0.5000
vt 0.9785 0.5000
vt 0.9785 0.5000
vt 0.9785 0.5000
vt 0.9785 0.5000
vt 0.9785 0.5000
vt 0.9785 0.5000
vt 0.9785 0.5000
vt 0.9824 0.5000
vt 0.9824 0.5000
vt 0.9824 0.5000
vt 0.9785 0.5000
vt 0.9824 0.5000
vt 0.9824 0.5000
vt 0.9824 0.5000
vt 0.9824 0.5000
vt 0.9824 0.5000
vt 0.9785 0.5000
vt 0.9785 0.5000
vt 0.9785 0.5000
vt 0.9785 0.5000
vt 0.9785 0.5000
vt 0.9785 0.5000
vt 0.9785 0.5000
vt 0.9785 0.5000
vt 0.9785 0.5000
vt 0.9785 0.5000
vt 0.9785 0.5000
vt 0.9785 0.5000
vt 0.9785 0.5000
vt 0.9785 0.5000
vt 0.9785 0.5000
vt 0.9785 0.5000
vt 0.9785 0.5000
vt 0.9785 0.5000
vt 0.9785 0.5000
vt 0.9785 0.5000
vt 0.9785 0.5000
vt 0.9785 0.5000
vt 0.9785 0.5000
vt 0.9785 0.5000
vt 0.9785 0.5000
vt 0.9785 0.5000
vt 0.9785 0.5000
vt 0.9785 0.5000
vt 0.9785 0.5000
vt 0.9785 0.5000
vt 0.9785 0.5000
vt 0.9785 0.5000
vt 0.9785 0.5000
vt 0.9785 0.5000
vt 0.9785 0.5000
vt 0.9785 0.5000
vt 0.9785 0.5000
vt 0.9785 0.5000
vt 0.9785 0.5000
vt 0.9785 0.5000
vt 0.9785 0.5000
vt 0.9785 0.5000
vt 0.9785 0.5000
vt 0.9785 0.5000
vt 0.9785 0.5000
vt 0.9785 0.5000
vt 0.9785 0.5000
vt 0.9785 0.5000
vt 0.9785 0.5000
vt 0.9785 0.5000
vt 0.9824 0.5000
vt 0.9824 0.5000
vt 0.9824 0.5000
vt 0.9824 0.5000
vt 0.9785 0.5000
vt 0.9785 0.5000
vt 0.9785 0.5000
vt 0.9824 0.5000
vt 0.9824 0.5000
vt 0.9824 0.5000
vt 0.9785 0.5000
vt 0.9785 0.5000
vt 0.9785 0.5000
vt 0.9824 0.5000
vt 0.9785 0.5000
vt 0.9785 0.5000
vt 0.9785 0.5000
vt 0.9785 0.5000
vt 0.9824 0.5000
vt 0.9824 0.5000
vt 0.9824 0.5000
vt 0.9824 0.5000
vt 0.9785 0.5000
vt 0.9785 0.5000
vt 0.9785 0.5000
vt 0.9824 0.5000
vt 0.9785 0.5000
vt 0.9785 0.5000
vt 0.9785 0.5000
vt 0.9824 0.5000
vt 0.9785 0.5000
vt 0.9785 0.5000
vt 0.9785 0.5000
vt 0.9785 0.5000
vt 0.9824 0.5000
vt 0.9824 0.5000
vt 0.9824 0.5000
vt 0.9824 0.5000
vt 0.9785 0.5000
vt 0.9785 0.5000
vt 0.9785 0.5000
vt 0.9824 0.5000
vt 0.9785 0.5000
vt 0.9785 0.5000
vt 0.9785 0.5000
vt 0.9824 0.5000
vt 0.9785 0.5000
vt 0.9785 0.5000
vt 0.9785 0.5000
vt 0.9785 0.5000
vt 0.9824 0.5000
vt 0.9824 0.5000
vt 0.9824 0.5000
vt 0.9824 0.5000
vt 0.9824 0.5000
vt 0.9824 0.5000
vt 0.9824 0.5000
vt 0.9824 0.5000
vn -1.0000 0.0000 0.0000
vn 1.0000 0.0000 0.0000
vn 0.0000 -0.0000 1.0000
vn 0.0000 0.0000 -1.0000
vn 0.0000 -1.0000 0.0000
vn 0.0000 1.0000 0.0000
usemtl palette.001
s 1
f 1/1/1 2/2/1 3/3/1
f 4/4/1 5/5/1 1/1/1
f 6/6/1 1/1/1 3/3/1
f 6/6/1 7/7/1 4/4/1
f 6/6/1 4/4/1 1/1/1
f 8/8/1 7/7/1 6/6/1
f 9/9/1 7/7/1 8/8/1
f 10/10/1 11/11/1 9/9/1
f 10/10/1 9/9/1 8/8/1
f 12/12/1 11/11/1 10/10/1
f 13/13/1 11/11/1 12/12/1
f 14/14/1 15/15/1 13/13/1
f 14/14/1 13/13/1 12/12/1
f 16/16/1 15/15/1 14/14/1
f 17/17/1 18/18/1 19/19/1
f 20/20/1 18/18/1 17/17/1
f 21/21/1 22/22/1 23/23/1
f 24/24/1 22/22/1 21/21/1
f 25/25/1 26/26/1 24/24/1
f 27/27/1 26/26/1 25/25/1
f 28/28/1 29/29/1 30/30/1
f 31/31/1 29/29/1 28/28/1
f 32/32/1 33/33/1 27/27/1
f 34/34/1 33/33/1 32/32/1
f 35/35/1 36/36/1 37/37/1
f 38/38/1 36/36/1 35/35/1
f 39/39/1 40/40/1 34/34/1
f 41/41/1 40/40/1 39/39/1
f 42/42/1 39/43/1 43/44/1
f 42/42/1 41/45/1 39/43/1
f 44/46/1 42/42/1 43/44/1
f 44/46/1 45/47/1 42/42/1
f 46/48/1 45/47/1 44/46/1
f 47/49/1 45/47/1 46/48/1
f 48/50/1 45/47/1 47/49/1
f 49/51/2 50/52/2 51/53/2
f 51/53/2 50/52/2 52/54/2
f 53/55/2 54/56/2 55/57/2
f 55/57/2 54/56/2 56/58/2
f 56/58/2 57/59/2 58/60/2
f 58/60/2 57/59/2 59/61/2
f 60/62/2 61/63/2 62/64/2
f 62/64/2 61/63/2 63/65/2
f 59/61/2 64/66/2 65/67/2
f 65/67/2 64/66/2 66/68/2
f 67/69/2 68/70/2 69/71/2
f 69/71/2 68/70/2 70/72/2
f 66/68/2 71/73/2 72/74/2
f 72/74/2 71/73/2 73/75/2
f 74/76/2 72/77/2 75/78/2
f 72/77/2 73/79/2 75/78/2
f 74/76/2 75/78/2 76/80/2
f 75/78/2 77/81/2 76/80/2
f 76/80/2 77/81/2 78/82/2
f 78/82/2 77/81/2 79/83/2
f 79/83/2 77/81/2 80/84/2
f 81/85/2 82/86/2 83/87/2
f 83/87/2 84/88/2 85/89/2
f 81/85/2 83/87/2 86/90/2
f 85/89/2 87/91/2 86/90/2
f 83/87/2 85/89/2 86/90/2
f 86/90/2 87/91/2 88/92/2
f 88/92/2 87/91/2 89/93/2
f 89/93/2 90/94/2 91/95/2
f 88/92/2 89/93/2 91/95/2
f 91/95/2 90/94/2 92/96/2
f 92/96/2 90/94/2 93/97/2
f 93/97/2 94/98/2 95/99/2
f 92/96/2 93/97/2 95/99/2
f 95/99/2 94/98/2 96/100/2
f 97/101/3 98/102/3 99/103/3
f 100/104/3 98/102/3 97/101/3
f 101/105/3 97/101/3 99/103/3
f 101/106/3 100/107/3 97/108/3
f 102/109/3 100/107/3 101/106/3
f 103/110/3 101/105/3 99/103/3
f 103/110/3 102/111/3 101/105/3
f 104/112/3 102/111/3 103/110/3
f 105/113/3 106/114/3 107/115/3
f 108/116/3 106/114/3 105/113/3
f 109/117/3 110/118/3 111/119/3
f 112/120/3 110/118/3 109/117/3
f 113/121/3 114/122/3 115/123/3
f 116/124/3 114/122/3 113/121/3
f 117/125/3 118/126/3 119/127/3
f 120/128/3 118/126/3 117/125/3
f 121/129/3 122/130/3 123/131/3
f 124/132/3 122/130/3 121/129/3
f 125/133/3 126/134/3 127/135/3
f 128/136/3 126/134/3 125/133/3
f 129/137/3 130/138/3 131/139/3
f 132/140/3 130/138/3 129/137/3
f 133/141/3 134/142/3 135/143/3
f 136/144/3 134/142/3 133/141/3
f 137/145/4 138/146/4 139/147/4
f 139/147/4 138/146/4 140/148/4
f 141/149/4 142/150/4 143/151/4
f 143/151/4 142/150/4 144/152/4
f 145/153/4 146/154/4 147/155/4
f 147/155/4 146/154/4 148/156/4
f 149/157/4 150/158/4 151/159/4
f 151/159/4 150/158/4 152/160/4
f 153/161/4 154/162/4 155/163/4
f 155/163/4 154/162/4 156/164/4
f 157/165/4 158/166/4 159/167/4
f 159/167/4 158/166/4 160/168/4
f 161/169/4 159/167/4 162/170/4
f 162/170/4 159/167/4 163/171/4
f 163/171/4 164/172/4 165/173/4
f 165/173/4 164/172/4 166/174/4
f 167/175/4 168/176/4 169/177/4
f 169/177/4 168/176/4 170/178/4
f 171/179/4 169/177/4 172/180/4
f 172/180/4 169/177/4 173/181/4
f 173/181/4 174/182/4 175/183/4
f 175/183/4 174/182/4 176/184/4
f 177/185/4 178/186/4 179/187/4
f 179/187/4 178/186/4 180/188/4
f 181/189/4 179/187/4 182/190/4
f 182/190/4 179/187/4 183/191/4
f 183/191/4 184/192/4 185/193/4
f 185/193/4 184/192/4 186/194/4
f 187/195/4 188/196/4 189/197/4
f 188/198/4 190/199/4 191/200/4
f 189/197/4 188/196/4 191/201/4
f 191/200/4 190/199/4 192/202/4
f 193/203/4 194/204/4 195/205/4
f 195/205/4 194/204/4 196/206/4
f 197/207/5 198/208/5 199/209/5
f 200/210/5 198/208/5 197/207/5
f 201/211/5 198/208/5 200/210/5
f 202/212/5 198/208/5 201/211/5
f 203/213/5 201/211/5 200/210/5
f 204/214/5 201/211/5 203/213/5
f 205/215/5 206/216/5 207/217/5
f 208/218/5 209/219/5 210/220/5
f 211/221/5 205/215/5 207/217/5
f 211/221/5 208/218/5 205/215/5
f 212/222/5 208/218/5 211/221/5
f 213/223/5 209/219/5 208/218/5
f 213/223/5 208/218/5 212/222/5
f 214/224/5 209/219/5 213/223/5
f 215/225/5 213/223/5 212/222/5
f 216/226/5 213/223/5 215/225/5
f 217/227/5 218/228/5 219/229/5
f 220/230/5 218/228/5 217/227/5
f 221/231/5 222/232/5 223/233/5
f 224/234/5 222/232/5 221/231/5
f 225/235/5 221/231/5 220/230/5
f 226/236/5 221/231/5 225/235/5
f 227/237/5 228/238/5 229/239/5
f 230/240/5 228/238/5 227/237/5
f 231/241/5 232/242/5 233/243/5
f 234/244/5 232/242/5 231/241/5
f 235/245/5 231/241/5 230/240/5
f 236/246/5 231/241/5 235/245/5
f 237/247/5 238/248/5 239/249/5
f 240/250/5 238/248/5 237/247/5
f 241/251/5 242/252/5 243/253/5
f 244/254/5 242/252/5 241/251/5
f 245/255/5 241/251/5 240/250/5
f 246/256/5 241/251/5 245/255/5
f 247/257/5 248/258/5 249/259/5
f 250/260/5 248/258/5 247/257/5
f 251/261/6 252/262/6 253/263/6
f 252/264/6 254/265/6 253/266/6
f 254/267/6 255/268/6 256/269/6
f 253/266/6 254/265/6 256/270/6
f 251/261/6 253/263/6 257/271/6
f 257/271/6 253/263/6 258/272/6
f 256/269/6 255/268/6 259/273/6
f 259/273/6 255/268/6 260/274/6
f 261/275/6 262/276/6 263/277/6
f 263/277/6 262/276/6 264/278/6
f 265/279/6 263/280/6 266/281/6
f 263/277/6 264/278/6 266/282/6
f 264/283/6 267/284/6 268/285/6
f 266/282/6 264/278/6 268/286/6
f 265/279/6 266/281/6 269/287/6
f 269/287/6 266/281/6 270/288/6
f 268/285/6 267/284/6 271/289/6
f 271/289/6 267/284/6 272/290/6
f 273/291/6 274/292/6 275/293/6
f 275/293/6 274/292/6 276/294/6
f 277/295/6 275/296/6 278/297/6
f 275/293/6 276/294/6 278/298/6
f 276/299/6 279/300/6 280/301/6
f 278/298/6 276/294/6 280/302/6
f 277/295/6 278/297/6 281/303/6
f 281/303/6 278/297/6 282/304/6
f 280/301/6 279/300/6 283/305/6
f 283/305/6 279/300/6 284/306/6
f 285/307/6 286/308/6 287/309/6
f 287/309/6 286/308/6 288/310/6
f 289/311/6 290/312/6 291/313/6
f 291/313/6 290/312/6 292/314/6
