# Blender v2.77 (sub 0) OBJ File: ''
# www.blender.org
mtllib simplepickaxe.mtl
o pickaxe
v -12.000000 11.999998 13.000002
v -12.000000 10.999998 12.000002
v -12.000000 10.999998 13.000002
v -12.000000 12.999997 15.000002
v -12.000000 11.999997 15.000002
v -12.000000 12.999998 13.000002
v -12.000000 12.999998 12.000002
v -12.000000 13.999997 16.000002
v -12.000000 12.999997 16.000002
v -12.000000 13.999998 14.000002
v -12.000000 13.999998 13.000002
v -12.000000 14.999997 15.000003
v -12.000000 13.999997 17.000002
v -12.000000 14.999998 14.000003
v -12.000000 15.999997 17.000002
v -12.000000 16.999998 15.000003
v -12.000000 15.999997 18.000002
v -12.000000 17.999996 18.000004
v -12.000000 18.999996 19.000004
v -12.000000 17.999996 19.000004
v -12.000000 18.999996 18.000004
v -12.000000 18.999998 15.000003
v -12.000000 17.000000 4.000003
v -12.000000 19.000000 4.000003
v -12.000000 19.999996 18.000004
v -12.000000 19.999998 17.000004
v -12.000000 20.999998 15.000004
v -12.000000 21.999998 17.000004
v -12.000000 20.999998 14.000004
v -12.000000 21.999998 16.000004
v -12.000000 21.999998 14.000004
v -12.000000 22.999998 16.000004
v -12.000000 21.999998 13.000004
v -12.000000 22.999998 15.000004
v -12.000000 22.999998 13.000004
v -12.000000 23.999998 15.000004
v -12.000000 22.999998 12.000004
v -12.000000 23.999998 13.000004
v -12.000000 24.999998 13.000004
v -12.000000 24.999998 12.000004
v -11.000000 17.999996 19.000004
v -11.000000 16.999996 18.000002
v -11.000000 16.999996 19.000002
v -11.000000 17.999996 18.000004
v -11.000000 17.999996 19.000004
v -11.000000 17.999996 18.000004
v -11.000000 18.999996 19.000004
v -11.000000 18.999996 18.000004
v -10.000000 10.999998 13.000002
v -10.000000 10.999998 12.000002
v -10.000000 11.999998 13.000002
v -10.000000 11.999997 15.000002
v -10.000000 12.999997 15.000002
v -10.000000 12.999998 13.000002
v -10.000000 12.999998 12.000002
v -10.000000 12.999997 16.000002
v -10.000000 13.999997 16.000002
v -10.000000 13.999998 14.000002
v -10.000000 13.999998 13.000002
v -10.000000 13.999997 17.000002
v -10.000000 14.999997 15.000003
v -10.000000 14.999998 14.000003
v -10.000000 15.999997 17.000002
v -10.000000 15.999997 18.000002
v -10.000000 16.999996 18.000002
v -10.000000 16.999998 15.000003
v -10.000000 16.999996 19.000002
v -10.000000 17.999996 19.000004
v -10.000000 17.999996 18.000004
v -10.000000 18.999998 15.000003
v -10.000000 17.000000 4.000003
v -10.000000 19.000000 4.000003
v -10.000000 19.999996 18.000004
v -10.000000 19.999998 17.000004
v -10.000000 20.999998 15.000004
v -10.000000 20.999998 14.000004
v -10.000000 21.999998 17.000004
v -10.000000 21.999998 16.000004
v -10.000000 21.999998 14.000004
v -10.000000 21.999998 13.000004
v -10.000000 22.999998 16.000004
v -10.000000 22.999998 15.000004
v -10.000000 22.999998 13.000004
v -10.000000 22.999998 12.000004
v -10.000000 23.999998 15.000004
v -10.000000 23.999998 13.000004
v -10.000000 24.999998 13.000004
v -10.000000 24.999998 12.000004
v -11.000000 17.999996 19.000004
v -12.000000 18.999996 19.000004
v -12.000000 17.999996 19.000004
v -11.000000 18.999996 19.000004
v -10.000000 16.999996 19.000002
v -11.000000 16.999996 19.000002
v -10.000000 17.999996 19.000004
v -11.000000 16.999996 18.000002
v -12.000000 17.999996 18.000004
v -12.000000 15.999997 18.000002
v -11.000000 17.999996 18.000004
v -11.000000 18.999996 18.000004
v -12.000000 19.999996 18.000004
v -12.000000 18.999996 18.000004
v -10.000000 15.999997 18.000002
v -10.000000 16.999996 18.000002
v -10.000000 17.999996 18.000004
v -10.000000 19.999996 18.000004
v -10.000000 13.999997 17.000002
v -12.000000 15.999997 17.000002
v -12.000000 13.999997 17.000002
v -10.000000 15.999997 17.000002
v -10.000000 19.999998 17.000004
v -12.000000 21.999998 17.000004
v -12.000000 19.999998 17.000004
v -10.000000 21.999998 17.000004
v -10.000000 12.999997 16.000002
v -12.000000 13.999997 16.000002
v -12.000000 12.999997 16.000002
v -10.000000 13.999997 16.000002
v -10.000000 21.999998 16.000004
v -12.000000 22.999998 16.000004
v -12.000000 21.999998 16.000004
v -10.000000 22.999998 16.000004
v -10.000000 11.999997 15.000002
v -12.000000 12.999997 15.000002
v -12.000000 11.999997 15.000002
v -10.000000 12.999997 15.000002
v -10.000000 22.999998 15.000004
v -12.000000 23.999998 15.000004
v -12.000000 22.999998 15.000004
v -10.000000 23.999998 15.000004
v -10.000000 10.999998 13.000002
v -12.000000 11.999998 13.000002
v -12.000000 10.999998 13.000002
v -10.000000 11.999998 13.000002
v -10.000000 23.999998 13.000004
v -12.000000 24.999998 13.000004
v -12.000000 23.999998 13.000004
v -10.000000 24.999998 13.000004
v -12.000000 14.999997 15.000003
v -12.000000 16.999998 15.000003
v -10.000000 14.999997 15.000003
v -10.000000 16.999998 15.000003
v -12.000000 18.999998 15.000003
v -12.000000 20.999998 15.000004
v -10.000000 18.999998 15.000003
v -10.000000 20.999998 15.000004
v -12.000000 13.999998 14.000002
v -12.000000 14.999998 14.000003
v -10.000000 13.999998 14.000002
v -10.000000 14.999998 14.000003
v -12.000000 20.999998 14.000004
v -12.000000 21.999998 14.000004
v -10.000000 20.999998 14.000004
v -10.000000 21.999998 14.000004
v -12.000000 12.999998 13.000002
v -12.000000 13.999998 13.000002
v -10.000000 12.999998 13.000002
v -10.000000 13.999998 13.000002
v -12.000000 21.999998 13.000004
v -12.000000 22.999998 13.000004
v -10.000000 21.999998 13.000004
v -10.000000 22.999998 13.000004
v -12.000000 10.999998 12.000002
v -12.000000 12.999998 12.000002
v -10.000000 10.999998 12.000002
v -10.000000 12.999998 12.000002
v -12.000000 22.999998 12.000004
v -12.000000 24.999998 12.000004
v -10.000000 22.999998 12.000004
v -10.000000 24.999998 12.000004
v -12.000000 17.000000 4.000003
v -12.000000 19.000000 4.000003
v -10.000000 17.000000 4.000003
v -10.000000 19.000000 4.000003
v -12.000000 10.999998 12.000002
v -10.000000 10.999998 13.000002
v -12.000000 10.999998 13.000002
v -10.000000 10.999998 12.000002
v -12.000000 11.999998 13.000002
v -10.000000 11.999997 15.000002
v -12.000000 11.999997 15.000002
v -10.000000 11.999998 13.000002
v -12.000000 12.999997 15.000002
v -10.000000 12.999997 16.000002
v -12.000000 12.999997 16.000002
v -10.000000 12.999997 15.000002
v -12.000000 13.999997 16.000002
v -10.000000 13.999997 17.000002
v -12.000000 13.999997 17.000002
v -10.000000 13.999997 16.000002
v -12.000000 15.999997 17.000002
v -10.000000 15.999997 18.000002
v -12.000000 15.999997 18.000002
v -10.000000 15.999997 17.000002
v -11.000000 16.999996 18.000002
v -10.000000 16.999996 19.000002
v -11.000000 16.999996 19.000002
v -10.000000 16.999996 18.000002
v -12.000000 17.000000 4.000003
v -10.000000 16.999998 15.000003
v -12.000000 16.999998 15.000003
v -10.000000 17.000000 4.000003
v -12.000000 17.999996 18.000004
v -11.000000 17.999996 19.000004
v -12.000000 17.999996 19.000004
v -11.000000 17.999996 18.000004
v -12.000000 20.999998 14.000004
v -10.000000 20.999998 15.000004
v -12.000000 20.999998 15.000004
v -10.000000 20.999998 14.000004
v -12.000000 21.999998 13.000004
v -10.000000 21.999998 14.000004
v -12.000000 21.999998 14.000004
v -10.000000 21.999998 13.000004
v -12.000000 22.999998 12.000004
v -10.000000 22.999998 13.000004
v -12.000000 22.999998 13.000004
v -10.000000 22.999998 12.000004
v -12.000000 12.999998 13.000002
v -10.000000 12.999998 13.000002
v -12.000000 12.999998 12.000002
v -10.000000 12.999998 12.000002
v -12.000000 13.999998 14.000002
v -10.000000 13.999998 14.000002
v -12.000000 13.999998 13.000002
v -10.000000 13.999998 13.000002
v -12.000000 14.999997 15.000003
v -10.000000 14.999997 15.000003
v -12.000000 14.999998 14.000003
v -10.000000 14.999998 14.000003
v -11.000000 17.999996 19.000004
v -10.000000 17.999996 19.000004
v -11.000000 17.999996 18.000004
v -10.000000 17.999996 18.000004
v -12.000000 18.999996 19.000004
v -11.000000 18.999996 19.000004
v -12.000000 18.999996 18.000004
v -11.000000 18.999996 18.000004
v -12.000000 18.999998 15.000003
v -10.000000 18.999998 15.000003
v -12.000000 19.000000 4.000003
v -10.000000 19.000000 4.000003
v -12.000000 19.999996 18.000004
v -10.000000 19.999996 18.000004
v -12.000000 19.999998 17.000004
v -10.000000 19.999998 17.000004
v -12.000000 21.999998 17.000004
v -10.000000 21.999998 17.000004
v -12.000000 21.999998 16.000004
v -10.000000 21.999998 16.000004
v -12.000000 22.999998 16.000004
v -10.000000 22.999998 16.000004
v -12.000000 22.999998 15.000004
v -10.000000 22.999998 15.000004
v -12.000000 23.999998 15.000004
v -10.000000 23.999998 15.000004
v -12.000000 23.999998 13.000004
v -10.000000 23.999998 13.000004
v -12.000000 24.999998 13.000004
v -10.000000 24.999998 13.000004
v -12.000000 24.999998 12.000004
v -10.000000 24.999998 12.000004
vt 0.9707 0.5000
vt 0.9707 0.5000
vt 0.9707 0.5000
vt 0.9707 0.5000
vt 0.9707 0.5000
vt 0.9707 0.5000
vt 0.9707 0.5000
vt 0.9707 0.5000
vt 0.9707 0.5000
vt 0.9707 0.5000
vt 0.9707 0.5000
vt 0.9707 0.5000
vt 0.9707 0.5000
vt 0.9707 0.5000
vt 0.9707 0.5000
vt 0.9707 0.5000
vt 0.9707 0.5000
vt 0.9707 0.5000
vt 0.9707 0.5000
vt 0.9707 0.5000
vt 0.9707 0.5000
vt 0.8730 0.5000
vt 0.8730 0.5000
vt 0.8730 0.5000
vt 0.9707 0.5000
vt 0.8730 0.5000
vt 0.9707 0.5000
vt 0.9707 0.5000
vt 0.9707 0.5000
vt 0.9707 0.5000
vt 0.9707 0.5000
vt 0.9707 0.5000
vt 0.9707 0.5000
vt 0.9707 0.5000
vt 0.9707 0.5000
vt 0.9707 0.5000
vt 0.9707 0.5000
vt 0.9707 0.5000
vt 0.9707 0.5000
vt 0.9707 0.5000
vt 0.9707 0.5000
vt 0.9707 0.5000
vt 0.9707 0.5000
vt 0.9707 0.5000
vt 0.9707 0.5000
vt 0.9707 0.5000
vt 0.9707 0.5000
vt 0.9707 0.5000
vt 0.9707 0.5000
vt 0.9707 0.5000
vt 0.9707 0.5000
vt 0.9707 0.5000
vt 0.9707 0.5000
vt 0.9707 0.5000
vt 0.9707 0.5000
vt 0.9707 0.5000
vt 0.9707 0.5000
vt 0.9707 0.5000
vt 0.9707 0.5000
vt 0.9707 0.5000
vt 0.9707 0.5000
vt 0.9707 0.5000
vt 0.9707 0.5000
vt 0.9707 0.5000
vt 0.9707 0.5000
vt 0.9707 0.5000
vt 0.9707 0.5000
vt 0.9707 0.5000
vt 0.9707 0.5000
vt 0.9707 0.5000
vt 0.9707 0.5000
vt 0.9707 0.5000
vt 0.8730 0.5000
vt 0.8730 0.5000
vt 0.8730 0.5000
vt 0.8730 0.5000
vt 0.9707 0.5000
vt 0.9707 0.5000
vt 0.9707 0.5000
vt 0.9707 0.5000
vt 0.9707 0.5000
vt 0.9707 0.5000
vt 0.9707 0.5000
vt 0.9707 0.5000
vt 0.9707 0.5000
vt 0.9707 0.5000
vt 0.9707 0.5000
vt 0.9707 0.5000
vt 0.9707 0.5000
vt 0.9707 0.5000
vt 0.9707 0.5000
vt 0.9707 0.5000
vt 0.9707 0.5000
vt 0.9707 0.5000
vt 0.9707 0.5000
vt 0.9707 0.5000
vt 0.9707 0.5000
vt 0.9707 0.5000
vt 0.9707 0.5000
vt 0.9707 0.5000
vt 0.9707 0.5000
vt 0.9707 0.5000
vt 0.9707 0.5000
vt 0.9707 0.5000
vt 0.9707 0.5000
vt 0.9707 0.5000
vt 0.9707 0.5000
vt 0.9707 0.5000
vt 0.9707 0.5000
vt 0.9707 0.5000
vt 0.9707 0.5000
vt 0.9707 0.5000
vt 0.9707 0.5000
vt 0.9707 0.5000
vt 0.9707 0.5000
vt 0.9707 0.5000
vt 0.9707 0.5000
vt 0.9707 0.5000
vt 0.9707 0.5000
vt 0.9707 0.5000
vt 0.9707 0.5000
vt 0.9707 0.5000
vt 0.9707 0.5000
vt 0.9707 0.5000
vt 0.9707 0.5000
vt 0.9707 0.5000
vt 0.9707 0.5000
vt 0.9707 0.5000
vt 0.9707 0.5000
vt 0.9707 0.5000
vt 0.9707 0.5000
vt 0.9707 0.5000
vt 0.9707 0.5000
vt 0.9707 0.5000
vt 0.9707 0.5000
vt 0.9707 0.5000
vt 0.9707 0.5000
vt 0.9707 0.5000
vt 0.9707 0.5000
vt 0.9707 0.5000
vt 0.9707 0.5000
vt 0.9707 0.5000
vt 0.9707 0.5000
vt 0.9707 0.5000
vt 0.9707 0.5000
vt 0.9707 0.5000
vt 0.9707 0.5000
vt 0.9707 0.5000
vt 0.9707 0.5000
vt 0.9707 0.5000
vt 0.9707 0.5000
vt 0.9707 0.5000
vt 0.9707 0.5000
vt 0.9707 0.5000
vt 0.9707 0.5000
vt 0.9707 0.5000
vt 0.9707 0.5000
vt 0.9707 0.5000
vt 0.9707 0.5000
vt 0.9707 0.5000
vt 0.9707 0.5000
vt 0.9707 0.5000
vt 0.9707 0.5000
vt 0.9707 0.5000
vt 0.9707 0.5000
vt 0.9707 0.5000
vt 0.9707 0.5000
vt 0.9707 0.5000
vt 0.9707 0.5000
vt 0.9707 0.5000
vt 0.9707 0.5000
vt 0.9707 0.5000
vt 0.9707 0.5000
vt 0.9707 0.5000
vt 0.8730 0.5000
vt 0.8730 0.5000
vt 0.8730 0.5000
vt 0.8730 0.5000
vt 0.9707 0.5000
vt 0.9707 0.5000
vt 0.9707 0.5000
vt 0.9707 0.5000
vt 0.9707 0.5000
vt 0.9707 0.5000
vt 0.9707 0.5000
vt 0.9707 0.5000
vt 0.9707 0.5000
vt 0.9707 0.5000
vt 0.9707 0.5000
vt 0.9707 0.5000
vt 0.9707 0.5000
vt 0.9707 0.5000
vt 0.9707 0.5000
vt 0.9707 0.5000
vt 0.9707 0.5000
vt 0.9707 0.5000
vt 0.9707 0.5000
vt 0.9707 0.5000
vt 0.9707 0.5000
vt 0.9707 0.5000
vt 0.9707 0.5000
vt 0.9707 0.5000
vt 0.8730 0.5000
vt 0.8730 0.5000
vt 0.8730 0.5000
vt 0.8730 0.5000
vt 0.9707 0.5000
vt 0.9707 0.5000
vt 0.9707 0.5000
vt 0.9707 0.5000
vt 0.9707 0.5000
vt 0.9707 0.5000
vt 0.9707 0.5000
vt 0.9707 0.5000
vt 0.9707 0.5000
vt 0.9707 0.5000
vt 0.9707 0.5000
vt 0.9707 0.5000
vt 0.9707 0.5000
vt 0.9707 0.5000
vt 0.9707 0.5000
vt 0.9707 0.5000
vt 0.9707 0.5000
vt 0.9707 0.5000
vt 0.9707 0.5000
vt 0.9707 0.5000
vt 0.9707 0.5000
vt 0.9707 0.5000
vt 0.9707 0.5000
vt 0.9707 0.5000
vt 0.9707 0.5000
vt 0.9707 0.5000
vt 0.9707 0.5000
vt 0.9707 0.5000
vt 0.9707 0.5000
vt 0.9707 0.5000
vt 0.9707 0.5000
vt 0.9707 0.5000
vt 0.9707 0.5000
vt 0.9707 0.5000
vt 0.9707 0.5000
vt 0.9707 0.5000
vt 0.8730 0.5000
vt 0.8730 0.5000
vt 0.8730 0.5000
vt 0.8730 0.5000
vt 0.9707 0.5000
vt 0.9707 0.5000
vt 0.9707 0.5000
vt 0.9707 0.5000
vt 0.9707 0.5000
vt 0.9707 0.5000
vt 0.9707 0.5000
vt 0.9707 0.5000
vt 0.9707 0.5000
vt 0.9707 0.5000
vt 0.9707 0.5000
vt 0.9707 0.5000
vt 0.9707 0.5000
vt 0.9707 0.5000
vt 0.9707 0.5000
vt 0.9707 0.5000
vt 0.9707 0.5000
vt 0.9707 0.5000
vt 0.9707 0.5000
vt 0.9707 0.5000
vn -1.0000 0.0000 0.0000
vn 1.0000 0.0000 0.0000
vn 0.0000 0.0000 1.0000
vn 0.0000 0.0000 -1.0000
vn 0.0000 -1.0000 0.0000
vn 0.0000 1.0000 0.0000
usemtl palette
s 1
f 1/1/1 2/2/1 3/3/1
f 4/4/1 1/1/1 5/5/1
f 6/6/1 2/2/1 1/1/1
f 6/6/1 1/1/1 4/4/1
f 7/7/1 2/2/1 6/6/1
f 8/8/1 4/4/1 9/9/1
f 8/8/1 6/6/1 4/4/1
f 10/10/1 6/6/1 8/8/1
f 11/11/1 6/6/1 10/10/1
f 12/12/1 8/8/1 13/13/1
f 12/12/1 10/10/1 8/8/1
f 14/14/1 10/10/1 12/12/1
f 15/15/1 12/12/1 13/13/1
f 16/16/1 15/15/1 17/17/1
f 16/16/1 12/12/1 15/15/1
f 18/18/1 16/16/1 17/17/1
f 19/19/1 18/18/1 20/20/1
f 21/21/1 16/16/1 18/18/1
f 21/21/1 18/18/1 19/19/1
f 22/22/1 23/23/1 16/24/1
f 22/25/1 16/16/1 21/21/1
f 24/26/1 23/23/1 22/22/1
f 25/27/1 22/25/1 21/21/1
f 26/28/1 22/25/1 25/27/1
f 27/29/1 22/25/1 26/28/1
f 28/30/1 27/29/1 26/28/1
f 28/30/1 29/31/1 27/29/1
f 30/32/1 29/31/1 28/30/1
f 31/33/1 29/31/1 30/32/1
f 32/34/1 33/35/1 31/33/1
f 32/34/1 31/33/1 30/32/1
f 34/36/1 33/35/1 32/34/1
f 35/37/1 33/35/1 34/36/1
f 36/38/1 37/39/1 35/37/1
f 36/38/1 35/37/1 34/36/1
f 38/40/1 37/39/1 36/38/1
f 39/41/1 37/39/1 38/40/1
f 40/42/1 37/39/1 39/41/1
f 41/43/1 42/44/1 43/45/1
f 44/46/1 42/44/1 41/43/1
f 45/47/2 46/48/2 47/49/2
f 47/49/2 46/48/2 48/50/2
f 49/51/2 50/52/2 51/53/2
f 52/54/2 51/53/2 53/55/2
f 51/53/2 50/52/2 54/56/2
f 53/55/2 51/53/2 54/56/2
f 54/56/2 50/52/2 55/57/2
f 56/58/2 53/55/2 57/59/2
f 53/55/2 54/56/2 57/59/2
f 57/59/2 54/56/2 58/60/2
f 58/60/2 54/56/2 59/61/2
f 60/62/2 57/59/2 61/63/2
f 57/59/2 58/60/2 61/63/2
f 61/63/2 58/60/2 62/64/2
f 60/62/2 61/63/2 63/65/2
f 64/66/2 63/65/2 65/67/2
f 63/65/2 61/63/2 66/68/2
f 65/67/2 63/65/2 66/68/2
f 67/69/2 65/67/2 68/70/2
f 65/67/2 66/68/2 68/70/2
f 68/70/2 66/68/2 69/71/2
f 69/71/2 66/68/2 70/72/2
f 66/73/2 71/74/2 70/75/2
f 70/75/2 71/74/2 72/76/2
f 69/71/2 70/72/2 73/77/2
f 73/77/2 70/72/2 74/78/2
f 74/78/2 70/72/2 75/79/2
f 75/79/2 76/80/2 77/81/2
f 74/78/2 75/79/2 77/81/2
f 77/81/2 76/80/2 78/82/2
f 78/82/2 76/80/2 79/83/2
f 79/83/2 80/84/2 81/85/2
f 78/82/2 79/83/2 81/85/2
f 81/85/2 80/84/2 82/86/2
f 82/86/2 80/84/2 83/87/2
f 83/87/2 84/88/2 85/89/2
f 82/86/2 83/87/2 85/89/2
f 85/89/2 84/88/2 86/90/2
f 86/90/2 84/88/2 87/91/2
f 87/91/2 84/88/2 88/92/2
f 89/93/3 90/94/3 91/95/3
f 92/96/3 90/94/3 89/93/3
f 93/97/3 89/93/3 94/98/3
f 95/99/3 89/93/3 93/97/3
f 96/100/3 97/101/3 98/102/3
f 99/103/3 97/101/3 96/100/3
f 100/104/3 101/105/3 102/106/3
f 103/107/3 96/100/3 98/102/3
f 104/108/3 96/100/3 103/107/3
f 105/109/3 100/104/3 99/103/3
f 106/110/3 101/105/3 100/104/3
f 106/110/3 100/104/3 105/109/3
f 107/111/3 108/112/3 109/113/3
f 110/114/3 108/112/3 107/111/3
f 111/115/3 112/116/3 113/117/3
f 114/118/3 112/116/3 111/115/3
f 115/119/3 116/120/3 117/121/3
f 118/122/3 116/120/3 115/119/3
f 119/123/3 120/124/3 121/125/3
f 122/126/3 120/124/3 119/123/3
f 123/127/3 124/128/3 125/129/3
f 126/130/3 124/128/3 123/127/3
f 127/131/3 128/132/3 129/133/3
f 130/134/3 128/132/3 127/131/3
f 131/135/3 132/136/3 133/137/3
f 134/138/3 132/136/3 131/135/3
f 135/139/3 136/140/3 137/141/3
f 138/142/3 136/140/3 135/139/3
f 139/143/4 140/144/4 141/145/4
f 141/145/4 140/144/4 142/146/4
f 143/147/4 144/148/4 145/149/4
f 145/149/4 144/148/4 146/150/4
f 147/151/4 148/152/4 149/153/4
f 149/153/4 148/152/4 150/154/4
f 151/155/4 152/156/4 153/157/4
f 153/157/4 152/156/4 154/158/4
f 155/159/4 156/160/4 157/161/4
f 157/161/4 156/160/4 158/162/4
f 159/163/4 160/164/4 161/165/4
f 161/165/4 160/164/4 162/166/4
f 163/167/4 164/168/4 165/169/4
f 165/169/4 164/168/4 166/170/4
f 167/171/4 168/172/4 169/173/4
f 169/173/4 168/172/4 170/174/4
f 171/175/4 172/176/4 173/177/4
f 173/177/4 172/176/4 174/178/4
f 175/179/5 176/180/5 177/181/5
f 178/182/5 176/180/5 175/179/5
f 179/183/5 180/184/5 181/185/5
f 182/186/5 180/184/5 179/183/5
f 183/187/5 184/188/5 185/189/5
f 186/190/5 184/188/5 183/187/5
f 187/191/5 188/192/5 189/193/5
f 190/194/5 188/192/5 187/191/5
f 191/195/5 192/196/5 193/197/5
f 194/198/5 192/196/5 191/195/5
f 195/199/5 196/200/5 197/201/5
f 198/202/5 196/200/5 195/199/5
f 199/203/5 200/204/5 201/205/5
f 202/206/5 200/204/5 199/203/5
f 203/207/5 204/208/5 205/209/5
f 206/210/5 204/208/5 203/207/5
f 207/211/5 208/212/5 209/213/5
f 210/214/5 208/212/5 207/211/5
f 211/215/5 212/216/5 213/217/5
f 214/218/5 212/216/5 211/215/5
f 215/219/5 216/220/5 217/221/5
f 218/222/5 216/220/5 215/219/5
f 219/223/6 220/224/6 221/225/6
f 221/225/6 220/224/6 222/226/6
f 223/227/6 224/228/6 225/229/6
f 225/229/6 224/228/6 226/230/6
f 227/231/6 228/232/6 229/233/6
f 229/233/6 228/232/6 230/234/6
f 231/235/6 232/236/6 233/237/6
f 233/237/6 232/236/6 234/238/6
f 235/239/6 236/240/6 237/241/6
f 237/241/6 236/240/6 238/242/6
f 239/243/6 240/244/6 241/245/6
f 241/245/6 240/244/6 242/246/6
f 243/247/6 244/248/6 245/249/6
f 245/249/6 244/248/6 246/250/6
f 247/251/6 248/252/6 249/253/6
f 249/253/6 248/252/6 250/254/6
f 251/255/6 252/256/6 253/257/6
f 253/257/6 252/256/6 254/258/6
f 255/259/6 256/260/6 257/261/6
f 257/261/6 256/260/6 258/262/6
f 259/263/6 260/264/6 261/265/6
f 261/265/6 260/264/6 262/266/6
