# Blender v2.77 (sub 0) OBJ File: ''
# www.blender.org
mtllib skeletonhead.mtl
o SamAsSkeleton
v -4.000000 34.000000 0.000006
v -4.000000 33.000000 -1.999995
v -4.000000 33.000000 0.000005
v -4.000000 34.000000 -0.999994
v -4.000000 34.000000 -1.999995
v -4.000000 35.000000 -0.999994
v -4.000000 34.000000 -2.999995
v -4.000000 40.000000 2.000006
v -4.000000 35.000000 2.000006
v -4.000000 40.000000 -2.999994
v -3.000000 33.000000 0.000005
v -3.000000 32.000000 -2.999995
v -3.000000 32.000000 1.000005
v -3.000000 33.000000 -1.999995
v -3.000000 34.000000 0.000006
v -3.000000 34.000000 -1.999995
v -3.000000 34.000000 -2.999995
v -3.000000 35.000000 1.000006
v -3.000000 34.000000 -0.999994
v -3.000000 35.000000 -0.999994
v -3.000000 39.000000 -2.999994
v -3.000000 35.000000 -3.999994
v -3.000000 35.000000 -2.999994
v -3.000000 39.000000 -3.999994
v -3.000000 41.000000 2.000007
v -3.000000 40.000000 -2.999994
v -3.000000 40.000000 2.000006
v -3.000000 41.000000 -2.999993
v -2.000000 35.000000 -2.999994
v -2.000000 34.000000 -3.999995
v -2.000000 34.000000 -2.999995
v -2.000000 35.000000 -3.999994
v -2.000000 40.000000 -2.999994
v -2.000000 39.000000 -3.999994
v -2.000000 39.000000 -2.999994
v -2.000000 40.000000 -3.999994
v -1.000000 40.000000 2.000006
v -1.000000 38.000000 1.000006
v -1.000000 38.000000 2.000006
v -1.000000 40.000000 1.000007
v 0.000000 37.000000 2.000006
v 0.000000 36.000000 1.000006
v 0.000000 36.000000 2.000006
v 0.000000 37.000000 1.000006
v 2.000000 37.000000 2.000006
v 2.000000 36.000000 1.000006
v 2.000000 36.000000 2.000006
v 2.000000 37.000000 1.000006
v 3.000000 34.000000 1.000005
v 3.000000 33.000000 0.000005
v 3.000000 33.000000 1.000005
v 3.000000 34.000000 0.000006
v 4.000000 40.000000 2.000006
v 4.000000 38.000000 1.000006
v 4.000000 38.000000 2.000006
v 4.000000 40.000000 1.000007
v -3.000000 38.000000 2.000006
v -3.000000 38.000000 1.000006
v -3.000000 40.000000 2.000006
v -3.000000 40.000000 1.000007
v -2.000000 33.000000 1.000005
v -2.000000 33.000000 0.000005
v -2.000000 34.000000 1.000005
v -2.000000 34.000000 0.000006
v -1.000000 36.000000 2.000006
v -1.000000 36.000000 1.000006
v -1.000000 37.000000 2.000006
v -1.000000 37.000000 1.000006
v 1.000000 36.000000 2.000006
v 1.000000 36.000000 1.000006
v 1.000000 37.000000 2.000006
v 1.000000 37.000000 1.000006
v 2.000000 38.000000 2.000006
v 2.000000 38.000000 1.000006
v 2.000000 40.000000 2.000006
v 2.000000 40.000000 1.000007
v 3.000000 34.000000 -2.999995
v 3.000000 34.000000 -3.999995
v 3.000000 35.000000 -2.999994
v 3.000000 35.000000 -3.999994
v 3.000000 39.000000 -2.999994
v 3.000000 39.000000 -3.999994
v 3.000000 40.000000 -2.999994
v 3.000000 40.000000 -3.999994
v 4.000000 32.000000 1.000005
v 4.000000 32.000000 -2.999995
v 4.000000 33.000000 0.000005
v 4.000000 33.000000 -1.999995
v 4.000000 34.000000 0.000006
v 4.000000 34.000000 -1.999995
v 4.000000 34.000000 -2.999995
v 4.000000 34.000000 -0.999994
v 4.000000 35.000000 1.000006
v 4.000000 35.000000 -0.999994
v 4.000000 35.000000 -2.999994
v 4.000000 35.000000 -3.999994
v 4.000000 39.000000 -2.999994
v 4.000000 39.000000 -3.999994
v 4.000000 40.000000 2.000006
v 4.000000 40.000000 -2.999994
v 4.000000 41.000000 2.000007
v 4.000000 41.000000 -2.999993
v 5.000000 33.000000 0.000005
v 5.000000 33.000000 -1.999995
v 5.000000 34.000000 0.000006
v 5.000000 34.000000 -0.999994
v 5.000000 34.000000 -1.999995
v 5.000000 34.000000 -2.999995
v 5.000000 35.000000 -0.999994
v 5.000000 35.000000 2.000006
v 5.000000 40.000000 2.000006
v 5.000000 40.000000 -2.999994
v -3.000000 38.000000 2.000006
v -4.000000 40.000000 2.000006
v -4.000000 35.000000 2.000006
v -3.000000 40.000000 2.000006
v -1.000000 36.000000 2.000006
v -1.000000 37.000000 2.000006
v -1.000000 38.000000 2.000006
v -1.000000 40.000000 2.000006
v -3.000000 41.000000 2.000007
v 0.000000 36.000000 2.000006
v 0.000000 37.000000 2.000006
v 1.000000 36.000000 2.000006
v 1.000000 37.000000 2.000006
v 2.000000 36.000000 2.000006
v 2.000000 37.000000 2.000006
v 2.000000 38.000000 2.000006
v 2.000000 40.000000 2.000006
v 4.000000 38.000000 2.000006
v 4.000000 40.000000 2.000006
v 4.000000 41.000000 2.000007
v 5.000000 35.000000 2.000006
v 5.000000 40.000000 2.000006
v -2.000000 33.000000 1.000005
v -3.000000 35.000000 1.000006
v -3.000000 32.000000 1.000005
v -2.000000 34.000000 1.000005
v -1.000000 38.000000 1.000006
v -3.000000 40.000000 1.000007
v -3.000000 38.000000 1.000006
v -1.000000 40.000000 1.000007
v 0.000000 36.000000 1.000006
v -1.000000 37.000000 1.000006
v -1.000000 36.000000 1.000006
v 0.000000 37.000000 1.000006
v 2.000000 36.000000 1.000006
v 1.000000 37.000000 1.000006
v 1.000000 36.000000 1.000006
v 2.000000 37.000000 1.000006
v 3.000000 33.000000 1.000005
v 3.000000 34.000000 1.000005
v 4.000000 32.000000 1.000005
v 4.000000 35.000000 1.000006
v 4.000000 38.000000 1.000006
v 2.000000 40.000000 1.000007
v 2.000000 38.000000 1.000006
v 4.000000 40.000000 1.000007
v -3.000000 33.000000 0.000005
v -4.000000 34.000000 0.000006
v -4.000000 33.000000 0.000005
v -3.000000 34.000000 0.000006
v 3.000000 33.000000 0.000005
v -2.000000 34.000000 0.000006
v -2.000000 33.000000 0.000005
v 3.000000 34.000000 0.000006
v 5.000000 33.000000 0.000005
v 4.000000 34.000000 0.000006
v 4.000000 33.000000 0.000005
v 5.000000 34.000000 0.000006
v -3.000000 34.000000 -0.999994
v -4.000000 35.000000 -0.999994
v -4.000000 34.000000 -0.999994
v -3.000000 35.000000 -0.999994
v 5.000000 34.000000 -0.999994
v 4.000000 35.000000 -0.999994
v 4.000000 34.000000 -0.999994
v 5.000000 35.000000 -0.999994
v -4.000000 33.000000 -1.999995
v -4.000000 34.000000 -1.999995
v -3.000000 33.000000 -1.999995
v -3.000000 34.000000 -1.999995
v 4.000000 33.000000 -1.999995
v 4.000000 34.000000 -1.999995
v 5.000000 33.000000 -1.999995
v 5.000000 34.000000 -1.999995
v -4.000000 34.000000 -2.999995
v -4.000000 40.000000 -2.999994
v -3.000000 34.000000 -2.999995
v -3.000000 35.000000 -2.999994
v -3.000000 39.000000 -2.999994
v -3.000000 40.000000 -2.999994
v -3.000000 32.000000 -2.999995
v -2.000000 34.000000 -2.999995
v -2.000000 35.000000 -2.999994
v -3.000000 41.000000 -2.999993
v -2.000000 39.000000 -2.999994
v -2.000000 40.000000 -2.999994
v 3.000000 34.000000 -2.999995
v 3.000000 40.000000 -2.999994
v 3.000000 35.000000 -2.999994
v 4.000000 32.000000 -2.999995
v 4.000000 34.000000 -2.999995
v 4.000000 35.000000 -2.999994
v 3.000000 39.000000 -2.999994
v 4.000000 39.000000 -2.999994
v 4.000000 40.000000 -2.999994
v 4.000000 41.000000 -2.999993
v 5.000000 34.000000 -2.999995
v 5.000000 40.000000 -2.999994
v -3.000000 35.000000 -3.999994
v -3.000000 39.000000 -3.999994
v -2.000000 35.000000 -3.999994
v -2.000000 39.000000 -3.999994
v -2.000000 40.000000 -3.999994
v 3.000000 34.000000 -3.999995
v -2.000000 34.000000 -3.999995
v 3.000000 35.000000 -3.999994
v 3.000000 39.000000 -3.999994
v 3.000000 40.000000 -3.999994
v 4.000000 35.000000 -3.999994
v 4.000000 39.000000 -3.999994
v -3.000000 32.000000 -2.999995
v 4.000000 32.000000 1.000005
v -3.000000 32.000000 1.000005
v 4.000000 32.000000 -2.999995
v -4.000000 33.000000 -1.999995
v -3.000000 33.000000 0.000005
v -4.000000 33.000000 0.000005
v -3.000000 33.000000 -1.999995
v 4.000000 33.000000 -1.999995
v 5.000000 33.000000 0.000005
v 4.000000 33.000000 0.000005
v 5.000000 33.000000 -1.999995
v -2.000000 34.000000 0.000006
v 3.000000 34.000000 1.000005
v -2.000000 34.000000 1.000005
v 3.000000 34.000000 0.000006
v -4.000000 34.000000 -2.999995
v -3.000000 34.000000 -1.999995
v -4.000000 34.000000 -1.999995
v -3.000000 34.000000 -2.999995
v 4.000000 34.000000 -2.999995
v 5.000000 34.000000 -1.999995
v 4.000000 34.000000 -1.999995
v 5.000000 34.000000 -2.999995
v -2.000000 34.000000 -3.999995
v 3.000000 34.000000 -2.999995
v -2.000000 34.000000 -2.999995
v 3.000000 34.000000 -3.999995
v -3.000000 35.000000 1.000006
v 5.000000 35.000000 2.000006
v -4.000000 35.000000 2.000006
v 4.000000 35.000000 1.000006
v -4.000000 35.000000 -0.999994
v -3.000000 35.000000 -0.999994
v 4.000000 35.000000 -0.999994
v 5.000000 35.000000 -0.999994
v -3.000000 35.000000 -3.999994
v -2.000000 35.000000 -2.999994
v -3.000000 35.000000 -2.999994
v -2.000000 35.000000 -3.999994
v 3.000000 35.000000 -3.999994
v 4.000000 35.000000 -2.999994
v 3.000000 35.000000 -2.999994
v 4.000000 35.000000 -3.999994
v -1.000000 37.000000 1.000006
v 0.000000 37.000000 2.000006
v -1.000000 37.000000 2.000006
v 0.000000 37.000000 1.000006
v 1.000000 37.000000 1.000006
v 2.000000 37.000000 2.000006
v 1.000000 37.000000 2.000006
v 2.000000 37.000000 1.000006
v -3.000000 40.000000 1.000007
v -1.000000 40.000000 2.000006
v -3.000000 40.000000 2.000006
v -1.000000 40.000000 1.000007
v 2.000000 40.000000 1.000007
v 4.000000 40.000000 2.000006
v 2.000000 40.000000 2.000006
v 4.000000 40.000000 1.000007
v -2.000000 33.000000 1.000005
v 3.000000 33.000000 1.000005
v -2.000000 33.000000 0.000005
v 3.000000 33.000000 0.000005
v -4.000000 34.000000 0.000006
v -3.000000 34.000000 0.000006
v -4.000000 34.000000 -0.999994
v -3.000000 34.000000 -0.999994
v 4.000000 34.000000 0.000006
v 5.000000 34.000000 0.000006
v 4.000000 34.000000 -0.999994
v 5.000000 34.000000 -0.999994
v -1.000000 36.000000 2.000006
v 0.000000 36.000000 2.000006
v -1.000000 36.000000 1.000006
v 0.000000 36.000000 1.000006
v 1.000000 36.000000 2.000006
v 2.000000 36.000000 2.000006
v 1.000000 36.000000 1.000006
v 2.000000 36.000000 1.000006
v -3.000000 38.000000 2.000006
v -1.000000 38.000000 2.000006
v -3.000000 38.000000 1.000006
v -1.000000 38.000000 1.000006
v 2.000000 38.000000 2.000006
v 4.000000 38.000000 2.000006
v 2.000000 38.000000 1.000006
v 4.000000 38.000000 1.000006
v -3.000000 39.000000 -2.999994
v -2.000000 39.000000 -2.999994
v -3.000000 39.000000 -3.999994
v -2.000000 39.000000 -3.999994
v 3.000000 39.000000 -2.999994
v 4.000000 39.000000 -2.999994
v 3.000000 39.000000 -3.999994
v 4.000000 39.000000 -3.999994
v -4.000000 40.000000 2.000006
v -3.000000 40.000000 2.000006
v -4.000000 40.000000 -2.999994
v -3.000000 40.000000 -2.999994
v 4.000000 40.000000 2.000006
v 5.000000 40.000000 2.000006
v 4.000000 40.000000 -2.999994
v 5.000000 40.000000 -2.999994
v -2.000000 40.000000 -2.999994
v 3.000000 40.000000 -2.999994
v -2.000000 40.000000 -3.999994
v 3.000000 40.000000 -3.999994
v -3.000000 41.000000 2.000007
v 4.000000 41.000000 2.000007
v -3.000000 41.000000 -2.999993
v 4.000000 41.000000 -2.999993
vt 0.9590 0.5000
vt 0.9590 0.5000
vt 0.9590 0.5000
vt 0.9590 0.5000
vt 0.9590 0.5000
vt 0.9590 0.5000
vt 0.9590 0.5000
vt 0.9590 0.5000
vt 0.9590 0.5000
vt 0.9590 0.5000
vt 0.9590 0.5000
vt 0.9590 0.5000
vt 0.9590 0.5000
vt 0.9590 0.5000
vt 0.9590 0.5000
vt 0.9590 0.5000
vt 0.9590 0.5000
vt 0.9590 0.5000
vt 0.9590 0.5000
vt 0.9590 0.5000
vt 0.9590 0.5000
vt 0.9590 0.5000
vt 0.9590 0.5000
vt 0.9590 0.5000
vt 0.9590 0.5000
vt 0.9590 0.5000
vt 0.9590 0.5000
vt 0.9590 0.5000
vt 0.9590 0.5000
vt 0.9590 0.5000
vt 0.9590 0.5000
vt 0.9590 0.5000
vt 0.9590 0.5000
vt 0.9590 0.5000
vt 0.9590 0.5000
vt 0.9590 0.5000
vt 0.9590 0.5000
vt 0.9590 0.5000
vt 0.9590 0.5000
vt 0.9590 0.5000
vt 0.9590 0.5000
vt 0.9590 0.5000
vt 0.9590 0.5000
vt 0.9590 0.5000
vt 0.9590 0.5000
vt 0.9590 0.5000
vt 0.9590 0.5000
vt 0.9590 0.5000
vt 0.9590 0.5000
vt 0.9590 0.5000
vt 0.9590 0.5000
vt 0.9590 0.5000
vt 0.9590 0.5000
vt 0.9590 0.5000
vt 0.9590 0.5000
vt 0.9590 0.5000
vt 0.9590 0.5000
vt 0.9590 0.5000
vt 0.9590 0.5000
vt 0.9590 0.5000
vt 0.9590 0.5000
vt 0.9590 0.5000
vt 0.9590 0.5000
vt 0.9590 0.5000
vt 0.9590 0.5000
vt 0.9590 0.5000
vt 0.9590 0.5000
vt 0.9590 0.5000
vt 0.9590 0.5000
vt 0.9590 0.5000
vt 0.9590 0.5000
vt 0.9590 0.5000
vt 0.9590 0.5000
vt 0.9590 0.5000
vt 0.9590 0.5000
vt 0.9590 0.5000
vt 0.9590 0.5000
vt 0.9590 0.5000
vt 0.9590 0.5000
vt 0.9590 0.5000
vt 0.9590 0.5000
vt 0.9590 0.5000
vt 0.9590 0.5000
vt 0.9590 0.5000
vt 0.9590 0.5000
vt 0.9590 0.5000
vt 0.9590 0.5000
vt 0.9590 0.5000
vt 0.9590 0.5000
vt 0.9590 0.5000
vt 0.9590 0.5000
vt 0.9590 0.5000
vt 0.9590 0.5000
vt 0.9590 0.5000
vt 0.9590 0.5000
vt 0.9590 0.5000
vt 0.9590 0.5000
vt 0.9590 0.5000
vt 0.9590 0.5000
vt 0.9590 0.5000
vt 0.9590 0.5000
vt 0.9590 0.5000
vt 0.9590 0.5000
vt 0.9590 0.5000
vt 0.9590 0.5000
vt 0.9590 0.5000
vt 0.9590 0.5000
vt 0.9590 0.5000
vt 0.9590 0.5000
vt 0.9590 0.5000
vt 0.9590 0.5000
vt 0.9590 0.5000
vt 0.9590 0.5000
vt 0.9590 0.5000
vt 0.9590 0.5000
vt 0.9590 0.5000
vt 0.9590 0.5000
vt 0.9590 0.5000
vt 0.9590 0.5000
vt 0.9590 0.5000
vt 0.9590 0.5000
vt 0.9590 0.5000
vt 0.9590 0.5000
vt 0.9590 0.5000
vt 0.9590 0.5000
vt 0.9590 0.5000
vt 0.9590 0.5000
vt 0.9590 0.5000
vt 0.9590 0.5000
vt 0.9590 0.5000
vt 0.9590 0.5000
vt 0.9590 0.5000
vt 0.9590 0.5000
vt 0.9590 0.5000
vt 0.9590 0.5000
vt 0.9590 0.5000
vt 0.9590 0.5000
vt 0.9590 0.5000
vt 0.9941 0.5000
vt 0.9941 0.5000
vt 0.9941 0.5000
vt 0.9941 0.5000
vt 0.9941 0.5000
vt 0.9941 0.5000
vt 0.9941 0.5000
vt 0.9941 0.5000
vt 0.9941 0.5000
vt 0.9941 0.5000
vt 0.9941 0.5000
vt 0.9941 0.5000
vt 0.9590 0.5000
vt 0.9590 0.5000
vt 0.9590 0.5000
vt 0.9590 0.5000
vt 0.9941 0.5000
vt 0.9941 0.5000
vt 0.9941 0.5000
vt 0.9941 0.5000
vt 0.9590 0.5000
vt 0.9590 0.5000
vt 0.9590 0.5000
vt 0.9590 0.5000
vt 0.9941 0.5000
vt 0.9941 0.5000
vt 0.9941 0.5000
vt 0.9941 0.5000
vt 0.9590 0.5000
vt 0.9590 0.5000
vt 0.9590 0.5000
vt 0.9590 0.5000
vt 0.9590 0.5000
vt 0.9590 0.5000
vt 0.9590 0.5000
vt 0.9590 0.5000
vt 0.9590 0.5000
vt 0.9590 0.5000
vt 0.9590 0.5000
vt 0.9590 0.5000
vt 0.9590 0.5000
vt 0.9590 0.5000
vt 0.9590 0.5000
vt 0.9590 0.5000
vt 0.9590 0.5000
vt 0.9590 0.5000
vt 0.9590 0.5000
vt 0.9590 0.5000
vt 0.9590 0.5000
vt 0.9590 0.5000
vt 0.9590 0.5000
vt 0.9590 0.5000
vt 0.9590 0.5000
vt 0.9590 0.5000
vt 0.9590 0.5000
vt 0.9590 0.5000
vt 0.9590 0.5000
vt 0.9590 0.5000
vt 0.9590 0.5000
vt 0.9590 0.5000
vt 0.9590 0.5000
vt 0.9590 0.5000
vt 0.9590 0.5000
vt 0.9590 0.5000
vt 0.9590 0.5000
vt 0.9590 0.5000
vt 0.9590 0.5000
vt 0.9590 0.5000
vt 0.9590 0.5000
vt 0.9590 0.5000
vt 0.9590 0.5000
vt 0.9590 0.5000
vt 0.9590 0.5000
vt 0.9590 0.5000
vt 0.9590 0.5000
vt 0.9590 0.5000
vt 0.9590 0.5000
vt 0.9590 0.5000
vt 0.9590 0.5000
vt 0.9590 0.5000
vt 0.9590 0.5000
vt 0.9590 0.5000
vt 0.9590 0.5000
vt 0.9590 0.5000
vt 0.9590 0.5000
vt 0.9590 0.5000
vt 0.9590 0.5000
vt 0.9590 0.5000
vt 0.9590 0.5000
vt 0.9590 0.5000
vt 0.9590 0.5000
vt 0.9590 0.5000
vt 0.9590 0.5000
vt 0.9590 0.5000
vt 0.9590 0.5000
vt 0.9590 0.5000
vt 0.9590 0.5000
vt 0.9590 0.5000
vt 0.9590 0.5000
vt 0.9590 0.5000
vt 0.9590 0.5000
vt 0.9590 0.5000
vt 0.9590 0.5000
vt 0.9590 0.5000
vt 0.9590 0.5000
vt 0.9590 0.5000
vt 0.9590 0.5000
vt 0.9590 0.5000
vt 0.9590 0.5000
vt 0.9590 0.5000
vt 0.9590 0.5000
vt 0.9590 0.5000
vt 0.9590 0.5000
vt 0.9590 0.5000
vt 0.9590 0.5000
vt 0.9590 0.5000
vt 0.9590 0.5000
vt 0.9590 0.5000
vt 0.9590 0.5000
vt 0.9590 0.5000
vt 0.9590 0.5000
vt 0.9590 0.5000
vt 0.9590 0.5000
vt 0.9590 0.5000
vt 0.9590 0.5000
vt 0.9590 0.5000
vt 0.9590 0.5000
vt 0.9590 0.5000
vt 0.9590 0.5000
vt 0.9590 0.5000
vt 0.9590 0.5000
vt 0.9590 0.5000
vt 0.9590 0.5000
vt 0.9590 0.5000
vt 0.9590 0.5000
vt 0.9590 0.5000
vt 0.9590 0.5000
vt 0.9590 0.5000
vt 0.9590 0.5000
vt 0.9590 0.5000
vt 0.9590 0.5000
vt 0.9590 0.5000
vt 0.9590 0.5000
vt 0.9590 0.5000
vt 0.9590 0.5000
vt 0.9590 0.5000
vt 0.9590 0.5000
vt 0.9590 0.5000
vt 0.9590 0.5000
vt 0.9590 0.5000
vt 0.9590 0.5000
vt 0.9590 0.5000
vt 0.9590 0.5000
vt 0.9590 0.5000
vt 0.9590 0.5000
vt 0.9590 0.5000
vt 0.9590 0.5000
vt 0.9590 0.5000
vt 0.9590 0.5000
vt 0.9590 0.5000
vt 0.9590 0.5000
vt 0.9590 0.5000
vt 0.9590 0.5000
vt 0.9590 0.5000
vt 0.9590 0.5000
vt 0.9590 0.5000
vt 0.9590 0.5000
vt 0.9590 0.5000
vt 0.9590 0.5000
vt 0.9590 0.5000
vt 0.9590 0.5000
vt 0.9590 0.5000
vt 0.9590 0.5000
vt 0.9590 0.5000
vt 0.9590 0.5000
vt 0.9590 0.5000
vt 0.9590 0.5000
vt 0.9590 0.5000
vt 0.9590 0.5000
vt 0.9590 0.5000
vt 0.9590 0.5000
vt 0.9590 0.5000
vt 0.9590 0.5000
vt 0.9590 0.5000
vt 0.9590 0.5000
vt 0.9590 0.5000
vt 0.9590 0.5000
vt 0.9590 0.5000
vt 0.9590 0.5000
vt 0.9590 0.5000
vt 0.9590 0.5000
vt 0.9590 0.5000
vt 0.9590 0.5000
vt 0.9590 0.5000
vt 0.9590 0.5000
vt 0.9590 0.5000
vn -1.0000 0.0000 0.0000
vn 1.0000 0.0000 0.0000
vn 0.0000 -0.0000 1.0000
vn 0.0000 0.0000 -1.0000
vn 0.0000 -1.0000 0.0000
vn 0.0000 1.0000 0.0000
usemtl palette.006
s 1
f 1/1/1 2/2/1 3/3/1
f 4/4/1 2/2/1 1/1/1
f 5/5/1 2/2/1 4/4/1
f 6/6/1 7/7/1 5/5/1
f 6/6/1 5/5/1 4/4/1
f 8/8/1 6/6/1 9/9/1
f 10/10/1 7/7/1 6/6/1
f 10/10/1 6/6/1 8/8/1
f 11/11/1 12/12/1 13/13/1
f 14/14/1 12/12/1 11/11/1
f 15/15/1 11/11/1 13/13/1
f 16/16/1 12/12/1 14/14/1
f 17/17/1 12/12/1 16/16/1
f 18/18/1 19/19/1 15/15/1
f 18/18/1 15/15/1 13/13/1
f 20/20/1 19/19/1 18/18/1
f 21/21/1 22/22/1 23/23/1
f 24/24/1 22/22/1 21/21/1
f 25/25/1 26/26/1 27/27/1
f 28/28/1 26/26/1 25/25/1
f 29/29/1 30/30/1 31/31/1
f 32/32/1 30/30/1 29/29/1
f 33/33/1 34/34/1 35/35/1
f 36/36/1 34/34/1 33/33/1
f 37/37/1 38/38/1 39/39/1
f 40/40/1 38/38/1 37/37/1
f 41/41/1 42/42/1 43/43/1
f 44/44/1 42/42/1 41/41/1
f 45/45/1 46/46/1 47/47/1
f 48/48/1 46/46/1 45/45/1
f 49/49/1 50/50/1 51/51/1
f 52/52/1 50/50/1 49/49/1
f 53/53/1 54/54/1 55/55/1
f 56/56/1 54/54/1 53/53/1
f 57/57/2 58/58/2 59/59/2
f 59/59/2 58/58/2 60/60/2
f 61/61/2 62/62/2 63/63/2
f 63/63/2 62/62/2 64/64/2
f 65/65/2 66/66/2 67/67/2
f 67/67/2 66/66/2 68/68/2
f 69/69/2 70/70/2 71/71/2
f 71/71/2 70/70/2 72/72/2
f 73/73/2 74/74/2 75/75/2
f 75/75/2 74/74/2 76/76/2
f 77/77/2 78/78/2 79/79/2
f 79/79/2 78/78/2 80/80/2
f 81/81/2 82/82/2 83/83/2
f 83/83/2 82/82/2 84/84/2
f 85/85/2 86/86/2 87/87/2
f 87/87/2 86/86/2 88/88/2
f 85/85/2 87/87/2 89/89/2
f 88/88/2 86/86/2 90/90/2
f 90/90/2 86/86/2 91/91/2
f 89/89/2 92/92/2 93/93/2
f 85/85/2 89/89/2 93/93/2
f 93/93/2 92/92/2 94/94/2
f 95/95/2 96/96/2 97/97/2
f 97/97/2 96/96/2 98/98/2
f 99/99/2 100/100/2 101/101/2
f 101/101/2 100/100/2 102/102/2
f 103/103/2 104/104/2 105/105/2
f 105/105/2 104/104/2 106/106/2
f 106/106/2 104/104/2 107/107/2
f 107/107/2 108/108/2 109/109/2
f 106/106/2 107/107/2 109/109/2
f 110/110/2 109/109/2 111/111/2
f 109/109/2 108/108/2 112/112/2
f 111/111/2 109/109/2 112/112/2
f 113/113/3 114/114/3 115/115/3
f 116/116/3 114/114/3 113/113/3
f 117/117/3 113/113/3 115/115/3
f 118/118/3 113/113/3 117/117/3
f 119/119/3 113/113/3 118/118/3
f 120/120/3 121/121/3 116/116/3
f 122/122/3 117/117/3 115/115/3
f 123/123/3 119/119/3 118/118/3
f 123/123/3 120/120/3 119/119/3
f 124/124/3 122/122/3 115/115/3
f 124/124/3 123/123/3 122/122/3
f 125/125/3 120/120/3 123/123/3
f 125/125/3 123/123/3 124/124/3
f 126/126/3 124/124/3 115/115/3
f 127/127/3 120/120/3 125/125/3
f 128/128/3 120/120/3 127/127/3
f 129/129/3 121/121/3 120/120/3
f 129/129/3 120/120/3 128/128/3
f 130/130/3 128/128/3 127/127/3
f 130/130/3 127/127/3 126/126/3
f 131/131/3 121/121/3 129/129/3
f 132/132/3 121/121/3 131/131/3
f 133/133/3 126/126/3 115/115/3
f 133/133/3 131/131/3 130/130/3
f 133/133/3 130/130/3 126/126/3
f 134/134/3 131/131/3 133/133/3
f 135/135/3 136/136/3 137/137/3
f 138/138/3 136/136/3 135/135/3
f 139/139/3 140/140/3 141/141/3
f 142/142/3 140/140/3 139/139/3
f 143/143/3 144/144/3 145/145/3
f 146/146/3 144/144/3 143/143/3
f 147/147/3 148/148/3 149/149/3
f 150/150/3 148/148/3 147/147/3
f 151/151/3 135/135/3 137/137/3
f 152/152/3 136/136/3 138/138/3
f 153/153/3 151/151/3 137/137/3
f 153/153/3 152/152/3 151/151/3
f 154/154/3 136/136/3 152/152/3
f 154/154/3 152/152/3 153/153/3
f 155/155/3 156/156/3 157/157/3
f 158/158/3 156/156/3 155/155/3
f 159/159/3 160/160/3 161/161/3
f 162/162/3 160/160/3 159/159/3
f 163/163/3 164/164/3 165/165/3
f 166/166/3 164/164/3 163/163/3
f 167/167/3 168/168/3 169/169/3
f 170/170/3 168/168/3 167/167/3
f 171/171/3 172/172/3 173/173/3
f 174/174/3 172/172/3 171/171/3
f 175/175/3 176/176/3 177/177/3
f 178/178/3 176/176/3 175/175/3
f 179/179/4 180/180/4 181/181/4
f 181/181/4 180/180/4 182/182/4
f 183/183/4 184/184/4 185/185/4
f 185/185/4 184/184/4 186/186/4
f 187/187/4 188/188/4 189/189/4
f 189/189/4 188/188/4 190/190/4
f 190/190/4 188/188/4 191/191/4
f 191/191/4 188/188/4 192/192/4
f 193/193/4 189/189/4 194/194/4
f 189/189/4 190/190/4 194/194/4
f 194/194/4 190/190/4 195/195/4
f 192/192/4 196/196/4 197/197/4
f 191/191/4 192/192/4 197/197/4
f 197/197/4 196/196/4 198/198/4
f 193/193/4 194/194/4 199/199/4
f 198/198/4 196/196/4 200/200/4
f 199/199/4 201/201/4 202/202/4
f 193/193/4 199/199/4 202/202/4
f 202/202/4 201/201/4 203/203/4
f 203/203/4 201/201/4 204/204/4
f 205/205/4 200/200/4 206/206/4
f 200/200/4 196/196/4 207/207/4
f 206/206/4 200/200/4 207/207/4
f 207/207/4 196/196/4 208/208/4
f 203/203/4 204/204/4 209/209/4
f 204/204/4 206/206/4 209/209/4
f 206/206/4 207/207/4 209/209/4
f 209/209/4 207/207/4 210/210/4
f 211/211/4 212/212/4 213/213/4
f 213/213/4 212/212/4 214/214/4
f 214/214/4 215/215/4 216/216/4
f 213/213/4 214/214/4 216/216/4
f 217/217/4 213/213/4 216/216/4
f 216/216/4 215/215/4 218/218/4
f 218/218/4 215/215/4 219/219/4
f 219/219/4 215/215/4 220/220/4
f 218/218/4 219/219/4 221/221/4
f 221/221/4 219/219/4 222/222/4
f 223/223/5 224/224/5 225/225/5
f 226/226/5 224/224/5 223/223/5
f 227/227/5 228/228/5 229/229/5
f 230/230/5 228/228/5 227/227/5
f 231/231/5 232/232/5 233/233/5
f 234/234/5 232/232/5 231/231/5
f 235/235/5 236/236/5 237/237/5
f 238/238/5 236/236/5 235/235/5
f 239/239/5 240/240/5 241/241/5
f 242/242/5 240/240/5 239/239/5
f 243/243/5 244/244/5 245/245/5
f 246/246/5 244/244/5 243/243/5
f 247/247/5 248/248/5 249/249/5
f 250/250/5 248/248/5 247/247/5
f 251/251/5 252/252/5 253/253/5
f 254/254/5 252/252/5 251/251/5
f 255/255/5 251/251/5 253/253/5
f 256/256/5 251/251/5 255/255/5
f 257/257/5 252/252/5 254/254/5
f 258/258/5 252/252/5 257/257/5
f 259/259/5 260/260/5 261/261/5
f 262/262/5 260/260/5 259/259/5
f 263/263/5 264/264/5 265/265/5
f 266/266/5 264/264/5 263/263/5
f 267/267/5 268/268/5 269/269/5
f 270/270/5 268/268/5 267/267/5
f 271/271/5 272/272/5 273/273/5
f 274/274/5 272/272/5 271/271/5
f 275/275/5 276/276/5 277/277/5
f 278/278/5 276/276/5 275/275/5
f 279/279/5 280/280/5 281/281/5
f 282/282/5 280/280/5 279/279/5
f 283/283/6 284/284/6 285/285/6
f 285/285/6 284/284/6 286/286/6
f 287/287/6 288/288/6 289/289/6
f 289/289/6 288/288/6 290/290/6
f 291/291/6 292/292/6 293/293/6
f 293/293/6 292/292/6 294/294/6
f 295/295/6 296/296/6 297/297/6
f 297/297/6 296/296/6 298/298/6
f 299/299/6 300/300/6 301/301/6
f 301/301/6 300/300/6 302/302/6
f 303/303/6 304/304/6 305/305/6
f 305/305/6 304/304/6 306/306/6
f 307/307/6 308/308/6 309/309/6
f 309/309/6 308/308/6 310/310/6
f 311/311/6 312/312/6 313/313/6
f 313/313/6 312/312/6 314/314/6
f 315/315/6 316/316/6 317/317/6
f 317/317/6 316/316/6 318/318/6
f 319/319/6 320/320/6 321/321/6
f 321/321/6 320/320/6 322/322/6
f 323/323/6 324/324/6 325/325/6
f 325/325/6 324/324/6 326/326/6
f 327/327/6 328/328/6 329/329/6
f 329/329/6 328/328/6 330/330/6
f 331/331/6 332/332/6 333/333/6
f 333/333/6 332/332/6 334/334/6
