# Blender v2.77 (sub 0) OBJ File: ''
# www.blender.org
mtllib bunnybackleg.mtl
o Bunny
v 3.500000 1.000000 2.000000
v 3.500000 -0.000000 1.000000
v 3.500000 -0.000000 2.000000
v 3.500000 1.000000 1.000000
v 3.500000 0.000001 -4.000000
v 3.500000 1.000000 0.000000
v 3.500000 3.000000 0.000000
v 3.500000 3.000000 -1.000000
v 3.500000 3.000000 -3.000000
v 3.500000 3.000001 -4.000000
v 3.500000 4.000000 -0.999999
v 3.500000 4.000000 -2.999999
v 4.500000 -0.000000 2.000000
v 4.500000 -0.000000 1.000000
v 4.500000 1.000000 2.000000
v 4.500000 0.000001 -4.000000
v 4.500000 1.000000 1.000000
v 4.500000 1.000000 0.000000
v 4.500000 3.000000 0.000000
v 4.500000 3.000000 -1.000000
v 4.500000 3.000000 -3.000000
v 4.500000 3.000001 -4.000000
v 4.500000 4.000000 -0.999999
v 4.500000 4.000000 -2.999999
v 4.500000 -0.000000 2.000000
v 3.500000 1.000000 2.000000
v 3.500000 -0.000000 2.000000
v 4.500000 1.000000 2.000000
v 4.500000 1.000000 0.000000
v 3.500000 3.000000 0.000000
v 3.500000 1.000000 0.000000
v 4.500000 3.000000 0.000000
v 4.500000 3.000000 -1.000000
v 3.500000 4.000000 -0.999999
v 3.500000 3.000000 -1.000000
v 4.500000 4.000000 -0.999999
v 3.500000 3.000000 -3.000000
v 3.500000 4.000000 -2.999999
v 4.500000 3.000000 -3.000000
v 4.500000 4.000000 -2.999999
v 3.500000 0.000001 -4.000000
v 3.500000 3.000001 -4.000000
v 4.500000 0.000001 -4.000000
v 4.500000 3.000001 -4.000000
v 3.500000 -0.000000 1.000000
v 4.500000 -0.000000 2.000000
v 3.500000 -0.000000 2.000000
v 4.500000 -0.000000 1.000000
v 3.500000 0.000001 -4.000000
v 4.500000 0.000001 -4.000000
v 3.500000 1.000000 2.000000
v 4.500000 1.000000 2.000000
v 3.500000 1.000000 1.000000
v 4.500000 1.000000 1.000000
v 3.500000 1.000000 0.000000
v 4.500000 1.000000 0.000000
v 3.500000 3.000000 0.000000
v 4.500000 3.000000 0.000000
v 3.500000 3.000000 -1.000000
v 4.500000 3.000000 -1.000000
v 3.500000 3.000000 -3.000000
v 4.500000 3.000000 -3.000000
v 3.500000 3.000001 -4.000000
v 4.500000 3.000001 -4.000000
v 3.500000 4.000000 -0.999999
v 4.500000 4.000000 -0.999999
v 3.500000 4.000000 -2.999999
v 4.500000 4.000000 -2.999999
vt 0.9629 0.5000
vt 0.9629 0.5000
vt 0.9629 0.5000
vt 0.3691 0.5000
vt 0.3691 0.5000
vt 0.3691 0.5000
vt 0.9629 0.5000
vt 0.3691 0.5000
vt 0.3691 0.5000
vt 0.3691 0.5000
vt 0.3691 0.5000
vt 0.3691 0.5000
vt 0.3691 0.5000
vt 0.3691 0.5000
vt 0.9629 0.5000
vt 0.9629 0.5000
vt 0.9629 0.5000
vt 0.3691 0.5000
vt 0.3691 0.5000
vt 0.3691 0.5000
vt 0.9629 0.5000
vt 0.3691 0.5000
vt 0.3691 0.5000
vt 0.3691 0.5000
vt 0.3691 0.5000
vt 0.3691 0.5000
vt 0.3691 0.5000
vt 0.3691 0.5000
vt 0.9629 0.5000
vt 0.9629 0.5000
vt 0.9629 0.5000
vt 0.9629 0.5000
vt 0.3691 0.5000
vt 0.3691 0.5000
vt 0.3691 0.5000
vt 0.3691 0.5000
vt 0.3691 0.5000
vt 0.3691 0.5000
vt 0.3691 0.5000
vt 0.3691 0.5000
vt 0.3691 0.5000
vt 0.3691 0.5000
vt 0.3691 0.5000
vt 0.3691 0.5000
vt 0.3691 0.5000
vt 0.3691 0.5000
vt 0.3691 0.5000
vt 0.3691 0.5000
vt 0.9629 0.5000
vt 0.9629 0.5000
vt 0.9629 0.5000
vt 0.9629 0.5000
vt 0.3691 0.5000
vt 0.3691 0.5000
vt 0.3691 0.5000
vt 0.3691 0.5000
vt 0.9629 0.5000
vt 0.9629 0.5000
vt 0.9629 0.5000
vt 0.9629 0.5000
vt 0.3691 0.5000
vt 0.3691 0.5000
vt 0.3691 0.5000
vt 0.3691 0.5000
vt 0.3691 0.5000
vt 0.3691 0.5000
vt 0.3691 0.5000
vt 0.3691 0.5000
vt 0.3691 0.5000
vt 0.3691 0.5000
vt 0.3691 0.5000
vt 0.3691 0.5000
vt 0.3691 0.5000
vt 0.3691 0.5000
vt 0.3691 0.5000
vt 0.3691 0.5000
vn -1.0000 0.0000 0.0000
vn 1.0000 0.0000 0.0000
vn 0.0000 -0.0000 1.0000
vn 0.0000 0.0000 -1.0000
vn 0.0000 -1.0000 -0.0000
vn 0.0000 1.0000 0.0000
usemtl palette.004
s 1
f 1/1/1 2/2/1 3/3/1
f 4/4/1 5/5/1 2/6/1
f 4/7/1 2/2/1 1/1/1
f 6/8/1 5/5/1 4/4/1
f 7/9/1 5/5/1 6/8/1
f 8/10/1 5/5/1 7/9/1
f 9/11/1 5/5/1 8/10/1
f 10/12/1 5/5/1 9/11/1
f 11/13/1 9/11/1 8/10/1
f 12/14/1 9/11/1 11/13/1
f 13/15/2 14/16/2 15/17/2
f 14/18/2 16/19/2 17/20/2
f 15/17/2 14/16/2 17/21/2
f 17/20/2 16/19/2 18/22/2
f 18/22/2 16/19/2 19/23/2
f 19/23/2 16/19/2 20/24/2
f 20/24/2 16/19/2 21/25/2
f 21/25/2 16/19/2 22/26/2
f 20/24/2 21/25/2 23/27/2
f 23/27/2 21/25/2 24/28/2
f 25/29/3 26/30/3 27/31/3
f 28/32/3 26/30/3 25/29/3
f 29/33/3 30/34/3 31/35/3
f 32/36/3 30/34/3 29/33/3
f 33/37/3 34/38/3 35/39/3
f 36/40/3 34/38/3 33/37/3
f 37/41/4 38/42/4 39/43/4
f 39/43/4 38/42/4 40/44/4
f 41/45/4 42/46/4 43/47/4
f 43/47/4 42/46/4 44/48/4
f 45/49/5 46/50/5 47/51/5
f 48/52/5 46/50/5 45/49/5
f 49/53/5 48/54/5 45/55/5
f 50/56/5 48/54/5 49/53/5
f 51/57/6 52/58/6 53/59/6
f 53/59/6 52/58/6 54/60/6
f 53/61/6 54/62/6 55/63/6
f 55/63/6 54/62/6 56/64/6
f 57/65/6 58/66/6 59/67/6
f 59/67/6 58/66/6 60/68/6
f 61/69/6 62/70/6 63/71/6
f 63/71/6 62/70/6 64/72/6
f 65/73/6 66/74/6 67/75/6
f 67/75/6 66/74/6 68/76/6
