# Blender v2.77 (sub 0) OBJ File: ''
# www.blender.org
mtllib bunnyhead.mtl
o Bunny
v -2.500000 8.999999 4.000001
v -2.500000 8.000000 4.000001
v -2.500000 7.999999 5.000001
v -2.500000 11.999999 5.000002
v -2.500000 8.999999 3.000001
v -2.500000 11.999999 4.000002
v -2.500000 13.999999 4.000002
v -2.500000 13.999999 3.000002
v -1.500000 6.999999 6.000001
v -1.500000 5.999999 5.000001
v -1.500000 5.999999 6.000001
v -1.500000 6.999999 5.000001
v -1.500000 6.000000 3.000001
v -1.500000 7.999999 5.000001
v -1.500000 8.000000 4.000001
v -1.500000 8.999999 6.000001
v -1.500000 8.999999 5.000001
v -1.500000 8.999999 4.000001
v -1.500000 8.999999 3.000001
v 1.500000 11.999999 5.000002
v 1.500000 8.999999 3.000001
v 1.500000 8.999999 5.000001
v 1.500000 11.999999 4.000002
v 1.500000 13.999999 4.000002
v 1.500000 13.999999 3.000002
v -1.500000 8.999999 5.000001
v -1.500000 8.999999 3.000001
v -1.500000 11.999999 5.000002
v -1.500000 11.999999 4.000002
v -1.500000 13.999999 4.000002
v -1.500000 13.999999 3.000002
v 1.500000 5.999999 6.000001
v 1.500000 5.999999 5.000001
v 1.500000 6.999999 6.000001
v 1.500000 6.000000 3.000001
v 1.500000 6.999999 5.000001
v 1.500000 7.999999 5.000001
v 1.500000 8.000000 4.000001
v 1.500000 8.999999 6.000001
v 1.500000 8.999999 5.000001
v 1.500000 8.999999 4.000001
v 1.500000 8.999999 3.000001
v 2.500000 7.999999 5.000001
v 2.500000 8.000000 4.000001
v 2.500000 8.999999 4.000001
v 2.500000 11.999999 5.000002
v 2.500000 8.999999 3.000001
v 2.500000 11.999999 4.000002
v 2.500000 13.999999 4.000002
v 2.500000 13.999999 3.000002
v 1.500000 5.999999 6.000001
v -1.500000 6.999999 6.000001
v -1.500000 5.999999 6.000001
v 1.500000 6.999999 6.000001
v -1.500000 8.999999 6.000001
v 1.500000 8.999999 6.000001
v -1.500000 7.999999 5.000001
v -2.500000 11.999999 5.000002
v -2.500000 7.999999 5.000001
v -1.500000 8.999999 5.000001
v -1.500000 11.999999 5.000002
v 2.500000 7.999999 5.000001
v 1.500000 11.999999 5.000002
v 1.500000 8.999999 5.000001
v 1.500000 7.999999 5.000001
v 2.500000 11.999999 5.000002
v -1.500000 11.999999 4.000002
v -2.500000 13.999999 4.000002
v -2.500000 11.999999 4.000002
v -1.500000 13.999999 4.000002
v 2.500000 11.999999 4.000002
v 1.500000 13.999999 4.000002
v 1.500000 11.999999 4.000002
v 2.500000 13.999999 4.000002
v -2.500000 8.000000 4.000001
v -2.500000 8.999999 4.000001
v -1.500000 8.000000 4.000001
v -1.500000 8.999999 4.000001
v 1.500000 8.000000 4.000001
v 1.500000 8.999999 4.000001
v 2.500000 8.000000 4.000001
v 2.500000 8.999999 4.000001
v -2.500000 8.999999 3.000001
v -2.500000 13.999999 3.000002
v -1.500000 8.999999 3.000001
v -1.500000 13.999999 3.000002
v -1.500000 6.000000 3.000001
v 1.500000 6.000000 3.000001
v 1.500000 8.999999 3.000001
v 1.500000 13.999999 3.000002
v 2.500000 8.999999 3.000001
v 2.500000 13.999999 3.000002
v -1.500000 5.999999 5.000001
v 1.500000 5.999999 6.000001
v -1.500000 5.999999 6.000001
v 1.500000 5.999999 5.000001
v -1.500000 6.000000 3.000001
v 1.500000 6.000000 3.000001
v -2.500000 8.000000 4.000001
v -1.500000 7.999999 5.000001
v -2.500000 7.999999 5.000001
v -1.500000 8.000000 4.000001
v 1.500000 8.000000 4.000001
v 2.500000 7.999999 5.000001
v 1.500000 7.999999 5.000001
v 2.500000 8.000000 4.000001
v -2.500000 8.999999 3.000001
v -1.500000 8.999999 4.000001
v -2.500000 8.999999 4.000001
v -1.500000 8.999999 3.000001
v 1.500000 8.999999 3.000001
v 2.500000 8.999999 4.000001
v 1.500000 8.999999 4.000001
v 2.500000 8.999999 3.000001
v -1.500000 8.999999 6.000001
v 1.500000 8.999999 6.000001
v -1.500000 8.999999 5.000001
v 1.500000 8.999999 5.000001
v -1.500000 8.999999 3.000001
v 1.500000 8.999999 3.000001
v -2.500000 11.999999 5.000002
v -1.500000 11.999999 5.000002
v -2.500000 11.999999 4.000002
v -1.500000 11.999999 4.000002
v 1.500000 11.999999 5.000002
v 2.500000 11.999999 5.000002
v 1.500000 11.999999 4.000002
v 2.500000 11.999999 4.000002
v -2.500000 13.999999 4.000002
v -1.500000 13.999999 4.000002
v -2.500000 13.999999 3.000002
v -1.500000 13.999999 3.000002
v 1.500000 13.999999 4.000002
v 2.500000 13.999999 4.000002
v 1.500000 13.999999 3.000002
v 2.500000 13.999999 3.000002
vt 0.3691 0.5000
vt 0.3691 0.5000
vt 0.3691 0.5000
vt 0.3691 0.5000
vt 0.3691 0.5000
vt 0.3691 0.5000
vt 0.3691 0.5000
vt 0.3691 0.5000
vt 0.9629 0.5000
vt 0.9629 0.5000
vt 0.9629 0.5000
vt 0.3691 0.5000
vt 0.3691 0.5000
vt 0.3691 0.5000
vt 0.9629 0.5000
vt 0.3691 0.5000
vt 0.3691 0.5000
vt 0.3691 0.5000
vt 0.3691 0.5000
vt 0.3691 0.5000
vt 0.3691 0.5000
vt 0.3691 0.5000
vt 0.3691 0.5000
vt 0.3691 0.5000
vt 0.3691 0.5000
vt 0.3691 0.5000
vt 0.3691 0.5000
vt 0.3691 0.5000
vt 0.3691 0.5000
vt 0.3691 0.5000
vt 0.3691 0.5000
vt 0.3691 0.5000
vt 0.3691 0.5000
vt 0.3691 0.5000
vt 0.9629 0.5000
vt 0.9629 0.5000
vt 0.9629 0.5000
vt 0.3691 0.5000
vt 0.3691 0.5000
vt 0.3691 0.5000
vt 0.9629 0.5000
vt 0.3691 0.5000
vt 0.3691 0.5000
vt 0.3691 0.5000
vt 0.3691 0.5000
vt 0.3691 0.5000
vt 0.3691 0.5000
vt 0.3691 0.5000
vt 0.3691 0.5000
vt 0.3691 0.5000
vt 0.3691 0.5000
vt 0.3691 0.5000
vt 0.3691 0.5000
vt 0.3691 0.5000
vt 0.3691 0.5000
vt 0.3691 0.5000
vt 0.9629 0.5000
vt 0.9629 0.5000
vt 0.9629 0.5000
vt 0.3691 0.5000
vt 0.3691 0.5000
vt 0.3691 0.5000
vt 0.9629 0.5000
vt 0.3691 0.5000
vt 0.3691 0.5000
vt 0.3691 0.5000
vt 0.3691 0.5000
vt 0.3691 0.5000
vt 0.3691 0.5000
vt 0.3691 0.5000
vt 0.3691 0.5000
vt 0.3691 0.5000
vt 0.3691 0.5000
vt 0.3691 0.5000
vt 0.3691 0.5000
vt 0.3691 0.5000
vt 0.3691 0.5000
vt 0.3691 0.5000
vt 0.3691 0.5000
vt 0.3691 0.5000
vt 0.3691 0.5000
vt 0.3691 0.5000
vt 0.3691 0.5000
vt 0.3691 0.5000
vt 0.3691 0.5000
vt 0.3691 0.5000
vt 0.3691 0.5000
vt 0.3691 0.5000
vt 0.3691 0.5000
vt 0.3691 0.5000
vt 0.3691 0.5000
vt 0.3691 0.5000
vt 0.3691 0.5000
vt 0.3691 0.5000
vt 0.3691 0.5000
vt 0.3691 0.5000
vt 0.3691 0.5000
vt 0.3691 0.5000
vt 0.3691 0.5000
vt 0.3691 0.5000
vt 0.9629 0.5000
vt 0.9629 0.5000
vt 0.9629 0.5000
vt 0.9629 0.5000
vt 0.3691 0.5000
vt 0.3691 0.5000
vt 0.3691 0.5000
vt 0.3691 0.5000
vt 0.3691 0.5000
vt 0.3691 0.5000
vt 0.3691 0.5000
vt 0.3691 0.5000
vt 0.3691 0.5000
vt 0.3691 0.5000
vt 0.3691 0.5000
vt 0.3691 0.5000
vt 0.3691 0.5000
vt 0.3691 0.5000
vt 0.3691 0.5000
vt 0.3691 0.5000
vt 0.3691 0.5000
vt 0.3691 0.5000
vt 0.3691 0.5000
vt 0.3691 0.5000
vt 0.3691 0.5000
vt 0.3691 0.5000
vt 0.3691 0.5000
vt 0.3691 0.5000
vt 0.3691 0.5000
vt 0.3691 0.5000
vt 0.3691 0.5000
vt 0.3691 0.5000
vt 0.3691 0.5000
vt 0.3691 0.5000
vt 0.3691 0.5000
vt 0.3691 0.5000
vt 0.3691 0.5000
vt 0.3691 0.5000
vt 0.3691 0.5000
vt 0.3691 0.5000
vt 0.3691 0.5000
vt 0.3691 0.5000
vt 0.3691 0.5000
vt 0.3691 0.5000
vt 0.3691 0.5000
vt 0.3691 0.5000
vn -1.0000 0.0000 0.0000
vn 1.0000 0.0000 0.0000
vn 0.0000 0.0000 1.0000
vn 0.0000 0.0000 -1.0000
vn 0.0000 -1.0000 0.0000
vn 0.0000 1.0000 0.0000
usemtl palette.004
s 1
f 1/1/1 2/2/1 3/3/1
f 4/4/1 1/1/1 3/3/1
f 4/4/1 5/5/1 1/1/1
f 6/6/1 5/5/1 4/4/1
f 7/7/1 5/5/1 6/6/1
f 8/8/1 5/5/1 7/7/1
f 9/9/1 10/10/1 11/11/1
f 12/12/1 13/13/1 10/14/1
f 12/15/1 10/10/1 9/9/1
f 14/16/1 12/12/1 9/17/1
f 14/16/1 13/13/1 12/12/1
f 15/18/1 13/13/1 14/16/1
f 16/19/1 14/16/1 9/17/1
f 17/20/1 14/16/1 16/19/1
f 18/21/1 13/13/1 15/18/1
f 19/22/1 13/13/1 18/21/1
f 20/23/1 21/24/1 22/25/1
f 23/26/1 21/24/1 20/23/1
f 24/27/1 21/24/1 23/26/1
f 25/28/1 21/24/1 24/27/1
f 26/29/2 27/30/2 28/31/2
f 28/31/2 27/30/2 29/32/2
f 29/32/2 27/30/2 30/33/2
f 30/33/2 27/30/2 31/34/2
f 32/35/2 33/36/2 34/37/2
f 33/38/2 35/39/2 36/40/2
f 34/37/2 33/36/2 36/41/2
f 34/42/2 36/40/2 37/43/2
f 36/40/2 35/39/2 37/43/2
f 37/43/2 35/39/2 38/44/2
f 34/42/2 37/43/2 39/45/2
f 39/45/2 37/43/2 40/46/2
f 38/44/2 35/39/2 41/47/2
f 41/47/2 35/39/2 42/48/2
f 43/49/2 44/50/2 45/51/2
f 43/49/2 45/51/2 46/52/2
f 45/51/2 47/53/2 46/52/2
f 46/52/2 47/53/2 48/54/2
f 48/54/2 47/53/2 49/55/2
f 49/55/2 47/53/2 50/56/2
f 51/57/3 52/58/3 53/59/3
f 54/60/3 55/61/3 52/62/3
f 54/63/3 52/58/3 51/57/3
f 56/64/3 55/61/3 54/60/3
f 57/65/3 58/66/3 59/67/3
f 60/68/3 58/66/3 57/65/3
f 61/69/3 58/66/3 60/68/3
f 62/70/3 63/71/3 64/72/3
f 62/70/3 64/72/3 65/73/3
f 66/74/3 63/71/3 62/70/3
f 67/75/3 68/76/3 69/77/3
f 70/78/3 68/76/3 67/75/3
f 71/79/3 72/80/3 73/81/3
f 74/82/3 72/80/3 71/79/3
f 75/83/4 76/84/4 77/85/4
f 77/85/4 76/84/4 78/86/4
f 79/87/4 80/88/4 81/89/4
f 81/89/4 80/88/4 82/90/4
f 83/91/4 84/92/4 85/93/4
f 85/93/4 84/92/4 86/94/4
f 87/95/4 85/93/4 88/96/4
f 88/96/4 85/93/4 89/97/4
f 89/97/4 90/98/4 91/99/4
f 91/99/4 90/98/4 92/100/4
f 93/101/5 94/102/5 95/103/5
f 96/104/5 94/102/5 93/101/5
f 97/105/5 96/106/5 93/107/5
f 98/108/5 96/106/5 97/105/5
f 99/109/5 100/110/5 101/111/5
f 102/112/5 100/110/5 99/109/5
f 103/113/5 104/114/5 105/115/5
f 106/116/5 104/114/5 103/113/5
f 107/117/5 108/118/5 109/119/5
f 110/120/5 108/118/5 107/117/5
f 111/121/5 112/122/5 113/123/5
f 114/124/5 112/122/5 111/121/5
f 115/125/6 116/126/6 117/127/6
f 117/127/6 116/126/6 118/128/6
f 117/127/6 118/128/6 119/129/6
f 119/129/6 118/128/6 120/130/6
f 121/131/6 122/132/6 123/133/6
f 123/133/6 122/132/6 124/134/6
f 125/135/6 126/136/6 127/137/6
f 127/137/6 126/136/6 128/138/6
f 129/139/6 130/140/6 131/141/6
f 131/141/6 130/140/6 132/142/6
f 133/143/6 134/144/6 135/145/6
f 135/145/6 134/144/6 136/146/6
