# Blender v2.77 (sub 0) OBJ File: ''
# www.blender.org
mtllib bunnyfrontleg.mtl
o Bunny
v -1.500000 0.999999 6.000000
v -1.500000 -0.000001 5.000000
v -1.500000 -0.000001 6.000000
v -1.500000 0.999999 5.000000
v -1.500000 -0.000001 4.000000
v -1.500000 1.999999 5.000000
v -1.500000 1.999999 4.000000
v -0.500000 -0.000001 6.000000
v -0.500000 -0.000001 5.000000
v -0.500000 0.999999 6.000000
v -0.500000 -0.000001 4.000000
v -0.500000 0.999999 5.000000
v -0.500000 1.999999 5.000000
v -0.500000 1.999999 4.000000
v -0.500000 -0.000001 6.000000
v -1.500000 0.999999 6.000000
v -1.500000 -0.000001 6.000000
v -0.500000 0.999999 6.000000
v -0.500000 0.999999 5.000000
v -1.500000 1.999999 5.000000
v -1.500000 0.999999 5.000000
v -0.500000 1.999999 5.000000
v -1.500000 -0.000001 4.000000
v -1.500000 1.999999 4.000000
v -0.500000 -0.000001 4.000000
v -0.500000 1.999999 4.000000
v -1.500000 -0.000001 5.000000
v -0.500000 -0.000001 6.000000
v -1.500000 -0.000001 6.000000
v -0.500000 -0.000001 5.000000
v -1.500000 -0.000001 4.000000
v -0.500000 -0.000001 4.000000
v -1.500000 0.999999 6.000000
v -0.500000 0.999999 6.000000
v -1.500000 0.999999 5.000000
v -0.500000 0.999999 5.000000
v -1.500000 1.999999 5.000000
v -0.500000 1.999999 5.000000
v -1.500000 1.999999 4.000000
v -0.500000 1.999999 4.000000
vt 0.9629 0.5000
vt 0.9629 0.5000
vt 0.9629 0.5000
vt 0.3691 0.5000
vt 0.3691 0.5000
vt 0.3691 0.5000
vt 0.9629 0.5000
vt 0.3691 0.5000
vt 0.3691 0.5000
vt 0.9629 0.5000
vt 0.9629 0.5000
vt 0.9629 0.5000
vt 0.3691 0.5000
vt 0.3691 0.5000
vt 0.3691 0.5000
vt 0.9629 0.5000
vt 0.3691 0.5000
vt 0.3691 0.5000
vt 0.9629 0.5000
vt 0.9629 0.5000
vt 0.9629 0.5000
vt 0.9629 0.5000
vt 0.3691 0.5000
vt 0.3691 0.5000
vt 0.3691 0.5000
vt 0.3691 0.5000
vt 0.3691 0.5000
vt 0.3691 0.5000
vt 0.3691 0.5000
vt 0.3691 0.5000
vt 0.9629 0.5000
vt 0.9629 0.5000
vt 0.9629 0.5000
vt 0.9629 0.5000
vt 0.3691 0.5000
vt 0.3691 0.5000
vt 0.3691 0.5000
vt 0.3691 0.5000
vt 0.9629 0.5000
vt 0.9629 0.5000
vt 0.9629 0.5000
vt 0.9629 0.5000
vt 0.3691 0.5000
vt 0.3691 0.5000
vt 0.3691 0.5000
vt 0.3691 0.5000
vn -1.0000 0.0000 0.0000
vn 1.0000 0.0000 0.0000
vn 0.0000 0.0000 1.0000
vn 0.0000 0.0000 -1.0000
vn 0.0000 -1.0000 -0.0000
vn 0.0000 1.0000 0.0000
usemtl palette.004
s 1
f 1/1/1 2/2/1 3/3/1
f 4/4/1 5/5/1 2/6/1
f 4/7/1 2/2/1 1/1/1
f 6/8/1 5/5/1 4/4/1
f 7/9/1 5/5/1 6/8/1
f 8/10/2 9/11/2 10/12/2
f 9/13/2 11/14/2 12/15/2
f 10/12/2 9/11/2 12/16/2
f 12/15/2 11/14/2 13/17/2
f 13/17/2 11/14/2 14/18/2
f 15/19/3 16/20/3 17/21/3
f 18/22/3 16/20/3 15/19/3
f 19/23/3 20/24/3 21/25/3
f 22/26/3 20/24/3 19/23/3
f 23/27/4 24/28/4 25/29/4
f 25/29/4 24/28/4 26/30/4
f 27/31/5 28/32/5 29/33/5
f 30/34/5 28/32/5 27/31/5
f 31/35/5 30/36/5 27/37/5
f 32/38/5 30/36/5 31/35/5
f 33/39/6 34/40/6 35/41/6
f 35/41/6 34/40/6 36/42/6
f 37/43/6 38/44/6 39/45/6
f 39/45/6 38/44/6 40/46/6
