# Blender v2.77 (sub 0) OBJ File: ''
# www.blender.org
mtllib head.mtl
o final
v -5.500000 29.000000 -3.999995
v -5.500000 28.000000 -3.999995
v -5.500000 28.000000 -0.999995
v -5.500000 30.000000 -0.999995
v -5.500000 29.000000 -4.999995
v -5.500000 33.000000 1.000005
v -5.500000 30.000000 1.000005
v -5.500000 33.000000 -3.999995
v -5.500000 33.000000 -4.999995
v -5.500000 36.000000 3.000006
v -5.500000 33.000000 3.000005
v -5.500000 36.000000 2.000006
v -5.500000 36.000000 -2.999994
v -5.500000 36.000000 -3.999994
v -5.500000 37.000000 2.000006
v -5.500000 37.000000 -2.999994
v -4.500000 30.000000 1.000005
v -4.500000 28.000000 -0.999995
v -4.500000 28.000000 2.000005
v -4.500000 30.000000 -0.999995
v -4.500000 33.000000 2.000005
v -4.500000 33.000000 1.000005
v -4.500000 36.000000 -3.999994
v -4.500000 33.000000 -4.999995
v -4.500000 33.000000 -3.999995
v -4.500000 36.000000 -4.999994
v -4.500000 37.000000 3.000006
v -4.500000 36.000000 2.000006
v -4.500000 36.000000 3.000006
v -4.500000 37.000000 2.000006
v -4.500000 37.000000 -2.999994
v -4.500000 36.000000 -2.999994
v -4.500000 37.000000 -3.999994
v -3.500000 29.000000 -3.999995
v -3.500000 28.000000 -4.999995
v -3.500000 28.000000 -3.999995
v -3.500000 29.000000 -4.999995
v 2.500000 34.000000 3.000005
v 2.500000 33.000000 2.000005
v 2.500000 33.000000 3.000005
v 2.500000 34.000000 2.000005
v -2.500000 33.000000 3.000005
v -2.500000 33.000000 2.000005
v -2.500000 34.000000 3.000005
v -2.500000 34.000000 2.000005
v 3.500000 28.000000 -3.999995
v 3.500000 28.000000 -4.999995
v 3.500000 29.000000 -3.999995
v 3.500000 29.000000 -4.999995
v 4.500000 28.000000 2.000005
v 4.500000 28.000000 -0.999995
v 4.500000 30.000000 1.000005
v 4.500000 30.000000 -0.999995
v 4.500000 33.000000 2.000005
v 4.500000 33.000000 1.000005
v 4.500000 33.000000 -3.999995
v 4.500000 33.000000 -4.999995
v 4.500000 36.000000 -3.999994
v 4.500000 36.000000 -4.999994
v 4.500000 36.000000 3.000006
v 4.500000 36.000000 2.000006
v 4.500000 37.000000 3.000006
v 4.500000 37.000000 2.000006
v 4.500000 36.000000 -2.999994
v 4.500000 37.000000 -2.999994
v 4.500000 37.000000 -3.999994
v 5.500000 28.000000 -0.999995
v 5.500000 28.000000 -3.999995
v 5.500000 29.000000 -3.999995
v 5.500000 30.000000 -0.999995
v 5.500000 29.000000 -4.999995
v 5.500000 30.000000 1.000005
v 5.500000 33.000000 1.000005
v 5.500000 33.000000 -3.999995
v 5.500000 33.000000 -4.999995
v 5.500000 33.000000 3.000005
v 5.500000 36.000000 3.000006
v 5.500000 36.000000 2.000006
v 5.500000 36.000000 -2.999994
v 5.500000 36.000000 -3.999994
v 5.500000 37.000000 2.000006
v 5.500000 37.000000 -2.999994
v -4.500000 36.000000 3.000006
v -5.500000 36.000000 3.000006
v -5.500000 33.000000 3.000005
v -2.500000 33.000000 3.000005
v -4.500000 37.000000 3.000006
v -2.500000 34.000000 3.000005
v 2.500000 34.000000 3.000005
v 4.500000 36.000000 3.000006
v 2.500000 33.000000 3.000005
v 4.500000 37.000000 3.000006
v 5.500000 33.000000 3.000005
v 5.500000 36.000000 3.000006
v -4.500000 36.000000 2.000006
v -5.500000 37.000000 2.000006
v -5.500000 36.000000 2.000006
v -4.500000 37.000000 2.000006
v -2.500000 30.000000 2.000005
v -4.500000 33.000000 2.000005
v -4.500000 28.000000 2.000005
v -2.500000 32.000000 2.000005
v -2.500000 33.000000 2.000005
v -1.500000 30.000000 2.000005
v -1.500000 32.000000 2.000005
v -2.500000 34.000000 2.000005
v 1.500000 30.000000 2.000005
v 1.500000 32.000000 2.000005
v 2.500000 30.000000 2.000005
v 2.500000 32.000000 2.000005
v 2.500000 33.000000 2.000005
v 2.500000 34.000000 2.000005
v 4.500000 28.000000 2.000005
v 4.500000 33.000000 2.000005
v 5.500000 36.000000 2.000006
v 4.500000 37.000000 2.000006
v 4.500000 36.000000 2.000006
v 5.500000 37.000000 2.000006
v -4.500000 30.000000 1.000005
v -5.500000 33.000000 1.000005
v -5.500000 30.000000 1.000005
v -4.500000 33.000000 1.000005
v 5.500000 30.000000 1.000005
v 4.500000 33.000000 1.000005
v 4.500000 30.000000 1.000005
v 5.500000 33.000000 1.000005
v -4.500000 28.000000 -0.999995
v -5.500000 30.000000 -0.999995
v -5.500000 28.000000 -0.999995
v -4.500000 30.000000 -0.999995
v 5.500000 28.000000 -0.999995
v 4.500000 30.000000 -0.999995
v 4.500000 28.000000 -0.999995
v 5.500000 30.000000 -0.999995
v -5.500000 36.000000 -2.999994
v -5.500000 37.000000 -2.999994
v -4.500000 36.000000 -2.999994
v -4.500000 37.000000 -2.999994
v 4.500000 36.000000 -2.999994
v 4.500000 37.000000 -2.999994
v 5.500000 36.000000 -2.999994
v 5.500000 37.000000 -2.999994
v -5.500000 33.000000 -3.999995
v -5.500000 36.000000 -3.999994
v -4.500000 33.000000 -3.999995
v -4.500000 36.000000 -3.999994
v -5.500000 28.000000 -3.999995
v -5.500000 29.000000 -3.999995
v -3.500000 28.000000 -3.999995
v -3.500000 29.000000 -3.999995
v -4.500000 37.000000 -3.999994
v 4.500000 36.000000 -3.999994
v 4.500000 37.000000 -3.999994
v 3.500000 28.000000 -3.999995
v 3.500000 29.000000 -3.999995
v 5.500000 28.000000 -3.999995
v 5.500000 29.000000 -3.999995
v 4.500000 33.000000 -3.999995
v 5.500000 33.000000 -3.999995
v 5.500000 36.000000 -3.999994
v -5.500000 29.000000 -4.999995
v -5.500000 33.000000 -4.999995
v -4.500000 33.000000 -4.999995
v -4.500000 36.000000 -4.999994
v -3.500000 29.000000 -4.999995
v -3.500000 28.000000 -4.999995
v 3.500000 28.000000 -4.999995
v 3.500000 29.000000 -4.999995
v 4.500000 33.000000 -4.999995
v 4.500000 36.000000 -4.999994
v 5.500000 29.000000 -4.999995
v 5.500000 33.000000 -4.999995
v -4.500000 28.000000 -0.999995
v 4.500000 28.000000 2.000005
v -4.500000 28.000000 2.000005
v 4.500000 28.000000 -0.999995
v -4.500000 28.000000 -2.999995
v -5.500000 28.000000 -0.999995
v -3.500000 28.000000 -2.999995
v 3.500000 28.000000 -2.999995
v 4.500000 28.000000 -2.999995
v 5.500000 28.000000 -0.999995
v -5.500000 28.000000 -3.999995
v -3.500000 28.000000 -3.999995
v 3.500000 28.000000 -3.999995
v 5.500000 28.000000 -3.999995
v -3.500000 28.000000 -4.999995
v 3.500000 28.000000 -4.999995
v -5.500000 29.000000 -4.999995
v -3.500000 29.000000 -3.999995
v -5.500000 29.000000 -3.999995
v -3.500000 29.000000 -4.999995
v 3.500000 29.000000 -4.999995
v 5.500000 29.000000 -3.999995
v 3.500000 29.000000 -3.999995
v 5.500000 29.000000 -4.999995
v -5.500000 30.000000 -0.999995
v -4.500000 30.000000 1.000005
v -5.500000 30.000000 1.000005
v -4.500000 30.000000 -0.999995
v 4.500000 30.000000 -0.999995
v 5.500000 30.000000 1.000005
v 4.500000 30.000000 1.000005
v 5.500000 30.000000 -0.999995
v -4.500000 33.000000 2.000005
v -2.500000 33.000000 3.000005
v -5.500000 33.000000 3.000005
v -2.500000 33.000000 2.000005
v 2.500000 33.000000 2.000005
v 5.500000 33.000000 3.000005
v 2.500000 33.000000 3.000005
v 4.500000 33.000000 2.000005
v -5.500000 33.000000 1.000005
v -4.500000 33.000000 1.000005
v 4.500000 33.000000 1.000005
v 5.500000 33.000000 1.000005
v -2.500000 34.000000 2.000005
v 2.500000 34.000000 3.000005
v -2.500000 34.000000 3.000005
v 2.500000 34.000000 2.000005
v -5.500000 33.000000 -3.999995
v -4.500000 33.000000 -3.999995
v -5.500000 33.000000 -4.999995
v -4.500000 33.000000 -4.999995
v 4.500000 33.000000 -3.999995
v 5.500000 33.000000 -3.999995
v 4.500000 33.000000 -4.999995
v 5.500000 33.000000 -4.999995
v -5.500000 36.000000 3.000006
v -4.500000 36.000000 3.000006
v -5.500000 36.000000 2.000006
v -4.500000 36.000000 2.000006
v 4.500000 36.000000 3.000006
v 5.500000 36.000000 3.000006
v 4.500000 36.000000 2.000006
v 5.500000 36.000000 2.000006
v -5.500000 36.000000 -2.999994
v -4.500000 36.000000 -2.999994
v -5.500000 36.000000 -3.999994
v -4.500000 36.000000 -3.999994
v 4.500000 36.000000 -2.999994
v 5.500000 36.000000 -2.999994
v 4.500000 36.000000 -3.999994
v 5.500000 36.000000 -3.999994
v -4.500000 36.000000 -4.999994
v 4.500000 36.000000 -4.999994
v -4.500000 37.000000 3.000006
v 4.500000 37.000000 3.000006
v -4.500000 37.000000 2.000006
v 4.500000 37.000000 2.000006
v -5.500000 37.000000 2.000006
v -5.500000 37.000000 -2.999994
v 5.500000 37.000000 2.000006
v -4.500000 37.000000 -2.999994
v 4.500000 37.000000 -2.999994
v 5.500000 37.000000 -2.999994
v -4.500000 37.000000 -3.999994
v 4.500000 37.000000 -3.999994
vt 0.8730 0.5000
vt 0.8730 0.5000
vt 0.8730 0.5000
vt 0.8730 0.5000
vt 0.8730 0.5000
vt 0.8730 0.5000
vt 0.8730 0.5000
vt 0.8730 0.5000
vt 0.8730 0.5000
vt 0.8730 0.5000
vt 0.8730 0.5000
vt 0.8730 0.5000
vt 0.8730 0.5000
vt 0.8730 0.5000
vt 0.8730 0.5000
vt 0.8730 0.5000
vt 0.0332 0.5000
vt 0.0332 0.5000
vt 0.0332 0.5000
vt 0.0332 0.5000
vt 0.0332 0.5000
vt 0.0332 0.5000
vt 0.8730 0.5000
vt 0.8730 0.5000
vt 0.8730 0.5000
vt 0.8730 0.5000
vt 0.8730 0.5000
vt 0.8730 0.5000
vt 0.8730 0.5000
vt 0.8730 0.5000
vt 0.8730 0.5000
vt 0.8730 0.5000
vt 0.8730 0.5000
vt 0.8730 0.5000
vt 0.8730 0.5000
vt 0.8730 0.5000
vt 0.8730 0.5000
vt 0.8730 0.5000
vt 0.8730 0.5000
vt 0.8730 0.5000
vt 0.8730 0.5000
vt 0.8730 0.5000
vt 0.8730 0.5000
vt 0.8730 0.5000
vt 0.8730 0.5000
vt 0.8730 0.5000
vt 0.8730 0.5000
vt 0.8730 0.5000
vt 0.8730 0.5000
vt 0.0332 0.5000
vt 0.0332 0.5000
vt 0.0332 0.5000
vt 0.0332 0.5000
vt 0.0332 0.5000
vt 0.0332 0.5000
vt 0.8730 0.5000
vt 0.8730 0.5000
vt 0.8730 0.5000
vt 0.8730 0.5000
vt 0.8730 0.5000
vt 0.8730 0.5000
vt 0.8730 0.5000
vt 0.8730 0.5000
vt 0.8730 0.5000
vt 0.8730 0.5000
vt 0.8730 0.5000
vt 0.8730 0.5000
vt 0.8730 0.5000
vt 0.8730 0.5000
vt 0.8730 0.5000
vt 0.8730 0.5000
vt 0.8730 0.5000
vt 0.8730 0.5000
vt 0.8730 0.5000
vt 0.8730 0.5000
vt 0.8730 0.5000
vt 0.8730 0.5000
vt 0.8730 0.5000
vt 0.8730 0.5000
vt 0.8730 0.5000
vt 0.8730 0.5000
vt 0.8730 0.5000
vt 0.8730 0.5000
vt 0.8730 0.5000
vt 0.8730 0.5000
vt 0.8730 0.5000
vt 0.8730 0.5000
vt 0.8730 0.5000
vt 0.8730 0.5000
vt 0.8730 0.5000
vt 0.8730 0.5000
vt 0.8730 0.5000
vt 0.8730 0.5000
vt 0.8730 0.5000
vt 0.8730 0.5000
vt 0.8730 0.5000
vt 0.8730 0.5000
vt 0.8730 0.5000
vt 0.0332 0.5000
vt 0.0332 0.5000
vt 0.0332 0.5000
vt 0.0332 0.5000
vt 0.0332 0.5000
vt 0.9941 0.5000
vt 0.9941 0.5000
vt 0.9941 0.5000
vt 0.0332 0.5000
vt 0.0332 0.5000
vt 0.0332 0.5000
vt 0.9941 0.5000
vt 0.0332 0.5000
vt 0.0332 0.5000
vt 0.0332 0.5000
vt 0.9941 0.5000
vt 0.9941 0.5000
vt 0.9941 0.5000
vt 0.0332 0.5000
vt 0.9941 0.5000
vt 0.0332 0.5000
vt 0.0332 0.5000
vt 0.0332 0.5000
vt 0.0332 0.5000
vt 0.8730 0.5000
vt 0.8730 0.5000
vt 0.8730 0.5000
vt 0.8730 0.5000
vt 0.8730 0.5000
vt 0.8730 0.5000
vt 0.8730 0.5000
vt 0.8730 0.5000
vt 0.8730 0.5000
vt 0.8730 0.5000
vt 0.8730 0.5000
vt 0.8730 0.5000
vt 0.8730 0.5000
vt 0.8730 0.5000
vt 0.8730 0.5000
vt 0.8730 0.5000
vt 0.8730 0.5000
vt 0.8730 0.5000
vt 0.8730 0.5000
vt 0.8730 0.5000
vt 0.8730 0.5000
vt 0.8730 0.5000
vt 0.8730 0.5000
vt 0.8730 0.5000
vt 0.8730 0.5000
vt 0.8730 0.5000
vt 0.8730 0.5000
vt 0.8730 0.5000
vt 0.8730 0.5000
vt 0.8730 0.5000
vt 0.8730 0.5000
vt 0.8730 0.5000
vt 0.8730 0.5000
vt 0.8730 0.5000
vt 0.8730 0.5000
vt 0.8730 0.5000
vt 0.8730 0.5000
vt 0.8730 0.5000
vt 0.8730 0.5000
vt 0.8730 0.5000
vt 0.8730 0.5000
vt 0.8730 0.5000
vt 0.8730 0.5000
vt 0.8730 0.5000
vt 0.8730 0.5000
vt 0.8730 0.5000
vt 0.8730 0.5000
vt 0.8730 0.5000
vt 0.8730 0.5000
vt 0.8730 0.5000
vt 0.8730 0.5000
vt 0.8730 0.5000
vt 0.8730 0.5000
vt 0.8730 0.5000
vt 0.8730 0.5000
vt 0.8730 0.5000
vt 0.8730 0.5000
vt 0.8730 0.5000
vt 0.0332 0.5000
vt 0.0332 0.5000
vt 0.0332 0.5000
vt 0.0332 0.5000
vt 0.8730 0.5000
vt 0.8730 0.5000
vt 0.8730 0.5000
vt 0.0332 0.5000
vt 0.0332 0.5000
vt 0.0332 0.5000
vt 0.8730 0.5000
vt 0.8730 0.5000
vt 0.8730 0.5000
vt 0.0332 0.5000
vt 0.8730 0.5000
vt 0.8730 0.5000
vt 0.0332 0.5000
vt 0.8730 0.5000
vt 0.8730 0.5000
vt 0.8730 0.5000
vt 0.0332 0.5000
vt 0.8730 0.5000
vt 0.8730 0.5000
vt 0.8730 0.5000
vt 0.8730 0.5000
vt 0.8730 0.5000
vt 0.8730 0.5000
vt 0.8730 0.5000
vt 0.8730 0.5000
vt 0.8730 0.5000
vt 0.8730 0.5000
vt 0.8730 0.5000
vt 0.8730 0.5000
vt 0.8730 0.5000
vt 0.8730 0.5000
vt 0.8730 0.5000
vt 0.8730 0.5000
vt 0.8730 0.5000
vt 0.8730 0.5000
vt 0.8730 0.5000
vt 0.8730 0.5000
vt 0.8730 0.5000
vt 0.8730 0.5000
vt 0.8730 0.5000
vt 0.8730 0.5000
vt 0.8730 0.5000
vt 0.8730 0.5000
vt 0.8730 0.5000
vt 0.8730 0.5000
vt 0.8730 0.5000
vt 0.8730 0.5000
vt 0.8730 0.5000
vt 0.8730 0.5000
vt 0.8730 0.5000
vt 0.8730 0.5000
vt 0.8730 0.5000
vt 0.8730 0.5000
vt 0.8730 0.5000
vt 0.8730 0.5000
vt 0.8730 0.5000
vt 0.8730 0.5000
vt 0.8730 0.5000
vt 0.8730 0.5000
vt 0.8730 0.5000
vt 0.8730 0.5000
vt 0.8730 0.5000
vt 0.8730 0.5000
vt 0.8730 0.5000
vt 0.8730 0.5000
vt 0.8730 0.5000
vt 0.8730 0.5000
vt 0.8730 0.5000
vt 0.8730 0.5000
vt 0.8730 0.5000
vt 0.8730 0.5000
vt 0.8730 0.5000
vt 0.8730 0.5000
vt 0.8730 0.5000
vt 0.8730 0.5000
vt 0.8730 0.5000
vt 0.8730 0.5000
vt 0.8730 0.5000
vt 0.8730 0.5000
vt 0.8730 0.5000
vt 0.8730 0.5000
vt 0.8730 0.5000
vt 0.8730 0.5000
vt 0.8730 0.5000
vt 0.8730 0.5000
vt 0.8730 0.5000
vt 0.8730 0.5000
vt 0.8730 0.5000
vt 0.8730 0.5000
vt 0.8730 0.5000
vn -1.0000 0.0000 0.0000
vn 1.0000 0.0000 0.0000
vn 0.0000 -0.0000 1.0000
vn 0.0000 0.0000 -1.0000
vn 0.0000 -1.0000 0.0000
vn 0.0000 1.0000 0.0000
usemtl palette
s 1
f 1/1/1 2/2/1 3/3/1
f 4/4/1 1/1/1 3/3/1
f 4/4/1 5/5/1 1/1/1
f 6/6/1 4/4/1 7/7/1
f 8/8/1 5/5/1 4/4/1
f 8/8/1 4/4/1 6/6/1
f 9/9/1 5/5/1 8/8/1
f 10/10/1 6/6/1 11/11/1
f 10/10/1 8/8/1 6/6/1
f 12/12/1 8/8/1 10/10/1
f 13/13/1 8/8/1 12/12/1
f 14/14/1 8/8/1 13/13/1
f 15/15/1 13/13/1 12/12/1
f 16/16/1 13/13/1 15/15/1
f 17/17/1 18/18/1 19/19/1
f 20/20/1 18/18/1 17/17/1
f 21/21/1 17/17/1 19/19/1
f 22/22/1 17/17/1 21/21/1
f 23/23/1 24/24/1 25/25/1
f 26/26/1 24/24/1 23/23/1
f 27/27/1 28/28/1 29/29/1
f 30/30/1 28/28/1 27/27/1
f 31/31/1 23/23/1 32/32/1
f 33/33/1 23/23/1 31/31/1
f 34/34/1 35/35/1 36/36/1
f 37/37/1 35/35/1 34/34/1
f 38/38/1 39/39/1 40/40/1
f 41/41/1 39/39/1 38/38/1
f 42/42/2 43/43/2 44/44/2
f 44/44/2 43/43/2 45/45/2
f 46/46/2 47/47/2 48/48/2
f 48/48/2 47/47/2 49/49/2
f 50/50/2 51/51/2 52/52/2
f 52/52/2 51/51/2 53/53/2
f 50/50/2 52/52/2 54/54/2
f 54/54/2 52/52/2 55/55/2
f 56/56/2 57/57/2 58/58/2
f 58/58/2 57/57/2 59/59/2
f 60/60/2 61/61/2 62/62/2
f 62/62/2 61/61/2 63/63/2
f 64/64/2 58/58/2 65/65/2
f 65/65/2 58/58/2 66/66/2
f 67/67/2 68/68/2 69/69/2
f 67/67/2 69/69/2 70/70/2
f 69/69/2 71/71/2 70/70/2
f 72/72/2 70/70/2 73/73/2
f 70/70/2 71/71/2 74/74/2
f 73/73/2 70/70/2 74/74/2
f 74/74/2 71/71/2 75/75/2
f 76/76/2 73/73/2 77/77/2
f 73/73/2 74/74/2 77/77/2
f 77/77/2 74/74/2 78/78/2
f 78/78/2 74/74/2 79/79/2
f 79/79/2 74/74/2 80/80/2
f 78/78/2 79/79/2 81/81/2
f 81/81/2 79/79/2 82/82/2
f 83/83/3 84/84/3 85/85/3
f 86/86/3 87/87/3 83/83/3
f 86/86/3 83/83/3 85/85/3
f 88/88/3 87/87/3 86/86/3
f 89/89/3 87/87/3 88/88/3
f 90/90/3 89/89/3 91/91/3
f 90/90/3 87/87/3 89/89/3
f 92/92/3 87/87/3 90/90/3
f 93/93/3 90/90/3 91/91/3
f 94/94/3 90/90/3 93/93/3
f 95/95/3 96/96/3 97/97/3
f 98/98/3 96/96/3 95/95/3
f 99/99/3 100/100/3 101/101/3
f 102/102/3 100/100/3 99/99/3
f 103/103/3 100/100/3 102/102/3
f 104/104/3 102/105/3 99/106/3
f 104/107/3 99/99/3 101/101/3
f 105/108/3 106/109/3 103/103/3
f 105/110/3 102/105/3 104/104/3
f 105/108/3 103/103/3 102/102/3
f 107/111/3 104/107/3 101/101/3
f 107/111/3 105/108/3 104/107/3
f 108/112/3 106/109/3 105/108/3
f 108/112/3 105/108/3 107/111/3
f 109/113/3 107/111/3 101/101/3
f 109/114/3 108/115/3 107/116/3
f 110/117/3 106/109/3 108/112/3
f 110/118/3 108/115/3 109/114/3
f 111/119/3 106/109/3 110/117/3
f 112/120/3 106/109/3 111/119/3
f 113/121/3 109/113/3 101/101/3
f 113/121/3 111/119/3 110/117/3
f 113/121/3 110/117/3 109/113/3
f 114/122/3 111/119/3 113/121/3
f 115/123/3 116/124/3 117/125/3
f 118/126/3 116/124/3 115/123/3
f 119/127/3 120/128/3 121/129/3
f 122/130/3 120/128/3 119/127/3
f 123/131/3 124/132/3 125/133/3
f 126/134/3 124/132/3 123/131/3
f 127/135/3 128/136/3 129/137/3
f 130/138/3 128/136/3 127/135/3
f 131/139/3 132/140/3 133/141/3
f 134/142/3 132/140/3 131/139/3
f 135/143/4 136/144/4 137/145/4
f 137/145/4 136/144/4 138/146/4
f 139/147/4 140/148/4 141/149/4
f 141/149/4 140/148/4 142/150/4
f 143/151/4 144/152/4 145/153/4
f 145/153/4 144/152/4 146/154/4
f 147/155/4 148/156/4 149/157/4
f 149/157/4 148/156/4 150/158/4
f 146/154/4 151/159/4 152/160/4
f 152/160/4 151/159/4 153/161/4
f 154/162/4 155/163/4 156/164/4
f 156/164/4 155/163/4 157/165/4
f 158/166/4 152/160/4 159/167/4
f 159/167/4 152/160/4 160/168/4
f 161/169/4 162/170/4 163/171/4
f 163/171/4 164/172/4 165/173/4
f 161/169/4 163/171/4 165/173/4
f 166/174/4 165/173/4 167/175/4
f 165/173/4 164/172/4 168/176/4
f 167/175/4 165/173/4 168/176/4
f 168/176/4 164/172/4 169/177/4
f 169/177/4 164/172/4 170/178/4
f 168/176/4 169/177/4 171/179/4
f 171/179/4 169/177/4 172/180/4
f 173/181/5 174/182/5 175/183/5
f 176/184/5 174/182/5 173/181/5
f 177/185/5 173/186/5 178/187/5
f 177/188/5 176/184/5 173/181/5
f 179/189/5 176/184/5 177/188/5
f 180/190/5 176/184/5 179/189/5
f 181/191/5 182/192/5 176/193/5
f 181/194/5 176/184/5 180/190/5
f 183/195/5 177/185/5 178/187/5
f 183/195/5 179/196/5 177/185/5
f 184/197/5 180/190/5 179/189/5
f 184/198/5 179/196/5 183/195/5
f 185/199/5 181/191/5 180/200/5
f 185/201/5 180/190/5 184/197/5
f 186/202/5 182/192/5 181/191/5
f 186/202/5 181/191/5 185/199/5
f 187/203/5 185/199/5 184/198/5
f 188/204/5 185/199/5 187/203/5
f 189/205/5 190/206/5 191/207/5
f 192/208/5 190/206/5 189/205/5
f 193/209/5 194/210/5 195/211/5
f 196/212/5 194/210/5 193/209/5
f 197/213/5 198/214/5 199/215/5
f 200/216/5 198/214/5 197/213/5
f 201/217/5 202/218/5 203/219/5
f 204/220/5 202/218/5 201/217/5
f 205/221/5 206/222/5 207/223/5
f 208/224/5 206/222/5 205/221/5
f 209/225/5 210/226/5 211/227/5
f 212/228/5 210/226/5 209/225/5
f 213/229/5 205/221/5 207/223/5
f 214/230/5 205/221/5 213/229/5
f 215/231/5 210/226/5 212/228/5
f 216/232/5 210/226/5 215/231/5
f 217/233/5 218/234/5 219/235/5
f 220/236/5 218/234/5 217/233/5
f 221/237/6 222/238/6 223/239/6
f 223/239/6 222/238/6 224/240/6
f 225/241/6 226/242/6 227/243/6
f 227/243/6 226/242/6 228/244/6
f 229/245/6 230/246/6 231/247/6
f 231/247/6 230/246/6 232/248/6
f 233/249/6 234/250/6 235/251/6
f 235/251/6 234/250/6 236/252/6
f 237/253/6 238/254/6 239/255/6
f 239/255/6 238/254/6 240/256/6
f 241/257/6 242/258/6 243/259/6
f 243/259/6 242/258/6 244/260/6
f 240/256/6 243/259/6 245/261/6
f 245/261/6 243/259/6 246/262/6
f 247/263/6 248/264/6 249/265/6
f 249/265/6 248/264/6 250/266/6
f 251/267/6 249/265/6 252/268/6
f 250/266/6 253/269/6 252/268/6
f 249/265/6 250/266/6 252/268/6
f 252/268/6 253/269/6 254/270/6
f 254/270/6 253/269/6 255/271/6
f 255/271/6 253/269/6 256/272/6
f 254/270/6 255/271/6 257/273/6
f 257/273/6 255/271/6 258/274/6
