# Blender v2.77 (sub 0) OBJ File: ''
# www.blender.org
mtllib normalsword.mtl
o SamAsWarrior
v -15.500000 21.000000 0.000003
v -15.500000 15.000000 -0.999998
v -15.500000 15.000000 0.000002
v -15.500000 21.000000 -0.999997
v -14.500000 16.999998 14.000003
v -14.500000 16.000000 0.000003
v -14.500000 15.999998 14.000003
v -14.500000 16.999998 13.000003
v -14.500000 17.000000 1.000003
v -14.500000 17.999998 14.000003
v -14.500000 16.999998 15.000003
v -14.500000 17.999998 13.000003
v -14.500000 17.999998 12.000003
v -14.500000 18.000000 1.000003
v -14.500000 18.999998 15.000003
v -14.500000 18.999998 14.000003
v -14.500000 18.999998 12.000003
v -14.500000 19.999998 14.000003
v -14.500000 20.000000 0.000003
v -13.500000 15.999998 14.000003
v -13.500000 16.000000 0.000003
v -13.500000 16.999998 14.000003
v -13.500000 16.999998 13.000003
v -13.500000 17.000000 1.000003
v -13.500000 16.999998 15.000003
v -13.500000 17.999998 14.000003
v -13.500000 17.999998 13.000003
v -13.500000 17.999998 12.000003
v -13.500000 18.000000 1.000003
v -13.500000 18.999998 15.000003
v -13.500000 18.999998 14.000003
v -13.500000 18.999998 12.000003
v -13.500000 19.999998 14.000003
v -13.500000 20.000000 0.000003
v -12.500000 15.000000 0.000002
v -12.500000 15.000000 -0.999998
v -12.500000 21.000000 0.000003
v -12.500000 21.000000 -0.999997
v -13.500000 16.999998 15.000003
v -14.500000 18.999998 15.000003
v -14.500000 16.999998 15.000003
v -13.500000 18.999998 15.000003
v -13.500000 15.999998 14.000003
v -14.500000 16.999998 14.000003
v -14.500000 15.999998 14.000003
v -13.500000 16.999998 14.000003
v -13.500000 18.999998 14.000003
v -14.500000 19.999998 14.000003
v -14.500000 18.999998 14.000003
v -13.500000 19.999998 14.000003
v -14.500000 16.000000 0.000003
v -15.500000 21.000000 0.000003
v -15.500000 15.000000 0.000002
v -14.500000 20.000000 0.000003
v -13.500000 16.000000 0.000003
v -13.500000 20.000000 0.000003
v -12.500000 15.000000 0.000002
v -12.500000 21.000000 0.000003
v -15.500000 15.000000 -0.999998
v -15.500000 21.000000 -0.999997
v -12.500000 15.000000 -0.999998
v -12.500000 21.000000 -0.999997
v -15.500000 15.000000 -0.999998
v -12.500000 15.000000 0.000002
v -15.500000 15.000000 0.000002
v -12.500000 15.000000 -0.999998
v -14.500000 16.000000 0.000003
v -13.500000 15.999998 14.000003
v -14.500000 15.999998 14.000003
v -13.500000 16.000000 0.000003
v -14.500000 16.999998 14.000003
v -13.500000 16.999998 15.000003
v -14.500000 16.999998 15.000003
v -13.500000 16.999998 14.000003
v -14.500000 18.999998 15.000003
v -13.500000 18.999998 15.000003
v -14.500000 18.999998 14.000003
v -13.500000 18.999998 14.000003
v -14.500000 19.999998 14.000003
v -13.500000 19.999998 14.000003
v -14.500000 20.000000 0.000003
v -13.500000 20.000000 0.000003
v -15.500000 21.000000 0.000003
v -12.500000 21.000000 0.000003
v -15.500000 21.000000 -0.999997
v -12.500000 21.000000 -0.999997
vt 0.9707 0.5000
vt 0.9707 0.5000
vt 0.9707 0.5000
vt 0.9707 0.5000
vt 0.9707 0.5000
vt 0.9707 0.5000
vt 0.9707 0.5000
vt 0.9707 0.5000
vt 0.9707 0.5000
vt 0.9707 0.5000
vt 0.9707 0.5000
vt 0.9668 0.5000
vt 0.9668 0.5000
vt 0.9668 0.5000
vt 0.9707 0.5000
vt 0.9668 0.5000
vt 0.9707 0.5000
vt 0.9668 0.5000
vt 0.9707 0.5000
vt 0.9668 0.5000
vt 0.9707 0.5000
vt 0.9668 0.5000
vt 0.9707 0.5000
vt 0.9707 0.5000
vt 0.9668 0.5000
vt 0.9707 0.5000
vt 0.9707 0.5000
vt 0.9707 0.5000
vt 0.9707 0.5000
vt 0.9707 0.5000
vt 0.9707 0.5000
vt 0.9707 0.5000
vt 0.9707 0.5000
vt 0.9707 0.5000
vt 0.9668 0.5000
vt 0.9668 0.5000
vt 0.9668 0.5000
vt 0.9707 0.5000
vt 0.9668 0.5000
vt 0.9707 0.5000
vt 0.9668 0.5000
vt 0.9707 0.5000
vt 0.9668 0.5000
vt 0.9707 0.5000
vt 0.9668 0.5000
vt 0.9707 0.5000
vt 0.9707 0.5000
vt 0.9668 0.5000
vt 0.9707 0.5000
vt 0.9707 0.5000
vt 0.9707 0.5000
vt 0.9707 0.5000
vt 0.9707 0.5000
vt 0.9707 0.5000
vt 0.9707 0.5000
vt 0.9707 0.5000
vt 0.9707 0.5000
vt 0.9707 0.5000
vt 0.9707 0.5000
vt 0.9707 0.5000
vt 0.9707 0.5000
vt 0.9707 0.5000
vt 0.9707 0.5000
vt 0.9707 0.5000
vt 0.9707 0.5000
vt 0.9707 0.5000
vt 0.9707 0.5000
vt 0.9707 0.5000
vt 0.9707 0.5000
vt 0.9707 0.5000
vt 0.9707 0.5000
vt 0.9707 0.5000
vt 0.9707 0.5000
vt 0.9707 0.5000
vt 0.9707 0.5000
vt 0.9707 0.5000
vt 0.9707 0.5000
vt 0.9707 0.5000
vt 0.9707 0.5000
vt 0.9707 0.5000
vt 0.9707 0.5000
vt 0.9707 0.5000
vt 0.9707 0.5000
vt 0.9707 0.5000
vt 0.9707 0.5000
vt 0.9707 0.5000
vt 0.9707 0.5000
vt 0.9707 0.5000
vt 0.9707 0.5000
vt 0.9707 0.5000
vt 0.9707 0.5000
vt 0.9707 0.5000
vt 0.9707 0.5000
vt 0.9707 0.5000
vt 0.9707 0.5000
vt 0.9707 0.5000
vt 0.9707 0.5000
vt 0.9707 0.5000
vt 0.9707 0.5000
vt 0.9707 0.5000
vt 0.9707 0.5000
vt 0.9707 0.5000
vn -1.0000 0.0000 0.0000
vn 1.0000 0.0000 0.0000
vn 0.0000 0.0000 1.0000
vn 0.0000 0.0000 -1.0000
vn 0.0000 -1.0000 0.0000
vn 0.0000 1.0000 0.0000
usemtl palette
s 1
f 1/1/1 2/2/1 3/3/1
f 4/4/1 2/2/1 1/1/1
f 5/5/1 6/6/1 7/7/1
f 8/8/1 6/6/1 5/5/1
f 9/9/1 6/6/1 8/8/1
f 10/10/1 5/5/1 11/11/1
f 10/10/1 8/8/1 5/5/1
f 12/12/1 9/13/1 8/14/1
f 12/15/1 8/8/1 10/10/1
f 13/16/1 9/13/1 12/12/1
f 14/17/1 6/6/1 9/9/1
f 14/18/1 9/13/1 13/16/1
f 15/19/1 10/10/1 11/11/1
f 16/20/1 13/16/1 12/12/1
f 16/21/1 10/10/1 15/19/1
f 16/20/1 12/12/1 10/22/1
f 17/23/1 14/17/1 13/24/1
f 17/25/1 13/16/1 16/20/1
f 18/26/1 17/23/1 16/21/1
f 19/27/1 6/6/1 14/17/1
f 19/27/1 17/23/1 18/26/1
f 19/27/1 14/17/1 17/23/1
f 20/28/2 21/29/2 22/30/2
f 22/30/2 21/29/2 23/31/2
f 23/31/2 21/29/2 24/32/2
f 25/33/2 22/30/2 26/34/2
f 22/30/2 23/31/2 26/34/2
f 23/35/2 24/36/2 27/37/2
f 26/34/2 23/31/2 27/38/2
f 27/37/2 24/36/2 28/39/2
f 24/32/2 21/29/2 29/40/2
f 28/39/2 24/36/2 29/41/2
f 25/33/2 26/34/2 30/42/2
f 27/37/2 28/39/2 31/43/2
f 30/42/2 26/34/2 31/44/2
f 26/45/2 27/37/2 31/43/2
f 28/46/2 29/40/2 32/47/2
f 31/43/2 28/39/2 32/48/2
f 31/44/2 32/47/2 33/49/2
f 29/40/2 21/29/2 34/50/2
f 33/49/2 32/47/2 34/50/2
f 32/47/2 29/40/2 34/50/2
f 35/51/2 36/52/2 37/53/2
f 37/53/2 36/52/2 38/54/2
f 39/55/3 40/56/3 41/57/3
f 42/58/3 40/56/3 39/55/3
f 43/59/3 44/60/3 45/61/3
f 46/62/3 44/60/3 43/59/3
f 47/63/3 48/64/3 49/65/3
f 50/66/3 48/64/3 47/63/3
f 51/67/3 52/68/3 53/69/3
f 54/70/3 52/68/3 51/67/3
f 55/71/3 51/67/3 53/69/3
f 56/72/3 52/68/3 54/70/3
f 57/73/3 55/71/3 53/69/3
f 57/73/3 56/72/3 55/71/3
f 58/74/3 52/68/3 56/72/3
f 58/74/3 56/72/3 57/73/3
f 59/75/4 60/76/4 61/77/4
f 61/77/4 60/76/4 62/78/4
f 63/79/5 64/80/5 65/81/5
f 66/82/5 64/80/5 63/79/5
f 67/83/5 68/84/5 69/85/5
f 70/86/5 68/84/5 67/83/5
f 71/87/5 72/88/5 73/89/5
f 74/90/5 72/88/5 71/87/5
f 75/91/6 76/92/6 77/93/6
f 77/93/6 76/92/6 78/94/6
f 79/95/6 80/96/6 81/97/6
f 81/97/6 80/96/6 82/98/6
f 83/99/6 84/100/6 85/101/6
f 85/101/6 84/100/6 86/102/6
