# Blender v2.77 (sub 0) OBJ File: ''
# www.blender.org
mtllib yellowflower.mtl
o Flower.002
v 1.000000 6.000001 -4.499999
v 1.000000 5.000001 -7.499999
v 1.000000 5.000001 -4.499999
v 1.000000 6.000001 -7.499999
v 2.000000 5.000001 -5.499999
v 2.000000 4.000001 -6.500000
v 2.000000 4.000001 -5.500000
v 2.000000 5.000001 -6.499999
v 2.000000 6.000000 -3.499999
v 2.000000 5.000001 -4.499999
v 2.000000 5.000000 -3.499999
v 2.000000 6.000001 -4.499999
v 2.000000 6.000001 -7.499999
v 2.000000 5.000001 -8.499999
v 2.000000 5.000001 -7.499999
v 2.000000 6.000001 -8.499999
v 3.000000 4.000001 -5.500000
v 3.000000 0.000001 -6.500000
v 3.000000 0.000001 -5.500000
v 3.000000 4.000001 -6.500000
v 4.000000 0.000001 -5.500000
v 4.000000 0.000001 -6.500000
v 4.000000 1.000001 -5.500000
v 4.000000 1.000001 -6.500000
v 4.000000 3.000001 -5.500000
v 4.000000 3.000001 -6.500000
v 4.000000 5.000001 -5.499999
v 4.000000 5.000001 -6.499999
v 5.000000 1.000001 -5.500000
v 5.000000 1.000001 -6.500000
v 5.000000 3.000001 -5.500000
v 5.000000 3.000001 -6.500000
v 5.000000 5.000000 -3.499999
v 5.000000 5.000001 -4.499999
v 5.000000 6.000000 -3.499999
v 5.000000 6.000001 -4.499999
v 5.000000 5.000001 -7.499999
v 5.000000 5.000001 -8.499999
v 5.000000 6.000001 -7.499999
v 5.000000 6.000001 -8.499999
v 6.000000 5.000001 -4.499999
v 6.000000 5.000001 -7.499999
v 6.000000 6.000001 -4.499999
v 6.000000 6.000001 -7.499999
v 5.000000 5.000000 -3.499999
v 2.000000 6.000000 -3.499999
v 2.000000 5.000000 -3.499999
v 5.000000 6.000000 -3.499999
v 2.000000 5.000001 -4.499999
v 1.000000 6.000001 -4.499999
v 1.000000 5.000001 -4.499999
v 2.000000 6.000001 -4.499999
v 6.000000 5.000001 -4.499999
v 5.000000 6.000001 -4.499999
v 5.000000 5.000001 -4.499999
v 6.000000 6.000001 -4.499999
v 3.000000 4.000001 -5.500000
v 2.000000 5.000001 -5.499999
v 2.000000 4.000001 -5.500000
v 4.000000 0.000001 -5.500000
v 3.000000 0.000001 -5.500000
v 4.000000 1.000001 -5.500000
v 4.000000 3.000001 -5.500000
v 4.000000 5.000001 -5.499999
v 5.000000 1.000001 -5.500000
v 5.000000 3.000001 -5.500000
v 2.000000 4.000001 -6.500000
v 2.000000 5.000001 -6.499999
v 3.000000 4.000001 -6.500000
v 3.000000 0.000001 -6.500000
v 4.000000 0.000001 -6.500000
v 4.000000 1.000001 -6.500000
v 4.000000 3.000001 -6.500000
v 4.000000 5.000001 -6.499999
v 5.000000 1.000001 -6.500000
v 5.000000 3.000001 -6.500000
v 1.000000 5.000001 -7.499999
v 1.000000 6.000001 -7.499999
v 2.000000 5.000001 -7.499999
v 2.000000 6.000001 -7.499999
v 5.000000 5.000001 -7.499999
v 5.000000 6.000001 -7.499999
v 6.000000 5.000001 -7.499999
v 6.000000 6.000001 -7.499999
v 2.000000 5.000001 -8.499999
v 2.000000 6.000001 -8.499999
v 5.000000 5.000001 -8.499999
v 5.000000 6.000001 -8.499999
v 3.000000 0.000001 -6.500000
v 4.000000 0.000001 -5.500000
v 3.000000 0.000001 -5.500000
v 4.000000 0.000001 -6.500000
v 4.000000 1.000001 -6.500000
v 5.000000 1.000001 -5.500000
v 4.000000 1.000001 -5.500000
v 5.000000 1.000001 -6.500000
v 2.000000 4.000001 -6.500000
v 3.000000 4.000001 -5.500000
v 2.000000 4.000001 -5.500000
v 3.000000 4.000001 -6.500000
v 2.000000 5.000001 -4.499999
v 5.000000 5.000000 -3.499999
v 2.000000 5.000000 -3.499999
v 5.000000 5.000001 -4.499999
v 2.000000 5.000001 -5.499999
v 1.000000 5.000001 -4.499999
v 4.000000 5.000001 -5.499999
v 2.000000 5.000001 -6.499999
v 4.000000 5.000001 -6.499999
v 1.000000 5.000001 -7.499999
v 2.000000 5.000001 -7.499999
v 5.000000 5.000001 -7.499999
v 6.000000 5.000001 -4.499999
v 6.000000 5.000001 -7.499999
v 2.000000 5.000001 -8.499999
v 5.000000 5.000001 -8.499999
v 4.000000 3.000001 -5.500000
v 5.000000 3.000001 -5.500000
v 4.000000 3.000001 -6.500000
v 5.000000 3.000001 -6.500000
v 2.000000 6.000000 -3.499999
v 5.000000 6.000000 -3.499999
v 2.000000 6.000001 -4.499999
v 5.000000 6.000001 -4.499999
v 1.000000 6.000001 -4.499999
v 1.000000 6.000001 -7.499999
v 2.000000 6.000001 -7.499999
v 6.000000 6.000001 -4.499999
v 5.000000 6.000001 -7.499999
v 6.000000 6.000001 -7.499999
v 2.000000 6.000001 -8.499999
v 5.000000 6.000001 -8.499999
vt 0.0449 0.5000
vt 0.0449 0.5000
vt 0.0449 0.5000
vt 0.0449 0.5000
vt 0.9082 0.5000
vt 0.9082 0.5000
vt 0.9082 0.5000
vt 0.9082 0.5000
vt 0.0449 0.5000
vt 0.0449 0.5000
vt 0.0449 0.5000
vt 0.0449 0.5000
vt 0.0449 0.5000
vt 0.0449 0.5000
vt 0.0449 0.5000
vt 0.0449 0.5000
vt 0.9082 0.5000
vt 0.9082 0.5000
vt 0.9082 0.5000
vt 0.9082 0.5000
vt 0.9082 0.5000
vt 0.9082 0.5000
vt 0.9082 0.5000
vt 0.9082 0.5000
vt 0.9082 0.5000
vt 0.9082 0.5000
vt 0.9082 0.5000
vt 0.9082 0.5000
vt 0.9082 0.5000
vt 0.9082 0.5000
vt 0.9082 0.5000
vt 0.9082 0.5000
vt 0.0449 0.5000
vt 0.0449 0.5000
vt 0.0449 0.5000
vt 0.0449 0.5000
vt 0.0449 0.5000
vt 0.0449 0.5000
vt 0.0449 0.5000
vt 0.0449 0.5000
vt 0.0449 0.5000
vt 0.0449 0.5000
vt 0.0449 0.5000
vt 0.0449 0.5000
vt 0.0449 0.5000
vt 0.0449 0.5000
vt 0.0449 0.5000
vt 0.0449 0.5000
vt 0.0449 0.5000
vt 0.0449 0.5000
vt 0.0449 0.5000
vt 0.0449 0.5000
vt 0.0449 0.5000
vt 0.0449 0.5000
vt 0.0449 0.5000
vt 0.0449 0.5000
vt 0.9082 0.5000
vt 0.9082 0.5000
vt 0.9082 0.5000
vt 0.9082 0.5000
vt 0.9082 0.5000
vt 0.9082 0.5000
vt 0.9082 0.5000
vt 0.9082 0.5000
vt 0.9082 0.5000
vt 0.9082 0.5000
vt 0.9082 0.5000
vt 0.9082 0.5000
vt 0.9082 0.5000
vt 0.9082 0.5000
vt 0.9082 0.5000
vt 0.9082 0.5000
vt 0.9082 0.5000
vt 0.9082 0.5000
vt 0.9082 0.5000
vt 0.9082 0.5000
vt 0.0449 0.5000
vt 0.0449 0.5000
vt 0.0449 0.5000
vt 0.0449 0.5000
vt 0.0449 0.5000
vt 0.0449 0.5000
vt 0.0449 0.5000
vt 0.0449 0.5000
vt 0.0449 0.5000
vt 0.0449 0.5000
vt 0.0449 0.5000
vt 0.0449 0.5000
vt 0.9082 0.5000
vt 0.9082 0.5000
vt 0.9082 0.5000
vt 0.9082 0.5000
vt 0.9082 0.5000
vt 0.9082 0.5000
vt 0.9082 0.5000
vt 0.9082 0.5000
vt 0.9082 0.5000
vt 0.9082 0.5000
vt 0.9082 0.5000
vt 0.9082 0.5000
vt 0.0449 0.5000
vt 0.0449 0.5000
vt 0.0449 0.5000
vt 0.0449 0.5000
vt 0.0449 0.5000
vt 0.0449 0.5000
vt 0.0176 0.5000
vt 0.0176 0.5000
vt 0.0176 0.5000
vt 0.0176 0.5000
vt 0.0449 0.5000
vt 0.0176 0.5000
vt 0.0449 0.5000
vt 0.0176 0.5000
vt 0.0176 0.5000
vt 0.0449 0.5000
vt 0.0449 0.5000
vt 0.0449 0.5000
vt 0.0176 0.5000
vt 0.0449 0.5000
vt 0.0449 0.5000
vt 0.0449 0.5000
vt 0.9082 0.5000
vt 0.9082 0.5000
vt 0.9082 0.5000
vt 0.9082 0.5000
vt 0.0449 0.5000
vt 0.0449 0.5000
vt 0.0449 0.5000
vt 0.0449 0.5000
vt 0.0449 0.5000
vt 0.0449 0.5000
vt 0.0176 0.5000
vt 0.0176 0.5000
vt 0.0176 0.5000
vt 0.0449 0.5000
vt 0.0449 0.5000
vt 0.0449 0.5000
vt 0.0176 0.5000
vt 0.0449 0.5000
vt 0.0449 0.5000
vt 0.0449 0.5000
vn -1.0000 0.0000 0.0000
vn 1.0000 0.0000 0.0000
vn 0.0000 -0.0000 1.0000
vn 0.0000 0.0000 -1.0000
vn 0.0000 -1.0000 -0.0000
vn 0.0000 1.0000 0.0000
usemtl palette.003
s 1
f 1/1/1 2/2/1 3/3/1
f 4/4/1 2/2/1 1/1/1
f 5/5/1 6/6/1 7/7/1
f 8/8/1 6/6/1 5/5/1
f 9/9/1 10/10/1 11/11/1
f 12/12/1 10/10/1 9/9/1
f 13/13/1 14/14/1 15/15/1
f 16/16/1 14/14/1 13/13/1
f 17/17/1 18/18/1 19/19/1
f 20/20/1 18/18/1 17/17/1
f 21/21/2 22/22/2 23/23/2
f 23/23/2 22/22/2 24/24/2
f 25/25/2 26/26/2 27/27/2
f 27/27/2 26/26/2 28/28/2
f 29/29/2 30/30/2 31/31/2
f 31/31/2 30/30/2 32/32/2
f 33/33/2 34/34/2 35/35/2
f 35/35/2 34/34/2 36/36/2
f 37/37/2 38/38/2 39/39/2
f 39/39/2 38/38/2 40/40/2
f 41/41/2 42/42/2 43/43/2
f 43/43/2 42/42/2 44/44/2
f 45/45/3 46/46/3 47/47/3
f 48/48/3 46/46/3 45/45/3
f 49/49/3 50/50/3 51/51/3
f 52/52/3 50/50/3 49/49/3
f 53/53/3 54/54/3 55/55/3
f 56/56/3 54/54/3 53/53/3
f 57/57/3 58/58/3 59/59/3
f 60/60/3 57/57/3 61/61/3
f 62/62/3 57/57/3 60/60/3
f 63/63/3 57/57/3 62/62/3
f 64/64/3 58/58/3 57/57/3
f 64/64/3 57/57/3 63/63/3
f 65/65/3 63/63/3 62/62/3
f 66/66/3 63/63/3 65/65/3
f 67/67/4 68/68/4 69/69/4
f 70/70/4 69/69/4 71/71/4
f 71/71/4 69/69/4 72/72/4
f 72/72/4 69/69/4 73/73/4
f 69/69/4 68/68/4 74/74/4
f 73/73/4 69/69/4 74/74/4
f 72/72/4 73/73/4 75/75/4
f 75/75/4 73/73/4 76/76/4
f 77/77/4 78/78/4 79/79/4
f 79/79/4 78/78/4 80/80/4
f 81/81/4 82/82/4 83/83/4
f 83/83/4 82/82/4 84/84/4
f 85/85/4 86/86/4 87/87/4
f 87/87/4 86/86/4 88/88/4
f 89/89/5 90/90/5 91/91/5
f 92/92/5 90/90/5 89/89/5
f 93/93/5 94/94/5 95/95/5
f 96/96/5 94/94/5 93/93/5
f 97/97/5 98/98/5 99/99/5
f 100/100/5 98/98/5 97/97/5
f 101/101/5 102/102/5 103/103/5
f 104/104/5 102/102/5 101/101/5
f 105/105/5 101/101/5 106/106/5
f 105/107/5 104/108/5 101/109/5
f 107/110/5 104/108/5 105/107/5
f 108/111/5 105/105/5 106/106/5
f 109/112/5 104/108/5 107/110/5
f 110/113/5 108/111/5 106/106/5
f 111/114/5 109/112/5 108/115/5
f 111/116/5 108/111/5 110/113/5
f 112/117/5 113/118/5 104/104/5
f 112/119/5 109/112/5 111/114/5
f 112/119/5 104/108/5 109/112/5
f 114/120/5 113/118/5 112/117/5
f 115/121/5 112/117/5 111/116/5
f 116/122/5 112/117/5 115/121/5
f 117/123/6 118/124/6 119/125/6
f 119/125/6 118/124/6 120/126/6
f 121/127/6 122/128/6 123/129/6
f 123/129/6 122/128/6 124/130/6
f 125/131/6 123/129/6 126/132/6
f 123/133/6 124/134/6 127/135/6
f 126/132/6 123/129/6 127/136/6
f 124/130/6 128/137/6 129/138/6
f 127/135/6 124/134/6 129/139/6
f 129/138/6 128/137/6 130/140/6
f 127/136/6 129/138/6 131/141/6
f 131/141/6 129/138/6 132/142/6
