# MagicaVoxel @ Ephtracy

# group
g stage2

# material
mtllib stage2.mtl
usemtl palette

# normals
vn -1 0 0
vn 1 0 0
vn 0 0 1
vn 0 0 -1
vn 0 -1 0
vn 0 1 0

# texcoords
vt 0.373047 0.5
vt 0.884766 0.5

# verts
v -5 6 -1
v -5 6 -2
v -5 7 -1
v -5 7 -2
v -1 0 1
v -1 0 -0
v -1 0 -1
v -1 0 -2
v -1 3 1
v -1 3 -0
v -1 3 -1
v -1 4 -0
v -1 4 -1
v -1 6 -1
v -1 6 -2
v -1 7 -1
v -1 7 -2
v -1 8 -1
v -1 8 -2
v 0 0 1
v 0 0 -0
v 0 0 -1
v 0 0 -2
v 0 3 1
v 0 3 -0
v 0 3 -1
v 0 4 -0
v 0 4 -1
v 0 5 -1
v 0 5 -2
v 0 6 -1
v 0 6 -2
v 0 8 -1
v 0 8 -2
v 5 5 -1
v 5 5 -2
v 5 6 -1
v 5 6 -2
v -1 0 1
v -1 3 1
v 0 0 1
v 0 3 1
v -1 3 -0
v -1 4 -0
v 0 3 -0
v 0 4 -0
v -5 6 -1
v -5 7 -1
v -1 0 -1
v -1 3 -1
v -1 4 -1
v -1 6 -1
v -1 7 -1
v -1 8 -1
v 0 0 -1
v 0 3 -1
v 0 4 -1
v 0 5 -1
v 0 6 -1
v 0 8 -1
v 5 5 -1
v 5 6 -1
v -1 0 -0
v -1 3 -0
v 0 0 -0
v 0 3 -0
v -5 6 -2
v -5 7 -2
v -1 0 -2
v -1 6 -2
v -1 7 -2
v -1 8 -2
v 0 0 -2
v 0 5 -2
v 0 6 -2
v 0 8 -2
v 5 5 -2
v 5 6 -2
v -1 0 1
v 0 0 1
v -1 0 -0
v 0 0 -0
v -1 0 -1
v 0 0 -1
v -1 0 -2
v 0 0 -2
v -1 3 -0
v 0 3 -0
v -1 3 -1
v 0 3 -1
v 0 5 -1
v 5 5 -1
v 0 5 -2
v 5 5 -2
v -5 6 -1
v -1 6 -1
v -5 6 -2
v -1 6 -2
v -1 3 1
v 0 3 1
v -1 3 -0
v 0 3 -0
v -1 4 -0
v 0 4 -0
v -1 4 -1
v 0 4 -1
v 0 6 -1
v 5 6 -1
v 0 6 -2
v 5 6 -2
v -5 7 -1
v -1 7 -1
v -5 7 -2
v -1 7 -2
v -1 8 -1
v 0 8 -1
v -1 8 -2
v 0 8 -2

# faces
f 3/1/1 2/1/1 1/1/1
f 4/1/1 2/1/1 3/1/1
f 9/2/1 6/2/1 5/2/1
f 10/2/1 6/2/1 9/2/1
f 11/1/1 8/1/1 7/1/1
f 12/2/1 11/2/1 10/2/1
f 13/1/1 8/1/1 11/1/1
f 13/2/1 11/2/1 12/2/1
f 14/1/1 8/1/1 13/1/1
f 15/1/1 8/1/1 14/1/1
f 18/1/1 17/1/1 16/1/1
f 19/1/1 17/1/1 18/1/1
f 20/2/2 21/2/2 24/2/2
f 24/2/2 21/2/2 25/2/2
f 22/1/2 23/1/2 26/1/2
f 25/2/2 26/2/2 27/2/2
f 26/1/2 23/1/2 28/1/2
f 27/2/2 26/2/2 28/2/2
f 28/1/2 23/1/2 29/1/2
f 29/1/2 23/1/2 30/1/2
f 31/1/2 32/1/2 33/1/2
f 33/1/2 32/1/2 34/1/2
f 35/1/2 36/1/2 37/1/2
f 37/1/2 36/1/2 38/1/2
f 41/2/3 40/2/3 39/2/3
f 42/2/3 40/2/3 41/2/3
f 45/2/3 44/2/3 43/2/3
f 46/2/3 44/2/3 45/2/3
f 52/1/3 48/1/3 47/1/3
f 53/1/3 48/1/3 52/1/3
f 55/1/3 50/1/3 49/1/3
f 56/1/3 50/1/3 55/1/3
f 57/1/3 54/1/3 53/1/3
f 57/1/3 52/1/3 51/1/3
f 57/1/3 53/1/3 52/1/3
f 58/1/3 54/1/3 57/1/3
f 59/1/3 54/1/3 58/1/3
f 60/1/3 54/1/3 59/1/3
f 61/1/3 59/1/3 58/1/3
f 62/1/3 59/1/3 61/1/3
f 63/2/4 64/2/4 65/2/4
f 65/2/4 64/2/4 66/2/4
f 67/1/4 68/1/4 70/1/4
f 70/1/4 68/1/4 71/1/4
f 69/1/4 70/1/4 73/1/4
f 71/1/4 72/1/4 73/1/4
f 70/1/4 71/1/4 73/1/4
f 73/1/4 72/1/4 74/1/4
f 74/1/4 72/1/4 75/1/4
f 75/1/4 72/1/4 76/1/4
f 74/1/4 75/1/4 77/1/4
f 77/1/4 75/1/4 78/1/4
f 81/2/5 80/2/5 79/2/5
f 82/2/5 80/2/5 81/2/5
f 85/1/5 84/1/5 83/1/5
f 86/1/5 84/1/5 85/1/5
f 89/2/5 88/2/5 87/2/5
f 90/2/5 88/2/5 89/2/5
f 93/1/5 92/1/5 91/1/5
f 94/1/5 92/1/5 93/1/5
f 97/1/5 96/1/5 95/1/5
f 98/1/5 96/1/5 97/1/5
f 99/2/6 100/2/6 101/2/6
f 101/2/6 100/2/6 102/2/6
f 103/2/6 104/2/6 105/2/6
f 105/2/6 104/2/6 106/2/6
f 107/1/6 108/1/6 109/1/6
f 109/1/6 108/1/6 110/1/6
f 111/1/6 112/1/6 113/1/6
f 113/1/6 112/1/6 114/1/6
f 115/1/6 116/1/6 117/1/6
f 117/1/6 116/1/6 118/1/6
