# MagicaVoxel @ Ephtracy

# group
g stage5

# material
mtllib stage5.mtl
usemtl palette

# normals
vn -1 0 0
vn 1 0 0
vn 0 0 1
vn 0 0 -1
vn 0 -1 0
vn 0 1 0

# texcoords
vt 0.373047 0.5
vt 0.404297 0.5
vt 0.884766 0.5

# verts
v -5 6 1
v -5 6 -1
v -5 6 -2
v -5 7 1
v -5 7 -1
v -5 7 -2
v -5 8 -1
v -5 8 -2
v -4 4 -0
v -4 4 -1
v -4 5 -0
v -4 5 -1
v -3 3 1
v -3 3 -0
v -3 4 2
v -3 4 1
v -3 4 -0
v -3 5 2
v -3 5 -0
v -3 5 -1
v -3 6 -0
v -3 6 -1
v -2 9 -1
v -2 9 -2
v -2 10 -1
v -2 10 -2
v -1 0 1
v -1 0 -0
v -1 0 -1
v -1 0 -2
v -1 3 1
v -1 3 -0
v -1 3 -1
v -1 4 -0
v -1 4 -1
v -1 5 -0
v -1 5 -1
v -1 6 -0
v -1 6 -1
v -1 6 -2
v -1 7 1
v -1 7 -0
v -1 7 -1
v -1 7 -2
v -1 8 1
v -1 8 -1
v -1 8 -2
v -1 9 -1
v -1 9 -2
v 1 6 -1
v 1 6 -2
v 1 7 -1
v 1 7 -2
v 2 6 -0
v 2 6 -1
v 2 7 -0
v 2 7 -1
v 3 5 -0
v 3 5 -1
v 3 6 1
v 3 6 -0
v 3 6 -1
v 3 7 1
v 3 7 -0
v 3 7 -1
v 3 7 -2
v 3 8 -0
v 3 8 -2
v -4 6 1
v -4 6 -0
v -4 7 1
v -4 7 -0
v -2 3 1
v -2 3 -0
v -2 4 2
v -2 4 1
v -2 4 -0
v -2 5 2
v -2 5 1
v -2 5 -0
v -2 5 -1
v -2 6 -0
v -2 6 -1
v -2 7 -1
v -2 7 -2
v -2 8 -1
v -2 8 -2
v -1 4 1
v -1 4 -0
v -1 5 1
v -1 5 -0
v 0 0 1
v 0 0 -0
v 0 0 -1
v 0 0 -2
v 0 3 1
v 0 3 -0
v 0 3 -1
v 0 5 -0
v 0 5 -1
v 0 5 -2
v 0 6 -0
v 0 6 -1
v 0 6 -2
v 0 7 -0
v 0 7 -1
v 0 7 -2
v 0 9 -1
v 0 9 -2
v 0 10 -1
v 0 10 -2
v 1 5 -0
v 1 5 -1
v 1 6 -0
v 1 6 -1
v 1 7 1
v 1 7 -1
v 1 7 -2
v 1 8 1
v 1 8 -1
v 1 8 -2
v 2 8 -1
v 2 8 -2
v 2 9 -1
v 2 9 -2
v 4 5 -0
v 4 5 -1
v 4 6 1
v 4 6 -0
v 4 6 -1
v 4 7 1
v 4 7 -0
v 4 7 -1
v 4 7 -2
v 4 8 -0
v 4 8 -2
v 5 5 -1
v 5 5 -2
v 5 6 -1
v 5 6 -2
v 5 7 -1
v 5 7 -2
v -3 4 2
v -3 5 2
v -2 4 2
v -2 5 2
v -5 6 1
v -5 7 1
v -4 6 1
v -4 7 1
v -3 3 1
v -3 4 1
v -2 3 1
v -2 4 1
v -2 5 1
v -1 0 1
v -1 3 1
v -1 4 1
v -1 5 1
v -1 7 1
v -1 8 1
v 0 0 1
v 0 3 1
v 1 7 1
v 1 8 1
v 3 6 1
v 3 7 1
v 4 6 1
v 4 7 1
v -4 4 -0
v -4 5 -0
v -4 6 -0
v -4 7 -0
v -3 4 -0
v -3 5 -0
v -3 6 -0
v -2 5 -0
v -2 6 -0
v -1 3 -0
v -1 4 -0
v -1 5 -0
v -1 6 -0
v -1 7 -0
v 0 3 -0
v 0 5 -0
v 0 6 -0
v 0 7 -0
v 1 5 -0
v 1 6 -0
v 2 6 -0
v 2 7 -0
v 3 5 -0
v 3 6 -0
v 3 7 -0
v 3 8 -0
v 4 5 -0
v 4 6 -0
v 4 7 -0
v 4 8 -0
v -5 7 -1
v -5 8 -1
v -2 7 -1
v -2 8 -1
v -2 9 -1
v -2 10 -1
v -1 0 -1
v -1 3 -1
v -1 8 -1
v -1 9 -1
v 0 0 -1
v 0 3 -1
v 0 9 -1
v 0 10 -1
v 1 5 -1
v 1 6 -1
v 1 7 -1
v 1 8 -1
v 2 6 -1
v 2 7 -1
v 2 8 -1
v 2 9 -1
v 3 5 -1
v 3 6 -1
v 4 5 -1
v 4 6 -1
v 4 7 -1
v 5 5 -1
v 5 6 -1
v 5 7 -1
v -3 3 -0
v -3 4 -0
v -2 3 -0
v -2 4 -0
v -1 0 -0
v -1 3 -0
v 0 0 -0
v 0 3 -0
v -4 4 -1
v -4 5 -1
v -3 5 -1
v -3 6 -1
v -2 5 -1
v -2 6 -1
v -1 4 -1
v -1 5 -1
v -5 6 -2
v -5 7 -2
v -5 8 -2
v -2 7 -2
v -2 8 -2
v -2 9 -2
v -2 10 -2
v -1 0 -2
v -1 6 -2
v -1 7 -2
v -1 8 -2
v -1 9 -2
v 0 0 -2
v 0 5 -2
v 0 6 -2
v 0 7 -2
v 0 8 -2
v 0 9 -2
v 0 10 -2
v 1 6 -2
v 1 7 -2
v 1 8 -2
v 2 8 -2
v 2 9 -2
v 3 7 -2
v 3 8 -2
v 4 6 -2
v 4 7 -2
v 4 8 -2
v 5 5 -2
v 5 6 -2
v 5 7 -2
v -1 0 1
v 0 0 1
v -1 0 -0
v 0 0 -0
v -1 0 -1
v 0 0 -1
v -1 0 -2
v 0 0 -2
v -3 3 1
v -2 3 1
v -3 3 -0
v -2 3 -0
v -1 3 -0
v 0 3 -0
v -1 3 -1
v 0 3 -1
v -3 4 2
v -2 4 2
v -3 4 1
v -2 4 1
v -1 4 1
v -4 4 -0
v -3 4 -0
v -2 4 -0
v -1 4 -0
v -4 4 -1
v -1 4 -1
v 0 5 -0
v 1 5 -0
v 3 5 -0
v 4 5 -0
v 0 5 -1
v 1 5 -1
v 3 5 -1
v 4 5 -1
v 5 5 -1
v 0 5 -2
v 5 5 -2
v -5 6 1
v -4 6 1
v 3 6 1
v 4 6 1
v -4 6 -0
v -3 6 -0
v -2 6 -0
v -1 6 -0
v 2 6 -0
v 3 6 -0
v 4 6 -0
v -5 6 -1
v -3 6 -1
v -2 6 -1
v -1 6 -1
v 2 6 -1
v 3 6 -1
v -5 6 -2
v -1 6 -2
v -1 7 1
v 1 7 1
v -1 7 -0
v 0 7 -0
v 0 7 -1
v 1 7 -1
v 0 7 -2
v 1 7 -2
v 1 8 -1
v 2 8 -1
v 1 8 -2
v 2 8 -2
v -2 9 -1
v -1 9 -1
v -2 9 -2
v -1 9 -2
v -1 3 1
v 0 3 1
v -1 3 -0
v 0 3 -0
v -3 5 2
v -2 5 2
v -2 5 1
v -1 5 1
v -4 5 -0
v -3 5 -0
v -2 5 -0
v -1 5 -0
v -4 5 -1
v -3 5 -1
v -2 5 -1
v -1 5 -1
v 0 6 -0
v 1 6 -0
v 0 6 -1
v 1 6 -1
v 0 6 -2
v 1 6 -2
v -5 7 1
v -4 7 1
v 3 7 1
v 4 7 1
v -4 7 -0
v -1 7 -0
v 2 7 -0
v 3 7 -0
v 4 7 -0
v -5 7 -1
v -2 7 -1
v -1 7 -1
v 1 7 -1
v 2 7 -1
v 3 7 -1
v 4 7 -1
v 5 7 -1
v -2 7 -2
v -1 7 -2
v 1 7 -2
v 3 7 -2
v 4 7 -2
v 5 7 -2
v -1 8 1
v 1 8 1
v 3 8 -0
v 4 8 -0
v -5 8 -1
v -2 8 -1
v -1 8 -1
v 1 8 -1
v -5 8 -2
v -2 8 -2
v 3 8 -2
v 4 8 -2
v 0 9 -1
v 2 9 -1
v 0 9 -2
v 2 9 -2
v -2 10 -1
v 0 10 -1
v -2 10 -2
v 0 10 -2

# faces
f 4/3/1 2/3/1 1/3/1
f 5/1/1 3/1/1 2/1/1
f 5/3/1 2/3/1 4/3/1
f 6/1/1 3/1/1 5/1/1
f 7/3/1 6/3/1 5/3/1
f 8/3/1 6/3/1 7/3/1
f 11/2/1 10/2/1 9/2/1
f 12/2/1 10/2/1 11/2/1
f 16/2/1 14/2/1 13/2/1
f 17/2/1 14/2/1 16/2/1
f 18/2/1 16/2/1 15/2/1
f 18/2/1 17/2/1 16/2/1
f 19/2/1 17/2/1 18/2/1
f 21/2/1 20/2/1 19/2/1
f 22/2/1 20/2/1 21/2/1
f 25/3/1 24/3/1 23/3/1
f 26/3/1 24/3/1 25/3/1
f 31/3/1 28/3/1 27/3/1
f 32/3/1 28/3/1 31/3/1
f 33/1/1 30/1/1 29/1/1
f 34/3/1 33/3/1 32/3/1
f 35/1/1 30/1/1 33/1/1
f 35/3/1 33/3/1 34/3/1
f 37/1/1 30/1/1 35/1/1
f 38/3/1 37/3/1 36/3/1
f 39/1/1 30/1/1 37/1/1
f 39/3/1 37/3/1 38/3/1
f 40/1/1 30/1/1 39/1/1
f 45/3/1 42/3/1 41/3/1
f 45/3/1 43/3/1 42/3/1
f 46/1/1 44/1/1 43/1/1
f 46/3/1 43/3/1 45/3/1
f 47/1/1 44/1/1 46/1/1
f 48/3/1 47/3/1 46/3/1
f 49/3/1 47/3/1 48/3/1
f 52/3/1 51/3/1 50/3/1
f 53/3/1 51/3/1 52/3/1
f 56/2/1 55/2/1 54/2/1
f 57/2/1 55/2/1 56/2/1
f 61/2/1 59/2/1 58/2/1
f 62/2/1 59/2/1 61/2/1
f 63/2/1 61/2/1 60/2/1
f 64/2/1 61/2/1 63/2/1
f 67/3/1 65/3/1 64/3/1
f 67/3/1 66/3/1 65/3/1
f 68/3/1 66/3/1 67/3/1
f 69/3/2 70/3/2 71/3/2
f 71/3/2 70/3/2 72/3/2
f 73/2/2 74/2/2 76/2/2
f 76/2/2 74/2/2 77/2/2
f 75/2/2 76/2/2 78/2/2
f 78/2/2 76/2/2 79/2/2
f 80/2/2 81/2/2 82/2/2
f 82/2/2 81/2/2 83/2/2
f 84/3/2 85/3/2 86/3/2
f 86/3/2 85/3/2 87/3/2
f 88/2/2 89/2/2 90/2/2
f 90/2/2 89/2/2 91/2/2
f 92/3/2 93/3/2 96/3/2
f 96/3/2 93/3/2 97/3/2
f 94/1/2 95/1/2 98/1/2
f 97/3/2 98/3/2 99/3/2
f 98/1/2 95/1/2 100/1/2
f 99/3/2 98/3/2 100/3/2
f 100/1/2 95/1/2 101/1/2
f 102/3/2 103/3/2 105/3/2
f 103/1/2 104/1/2 106/1/2
f 105/3/2 103/3/2 106/3/2
f 106/1/2 104/1/2 107/1/2
f 108/3/2 109/3/2 110/3/2
f 110/3/2 109/3/2 111/3/2
f 112/3/2 113/3/2 114/3/2
f 114/3/2 113/3/2 115/3/2
f 116/3/2 117/3/2 119/3/2
f 117/3/2 118/3/2 119/3/2
f 119/3/2 118/3/2 120/3/2
f 120/3/2 118/3/2 121/3/2
f 122/3/2 123/3/2 124/3/2
f 124/3/2 123/3/2 125/3/2
f 126/2/2 127/2/2 129/2/2
f 129/2/2 127/2/2 130/2/2
f 128/2/2 129/2/2 131/2/2
f 129/2/2 130/2/2 131/2/2
f 131/2/2 130/2/2 132/2/2
f 132/2/2 130/2/2 133/2/2
f 132/3/2 133/3/2 135/3/2
f 133/3/2 134/3/2 135/3/2
f 135/3/2 134/3/2 136/3/2
f 137/1/2 138/1/2 139/1/2
f 139/1/2 138/1/2 140/1/2
f 139/2/2 140/2/2 141/2/2
f 141/2/2 140/2/2 142/2/2
f 145/2/3 144/2/3 143/2/3
f 146/2/3 144/2/3 145/2/3
f 149/3/3 148/3/3 147/3/3
f 150/3/3 148/3/3 149/3/3
f 153/2/3 152/2/3 151/2/3
f 154/2/3 152/2/3 153/2/3
f 158/2/3 155/2/3 154/2/3
f 159/2/3 155/2/3 158/2/3
f 162/3/3 157/3/3 156/3/3
f 163/3/3 157/3/3 162/3/3
f 164/3/3 161/3/3 160/3/3
f 165/3/3 161/3/3 164/3/3
f 168/2/3 167/2/3 166/2/3
f 169/2/3 167/2/3 168/2/3
f 174/2/3 171/2/3 170/2/3
f 175/2/3 171/2/3 174/2/3
f 176/3/3 173/3/3 172/3/3
f 177/2/3 176/2/3 175/2/3
f 178/3/3 173/3/3 176/3/3
f 178/2/3 176/2/3 177/2/3
f 182/3/3 173/3/3 178/3/3
f 183/3/3 173/3/3 182/3/3
f 184/3/3 181/3/3 180/3/3
f 184/3/3 180/3/3 179/3/3
f 184/3/3 183/3/3 182/3/3
f 184/3/3 182/3/3 181/3/3
f 185/3/3 183/3/3 184/3/3
f 186/3/3 183/3/3 185/3/3
f 187/3/3 183/3/3 186/3/3
f 188/3/3 186/3/3 185/3/3
f 189/3/3 186/3/3 188/3/3
f 193/2/3 191/2/3 190/2/3
f 194/2/3 191/2/3 193/2/3
f 196/2/3 193/2/3 192/2/3
f 197/2/3 193/2/3 196/2/3
f 198/3/3 195/3/3 194/3/3
f 199/3/3 195/3/3 198/3/3
f 202/3/3 201/3/3 200/3/3
f 203/3/3 201/3/3 202/3/3
f 209/3/3 205/3/3 204/3/3
f 210/1/3 207/1/3 206/1/3
f 211/1/3 207/1/3 210/1/3
f 212/3/3 209/3/3 208/3/3
f 212/3/3 205/3/3 209/3/3
f 213/3/3 205/3/3 212/3/3
f 217/3/3 212/3/3 208/3/3
f 218/3/3 216/3/3 215/3/3
f 218/1/3 215/1/3 214/1/3
f 219/3/3 216/3/3 218/3/3
f 220/3/3 212/3/3 217/3/3
f 221/3/3 212/3/3 220/3/3
f 222/1/3 218/1/3 214/1/3
f 223/1/3 218/1/3 222/1/3
f 227/1/3 225/1/3 224/1/3
f 228/2/3 226/2/3 225/2/3
f 228/1/3 225/1/3 227/1/3
f 229/2/3 226/2/3 228/2/3
f 230/2/4 231/2/4 232/2/4
f 232/2/4 231/2/4 233/2/4
f 234/3/4 235/3/4 236/3/4
f 236/3/4 235/3/4 237/3/4
f 238/2/4 239/2/4 240/2/4
f 238/2/4 240/2/4 242/2/4
f 240/2/4 241/2/4 242/2/4
f 242/2/4 241/2/4 243/2/4
f 238/2/4 242/2/4 244/2/4
f 244/2/4 242/2/4 245/2/4
f 246/1/4 247/1/4 249/1/4
f 247/3/4 248/3/4 249/3/4
f 249/3/4 248/3/4 250/3/4
f 246/1/4 249/1/4 254/1/4
f 254/1/4 249/1/4 255/1/4
f 251/3/4 252/3/4 257/3/4
f 255/1/4 256/1/4 258/1/4
f 253/1/4 254/1/4 258/1/4
f 254/1/4 255/1/4 258/1/4
f 258/1/4 256/1/4 259/1/4
f 259/1/4 256/1/4 260/1/4
f 260/1/4 256/1/4 261/1/4
f 256/3/4 257/3/4 262/3/4
f 261/1/4 256/1/4 262/1/4
f 257/3/4 252/3/4 263/3/4
f 262/3/4 257/3/4 263/3/4
f 263/3/4 252/3/4 264/3/4
f 259/1/4 260/1/4 265/1/4
f 261/3/4 262/3/4 266/3/4
f 262/3/4 263/3/4 266/3/4
f 266/3/4 263/3/4 267/3/4
f 267/3/4 263/3/4 268/3/4
f 268/3/4 263/3/4 269/3/4
f 265/3/4 266/3/4 270/3/4
f 259/1/4 265/1/4 272/1/4
f 270/3/4 271/3/4 272/3/4
f 265/3/4 270/3/4 272/3/4
f 272/3/4 271/3/4 273/3/4
f 273/3/4 271/3/4 274/3/4
f 259/1/4 272/1/4 275/1/4
f 272/2/4 273/2/4 276/2/4
f 275/1/4 272/1/4 276/1/4
f 276/2/4 273/2/4 277/2/4
f 280/3/5 279/3/5 278/3/5
f 281/3/5 279/3/5 280/3/5
f 284/1/5 283/1/5 282/1/5
f 285/1/5 283/1/5 284/1/5
f 288/2/5 287/2/5 286/2/5
f 289/2/5 287/2/5 288/2/5
f 292/3/5 291/3/5 290/3/5
f 293/3/5 291/3/5 292/3/5
f 296/2/5 295/2/5 294/2/5
f 297/2/5 295/2/5 296/2/5
f 301/2/5 298/2/5 297/2/5
f 302/2/5 298/2/5 301/2/5
f 303/2/5 300/2/5 299/2/5
f 303/2/5 301/2/5 300/2/5
f 303/2/5 302/2/5 301/2/5
f 304/2/5 302/2/5 303/2/5
f 309/3/5 306/3/5 305/3/5
f 310/3/5 306/3/5 309/3/5
f 311/2/5 308/2/5 307/2/5
f 312/2/5 308/2/5 311/2/5
f 314/1/5 310/1/5 309/1/5
f 314/1/5 313/1/5 312/1/5
f 314/1/5 312/1/5 311/1/5
f 314/1/5 311/1/5 310/1/5
f 315/1/5 313/1/5 314/1/5
f 320/3/5 317/3/5 316/3/5
f 325/2/5 319/2/5 318/2/5
f 326/2/5 319/2/5 325/2/5
f 327/3/5 320/3/5 316/3/5
f 327/3/5 321/3/5 320/3/5
f 328/3/5 321/3/5 327/3/5
f 329/3/5 323/3/5 322/3/5
f 330/3/5 323/3/5 329/3/5
f 331/2/5 325/2/5 324/2/5
f 332/2/5 325/2/5 331/2/5
f 333/1/5 328/1/5 327/1/5
f 333/1/5 330/1/5 329/1/5
f 333/1/5 329/1/5 328/1/5
f 334/1/5 330/1/5 333/1/5
f 337/3/5 336/3/5 335/3/5
f 338/3/5 336/3/5 337/3/5
f 339/3/5 336/3/5 338/3/5
f 340/3/5 336/3/5 339/3/5
f 341/3/5 340/3/5 339/3/5
f 342/3/5 340/3/5 341/3/5
f 345/3/5 344/3/5 343/3/5
f 346/3/5 344/3/5 345/3/5
f 349/3/5 348/3/5 347/3/5
f 350/3/5 348/3/5 349/3/5
f 351/3/6 352/3/6 353/3/6
f 353/3/6 352/3/6 354/3/6
f 355/2/6 356/2/6 357/2/6
f 355/2/6 357/2/6 360/2/6
f 357/2/6 358/2/6 360/2/6
f 360/2/6 358/2/6 361/2/6
f 361/2/6 358/2/6 362/2/6
f 359/2/6 360/2/6 363/2/6
f 363/2/6 360/2/6 364/2/6
f 361/2/6 362/2/6 365/2/6
f 365/2/6 362/2/6 366/2/6
f 367/3/6 368/3/6 369/3/6
f 369/3/6 368/3/6 370/3/6
f 369/1/6 370/1/6 371/1/6
f 371/1/6 370/1/6 372/1/6
f 373/3/6 374/3/6 377/3/6
f 375/2/6 376/2/6 380/2/6
f 380/2/6 376/2/6 381/2/6
f 377/3/6 378/3/6 382/3/6
f 373/3/6 377/3/6 382/3/6
f 382/3/6 378/3/6 383/3/6
f 383/3/6 378/3/6 384/3/6
f 379/2/6 380/2/6 386/2/6
f 386/2/6 380/2/6 387/2/6
f 383/1/6 384/1/6 390/1/6
f 390/1/6 384/1/6 391/1/6
f 386/3/6 387/3/6 392/3/6
f 385/3/6 386/3/6 392/3/6
f 392/3/6 387/3/6 393/3/6
f 388/2/6 389/2/6 394/2/6
f 394/2/6 389/2/6 395/2/6
f 396/3/6 397/3/6 402/3/6
f 402/3/6 397/3/6 403/3/6
f 400/3/6 401/3/6 404/3/6
f 404/3/6 401/3/6 405/3/6
f 398/3/6 399/3/6 406/3/6
f 406/3/6 399/3/6 407/3/6
f 408/3/6 409/3/6 410/3/6
f 410/3/6 409/3/6 411/3/6
f 412/3/6 413/3/6 414/3/6
f 414/3/6 413/3/6 415/3/6
