# Blender v2.77 (sub 0) OBJ File: ''
# www.blender.org
mtllib cathead.mtl
o Cat.001
v -2.454725 11.999998 4.500004
v -2.454725 10.999998 3.500004
v -2.454725 10.999998 8.500004
v -2.454725 11.999998 3.500004
v -2.454725 12.999998 4.500004
v -2.454725 12.999998 3.500004
v -2.454725 14.999998 8.500006
v -2.454725 14.999998 6.500004
v -2.454725 14.999998 5.500004
v -2.454725 14.999998 3.500004
v -2.454725 15.999998 6.500004
v -2.454725 15.999998 5.500004
v 0.545275 15.999998 6.500004
v 0.545275 14.999998 5.500004
v 0.545275 14.999998 6.500004
v 0.545275 15.999998 5.500004
v -0.454725 14.999998 6.500004
v -0.454725 14.999998 5.500004
v -0.454725 15.999998 6.500004
v -0.454725 15.999998 5.500004
v 2.545275 10.999998 8.500004
v 2.545275 10.999998 3.500004
v 2.545275 11.999998 5.500004
v 2.545275 11.999998 4.500004
v 2.545275 12.999998 6.500004
v 2.545275 12.999998 5.500004
v 2.545275 13.999998 6.500004
v 2.545275 13.999998 4.500004
v 2.545275 14.999998 8.500006
v 2.545275 14.999998 6.500004
v 2.545275 14.999998 5.500004
v 2.545275 14.999998 3.500004
v 2.545275 15.999998 6.500004
v 2.545275 15.999998 5.500004
v -1.454725 12.999998 8.500004
v -2.454725 14.999998 8.500006
v -2.454725 10.999998 8.500004
v -1.454725 13.999998 8.500004
v -0.454725 11.999998 8.500004
v -0.454725 12.999998 8.500004
v -0.454725 13.999998 8.500004
v 0.545275 11.999998 8.500004
v 0.545275 12.999998 8.500004
v 0.545275 13.999998 8.500004
v 1.545275 12.999998 8.500004
v 1.545275 13.999998 8.500004
v 2.545275 10.999998 8.500004
v 2.545275 14.999998 8.500006
v -1.454725 14.999998 6.500004
v -2.454725 15.999998 6.500004
v -2.454725 14.999998 6.500004
v -0.454725 14.999998 6.500004
v -0.454725 15.999998 6.500004
v 2.545275 14.999998 6.500004
v 0.545275 15.999998 6.500004
v 0.545275 14.999998 6.500004
v 2.545275 15.999998 6.500004
v -2.454725 14.999998 5.500004
v -2.454725 15.999998 5.500004
v -0.454725 14.999998 5.500004
v -0.454725 15.999998 5.500004
v 0.545275 14.999998 5.500004
v 0.545275 15.999998 5.500004
v 1.545275 14.999998 5.500004
v 2.545275 14.999998 5.500004
v 2.545275 15.999998 5.500004
v -2.454725 11.999998 3.500004
v -2.454725 12.999998 3.500004
v -1.454725 12.999998 3.500004
v -2.454725 14.999998 3.500004
v -1.454725 13.999998 3.500004
v -2.454725 10.999998 3.500004
v -0.454725 10.999998 3.500004
v -0.454725 11.999998 3.500004
v -0.454725 13.999998 3.500004
v -0.454725 14.999998 3.500004
v 0.545275 10.999998 3.500004
v 0.545275 13.999998 3.500004
v 1.545275 13.999998 3.500004
v 1.545275 14.999998 3.500004
v 2.545275 10.999998 3.500004
v 2.545275 14.999998 3.500004
v -0.454725 10.999998 4.500004
v 2.545275 10.999998 8.500004
v -2.454725 10.999998 8.500004
v 0.545275 10.999998 4.500004
v -2.454725 10.999998 3.500004
v -0.454725 10.999998 3.500004
v 0.545275 10.999998 3.500004
v 2.545275 10.999998 3.500004
v -2.454725 14.999998 8.500006
v 2.545275 14.999998 8.500006
v -1.454725 14.999998 7.500004
v 0.545275 14.999998 7.500004
v -2.454725 14.999998 6.500004
v -1.454725 14.999998 6.500004
v -0.454725 14.999998 6.500004
v 0.545275 14.999998 6.500004
v 2.545275 14.999998 6.500004
v -0.454725 14.999998 5.500004
v 0.545275 14.999998 5.500004
v -2.454725 14.999998 5.500004
v -2.454725 14.999998 3.500004
v -0.454725 14.999998 3.500004
v 1.545275 14.999998 5.500004
v 2.545275 14.999998 5.500004
v 1.545275 14.999998 3.500004
v 2.545275 14.999998 3.500004
v -2.454725 15.999998 6.500004
v -0.454725 15.999998 6.500004
v -2.454725 15.999998 5.500004
v -0.454725 15.999998 5.500004
v 0.545275 15.999998 6.500004
v 2.545275 15.999998 6.500004
v 0.545275 15.999998 5.500004
v 2.545275 15.999998 5.500004
vt 0.9785 0.5000
vt 0.9785 0.5000
vt 0.9785 0.5000
vt 0.9785 0.5000
vt 0.9785 0.5000
vt 0.9824 0.5000
vt 0.9824 0.5000
vt 0.9824 0.5000
vt 0.9824 0.5000
vt 0.9785 0.5000
vt 0.9785 0.5000
vt 0.9785 0.5000
vt 0.9785 0.5000
vt 0.9785 0.5000
vt 0.9785 0.5000
vt 0.9785 0.5000
vt 0.9785 0.5000
vt 0.9785 0.5000
vt 0.9785 0.5000
vt 0.9785 0.5000
vt 0.9785 0.5000
vt 0.9785 0.5000
vt 0.9785 0.5000
vt 0.9785 0.5000
vt 0.9785 0.5000
vt 0.9785 0.5000
vt 0.9785 0.5000
vt 0.9785 0.5000
vt 0.9785 0.5000
vt 0.9824 0.5000
vt 0.9824 0.5000
vt 0.9824 0.5000
vt 0.9785 0.5000
vt 0.9785 0.5000
vt 0.9824 0.5000
vt 0.9824 0.5000
vt 0.9785 0.5000
vt 0.9824 0.5000
vt 0.9785 0.5000
vt 0.9785 0.5000
vt 0.9785 0.5000
vt 0.9785 0.5000
vt 0.9785 0.5000
vt 0.9785 0.5000
vt 0.9785 0.5000
vt 0.9785 0.5000
vt 0.9785 0.5000
vt 0.9785 0.5000
vt 0.9785 0.5000
vt 0.9941 0.5000
vt 0.9941 0.5000
vt 0.9941 0.5000
vt 0.9785 0.5000
vt 0.9785 0.5000
vt 0.9941 0.5000
vt 0.0254 0.5000
vt 0.0254 0.5000
vt 0.0254 0.5000
vt 0.9785 0.5000
vt 0.9785 0.5000
vt 0.0254 0.5000
vt 0.9785 0.5000
vt 0.9785 0.5000
vt 0.9941 0.5000
vt 0.9941 0.5000
vt 0.9941 0.5000
vt 0.9785 0.5000
vt 0.9941 0.5000
vt 0.9785 0.5000
vt 0.9785 0.5000
vt 0.9785 0.5000
vt 0.9785 0.5000
vt 0.9785 0.5000
vt 0.9785 0.5000
vt 0.9785 0.5000
vt 0.9785 0.5000
vt 0.9785 0.5000
vt 0.9785 0.5000
vt 0.9785 0.5000
vt 0.9785 0.5000
vt 0.9785 0.5000
vt 0.9785 0.5000
vt 0.9785 0.5000
vt 0.9785 0.5000
vt 0.9785 0.5000
vt 0.9785 0.5000
vt 0.9785 0.5000
vt 0.9785 0.5000
vt 0.9824 0.5000
vt 0.9824 0.5000
vt 0.9824 0.5000
vt 0.9785 0.5000
vt 0.9785 0.5000
vt 0.9785 0.5000
vt 0.9785 0.5000
vt 0.9785 0.5000
vt 0.9785 0.5000
vt 0.9785 0.5000
vt 0.9824 0.5000
vt 0.9785 0.5000
vt 0.9824 0.5000
vt 0.9785 0.5000
vt 0.9824 0.5000
vt 0.9785 0.5000
vt 0.9824 0.5000
vt 0.9824 0.5000
vt 0.9824 0.5000
vt 0.9824 0.5000
vt 0.9785 0.5000
vt 0.9785 0.5000
vt 0.9785 0.5000
vt 0.9824 0.5000
vt 0.9824 0.5000
vt 0.9785 0.5000
vt 0.9785 0.5000
vt 0.9785 0.5000
vt 0.9785 0.5000
vt 0.9785 0.5000
vt 0.9785 0.5000
vt 0.9785 0.5000
vt 0.9785 0.5000
vt 0.9824 0.5000
vt 0.9824 0.5000
vt 0.9824 0.5000
vt 0.9785 0.5000
vt 0.9785 0.5000
vt 0.9824 0.5000
vt 0.9785 0.5000
vt 0.9785 0.5000
vt 0.9785 0.5000
vt 0.9785 0.5000
vt 0.9785 0.5000
vt 0.9785 0.5000
vt 0.9824 0.5000
vt 0.9824 0.5000
vt 0.9824 0.5000
vt 0.9785 0.5000
vt 0.9824 0.5000
vt 0.9785 0.5000
vt 0.9824 0.5000
vt 0.9785 0.5000
vt 0.9824 0.5000
vt 0.9824 0.5000
vt 0.9785 0.5000
vt 0.9785 0.5000
vt 0.9785 0.5000
vt 0.9824 0.5000
vt 0.9785 0.5000
vt 0.9824 0.5000
vt 0.9785 0.5000
vt 0.9785 0.5000
vt 0.9785 0.5000
vt 0.9824 0.5000
vt 0.9785 0.5000
vt 0.9785 0.5000
vt 0.9785 0.5000
vt 0.9785 0.5000
vt 0.9785 0.5000
vt 0.9785 0.5000
vt 0.9785 0.5000
vt 0.9785 0.5000
vt 0.9785 0.5000
vn -1.0000 0.0000 0.0000
vn 1.0000 0.0000 0.0000
vn 0.0000 -0.0000 1.0000
vn 0.0000 0.0000 -1.0000
vn 0.0000 -1.0000 0.0000
vn 0.0000 1.0000 0.0000
usemtl palette.003
s 1
f 1/1/1 2/2/1 3/3/1
f 4/4/1 2/2/1 1/1/1
f 5/5/1 1/1/1 3/3/1
f 5/6/1 4/7/1 1/8/1
f 6/9/1 4/7/1 5/6/1
f 7/10/1 5/5/1 3/3/1
f 7/10/1 6/11/1 5/5/1
f 8/12/1 6/11/1 7/10/1
f 9/13/1 6/11/1 8/12/1
f 10/14/1 6/11/1 9/13/1
f 11/15/1 9/13/1 8/12/1
f 12/16/1 9/13/1 11/15/1
f 13/17/1 14/18/1 15/19/1
f 16/20/1 14/18/1 13/17/1
f 17/21/2 18/22/2 19/23/2
f 19/23/2 18/22/2 20/24/2
f 21/25/2 22/26/2 23/27/2
f 23/27/2 22/26/2 24/28/2
f 21/25/2 23/27/2 25/29/2
f 23/30/2 24/31/2 26/32/2
f 25/29/2 23/27/2 26/33/2
f 21/25/2 25/29/2 27/34/2
f 25/35/2 26/32/2 27/36/2
f 24/28/2 22/26/2 28/37/2
f 27/36/2 26/32/2 28/38/2
f 26/32/2 24/31/2 28/38/2
f 21/25/2 27/34/2 29/39/2
f 27/34/2 28/37/2 29/39/2
f 29/39/2 28/37/2 30/40/2
f 30/40/2 28/37/2 31/41/2
f 28/37/2 22/26/2 32/42/2
f 31/41/2 28/37/2 32/42/2
f 30/40/2 31/41/2 33/43/2
f 33/43/2 31/41/2 34/44/2
f 35/45/3 36/46/3 37/47/3
f 38/48/3 36/46/3 35/45/3
f 39/49/3 35/45/3 37/47/3
f 40/50/3 38/51/3 35/52/3
f 40/53/3 35/45/3 39/49/3
f 41/54/3 36/46/3 38/48/3
f 41/55/3 38/51/3 40/50/3
f 42/56/3 40/57/3 39/58/3
f 42/59/3 39/49/3 37/47/3
f 43/60/3 41/54/3 40/53/3
f 43/61/3 40/57/3 42/56/3
f 44/62/3 36/46/3 41/54/3
f 44/62/3 41/54/3 43/60/3
f 45/63/3 43/60/3 42/59/3
f 45/64/3 44/65/3 43/66/3
f 46/67/3 36/46/3 44/62/3
f 46/68/3 44/65/3 45/64/3
f 47/69/3 45/63/3 42/59/3
f 47/69/3 42/59/3 37/47/3
f 47/69/3 46/67/3 45/63/3
f 48/70/3 36/46/3 46/67/3
f 48/70/3 46/67/3 47/69/3
f 49/71/3 50/72/3 51/73/3
f 52/74/3 50/72/3 49/71/3
f 53/75/3 50/72/3 52/74/3
f 54/76/3 55/77/3 56/78/3
f 57/79/3 55/77/3 54/76/3
f 58/80/4 59/81/4 60/82/4
f 60/82/4 59/81/4 61/83/4
f 62/84/4 63/85/4 64/86/4
f 64/86/4 63/85/4 65/87/4
f 65/87/4 63/85/4 66/88/4
f 67/89/4 68/90/4 69/91/4
f 68/92/4 70/93/4 69/94/4
f 69/94/4 70/93/4 71/95/4
f 72/96/4 67/97/4 73/98/4
f 67/89/4 69/91/4 74/99/4
f 73/98/4 67/97/4 74/100/4
f 69/91/4 71/101/4 74/99/4
f 71/95/4 70/93/4 75/102/4
f 74/99/4 71/101/4 75/103/4
f 75/102/4 70/93/4 76/104/4
f 73/105/4 74/99/4 77/106/4
f 74/99/4 75/103/4 77/106/4
f 75/103/4 76/107/4 77/106/4
f 77/106/4 76/107/4 78/108/4
f 77/109/4 78/110/4 79/111/4
f 78/108/4 76/107/4 79/112/4
f 79/112/4 76/107/4 80/113/4
f 77/109/4 79/111/4 81/114/4
f 79/111/4 80/115/4 81/114/4
f 81/114/4 80/115/4 82/116/4
f 83/117/5 84/118/5 85/119/5
f 86/120/5 84/118/5 83/117/5
f 87/121/5 83/117/5 85/119/5
f 88/122/5 86/123/5 83/124/5
f 88/125/5 83/117/5 87/121/5
f 89/126/5 84/118/5 86/120/5
f 89/127/5 86/123/5 88/122/5
f 90/128/5 84/118/5 89/126/5
f 91/129/6 92/130/6 93/131/6
f 93/131/6 92/130/6 94/132/6
f 91/129/6 93/131/6 95/133/6
f 93/134/6 94/135/6 96/136/6
f 95/133/6 93/131/6 96/137/6
f 96/136/6 94/135/6 97/138/6
f 94/132/6 92/130/6 98/139/6
f 97/138/6 94/135/6 98/140/6
f 98/139/6 92/130/6 99/141/6
f 97/138/6 98/140/6 100/142/6
f 100/142/6 98/140/6 101/143/6
f 102/144/6 100/145/6 103/146/6
f 100/142/6 101/143/6 104/147/6
f 103/146/6 100/145/6 104/148/6
f 101/143/6 105/149/6 104/147/6
f 105/150/6 106/151/6 107/152/6
f 104/147/6 105/149/6 107/153/6
f 107/152/6 106/151/6 108/154/6
f 109/155/6 110/156/6 111/157/6
f 111/157/6 110/156/6 112/158/6
f 113/159/6 114/160/6 115/161/6
f 115/161/6 114/160/6 116/162/6
