# Blender v2.77 (sub 0) OBJ File: ''
# www.blender.org
mtllib wizardstaff.mtl
o SamAsWizard
v -13.000000 16.999996 24.000002
v -13.000000 15.999996 22.000002
v -13.000000 15.999996 24.000002
v -13.000000 16.999996 22.000002
v -13.000000 18.999996 24.000004
v -13.000000 17.999996 24.000004
v -13.000000 17.999996 25.000004
v -13.000000 18.999996 21.000004
v -13.000000 15.999997 20.000002
v -13.000000 15.999996 21.000002
v -13.000000 19.999996 25.000004
v -13.000000 19.999996 20.000004
v -12.000000 16.999996 22.000002
v -12.000000 15.999996 21.000002
v -12.000000 15.999996 22.000002
v -12.000000 16.999996 21.000002
v -12.000000 17.999996 23.000004
v -12.000000 16.999996 23.000002
v -12.000000 18.000002 -14.999997
v -12.000000 17.000002 -14.999997
v -12.000000 17.000000 -4.999997
v -12.000000 17.000002 -15.999997
v -12.000000 18.000002 -15.999997
v -12.000000 17.000004 -17.999998
v -12.000000 18.999996 26.000004
v -12.000000 17.999996 25.000004
v -12.000000 17.999996 26.000004
v -12.000000 18.999996 25.000004
v -12.000000 18.999996 24.000004
v -12.000000 17.999996 24.000004
v -12.000000 18.999996 23.000004
v -12.000000 18.999996 21.000004
v -12.000000 18.999996 20.000004
v -12.000000 17.000000 4.000003
v -12.000000 16.999996 20.000002
v -12.000000 19.000000 4.000003
v -12.000000 19.000000 -4.999997
v -12.000000 19.000002 -14.999997
v -12.000000 19.000002 -15.999997
v -12.000000 19.000004 -17.999996
v -10.000000 16.999996 24.000002
v -10.000000 15.999996 21.000002
v -10.000000 15.999996 24.000002
v -10.000000 16.999996 23.000002
v -10.000000 16.999996 21.000002
v -10.000000 17.999996 25.000004
v -10.000000 16.999996 25.000002
v -10.000000 17.999996 23.000004
v -12.000000 15.999996 24.000002
v -12.000000 15.999996 23.000002
v -12.000000 16.999996 24.000002
v -12.000000 16.999996 23.000002
v -12.000000 18.999996 25.000004
v -12.000000 18.999996 23.000004
v -12.000000 19.999996 25.000004
v -12.000000 18.999996 21.000004
v -12.000000 19.999996 21.000004
v -11.000000 15.999996 23.000002
v -11.000000 15.999996 21.000002
v -11.000000 16.999996 23.000002
v -11.000000 16.999996 21.000002
v -11.000000 17.999996 26.000004
v -11.000000 17.999996 23.000004
v -11.000000 18.999996 26.000004
v -11.000000 18.999996 23.000004
v -10.000000 16.999996 23.000002
v -10.000000 16.999996 21.000002
v -10.000000 17.999996 23.000004
v -10.000000 17.000000 -4.999997
v -10.000000 17.000002 -14.999997
v -10.000000 18.000002 -14.999997
v -10.000000 17.000002 -15.999997
v -10.000000 17.000004 -17.999998
v -10.000000 18.000002 -15.999997
v -10.000000 18.999996 23.000004
v -10.000000 18.999996 21.000004
v -10.000000 16.999996 20.000002
v -10.000000 17.000000 4.000003
v -10.000000 18.999996 20.000004
v -10.000000 19.000000 4.000003
v -10.000000 19.000000 -4.999997
v -10.000000 19.000002 -14.999997
v -10.000000 19.000002 -15.999997
v -10.000000 19.000004 -17.999996
v -9.000000 15.999996 24.000002
v -9.000000 15.999997 20.000002
v -9.000000 16.999996 24.000002
v -9.000000 16.999996 23.000002
v -9.000000 16.999996 21.000002
v -9.000000 16.999996 25.000002
v -9.000000 17.999996 25.000004
v -9.000000 17.999996 23.000004
v -9.000000 19.999996 21.000004
v -9.000000 19.999996 20.000004
v -11.000000 17.999996 26.000004
v -12.000000 18.999996 26.000004
v -12.000000 17.999996 26.000004
v -11.000000 18.999996 26.000004
v -12.000000 17.999996 25.000004
v -13.000000 19.999996 25.000004
v -13.000000 17.999996 25.000004
v -12.000000 18.999996 25.000004
v -12.000000 19.999996 25.000004
v -9.000000 16.999996 25.000002
v -10.000000 17.999996 25.000004
v -10.000000 16.999996 25.000002
v -9.000000 17.999996 25.000004
v -12.000000 15.999996 24.000002
v -13.000000 16.999996 24.000002
v -13.000000 15.999996 24.000002
v -12.000000 16.999996 24.000002
v -9.000000 15.999996 24.000002
v -10.000000 16.999996 24.000002
v -10.000000 15.999996 24.000002
v -9.000000 16.999996 24.000002
v -11.000000 15.999996 23.000002
v -12.000000 16.999996 23.000002
v -12.000000 15.999996 23.000002
v -11.000000 16.999996 23.000002
v -12.000000 17.999996 23.000004
v -11.000000 17.999996 23.000004
v -10.000000 16.999996 23.000002
v -11.000000 18.999996 23.000004
v -10.000000 17.999996 23.000004
v -10.000000 18.999996 23.000004
v -12.000000 15.999996 21.000002
v -13.000000 18.999996 21.000004
v -13.000000 15.999996 21.000002
v -12.000000 16.999996 21.000002
v -12.000000 18.999996 21.000004
v -10.000000 15.999996 21.000002
v -11.000000 16.999996 21.000002
v -11.000000 15.999996 21.000002
v -10.000000 16.999996 21.000002
v -10.000000 18.999996 21.000004
v -12.000000 19.999996 21.000004
v -9.000000 16.999996 21.000002
v -9.000000 19.999996 21.000004
v -10.000000 17.000000 -4.999997
v -12.000000 19.000000 -4.999997
v -12.000000 17.000000 -4.999997
v -10.000000 19.000000 -4.999997
v -13.000000 17.999996 24.000004
v -13.000000 18.999996 24.000004
v -12.000000 17.999996 24.000004
v -12.000000 18.999996 24.000004
v -10.000000 16.999996 23.000002
v -10.000000 17.999996 23.000004
v -9.000000 16.999996 23.000002
v -9.000000 17.999996 23.000004
v -13.000000 15.999996 22.000002
v -13.000000 16.999996 22.000002
v -12.000000 15.999996 22.000002
v -12.000000 16.999996 22.000002
v -13.000000 15.999997 20.000002
v -13.000000 19.999996 20.000004
v -12.000000 16.999996 20.000002
v -12.000000 18.999996 20.000004
v -10.000000 16.999996 20.000002
v -10.000000 18.999996 20.000004
v -9.000000 15.999997 20.000002
v -9.000000 19.999996 20.000004
v -12.000000 17.000000 4.000003
v -12.000000 19.000000 4.000003
v -10.000000 17.000000 4.000003
v -10.000000 19.000000 4.000003
v -12.000000 17.000004 -17.999998
v -12.000000 19.000004 -17.999996
v -10.000000 17.000004 -17.999998
v -10.000000 19.000004 -17.999996
v -12.000000 15.999996 23.000002
v -12.000000 15.999996 24.000002
v -13.000000 15.999996 24.000002
v -13.000000 15.999996 22.000002
v -11.000000 15.999996 23.000002
v -12.000000 15.999996 22.000002
v -12.000000 15.999996 21.000002
v -11.000000 15.999996 21.000002
v -10.000000 15.999996 21.000002
v -9.000000 15.999996 24.000002
v -10.000000 15.999996 24.000002
v -13.000000 15.999997 20.000002
v -13.000000 15.999996 21.000002
v -9.000000 15.999997 20.000002
v -10.000000 16.999996 24.000002
v -9.000000 16.999996 25.000002
v -10.000000 16.999996 25.000002
v -9.000000 16.999996 24.000002
v -11.000000 16.999996 21.000002
v -10.000000 16.999996 23.000002
v -11.000000 16.999996 23.000002
v -10.000000 16.999996 21.000002
v -12.000000 17.000000 4.000003
v -10.000000 16.999996 20.000002
v -12.000000 16.999996 20.000002
v -10.000000 17.000000 4.000003
v -12.000000 17.000002 -14.999997
v -10.000000 17.000000 -4.999997
v -12.000000 17.000000 -4.999997
v -11.000000 17.000002 -14.999997
v -10.000000 17.000002 -14.999997
v -12.000000 17.000002 -15.999997
v -11.000000 17.000002 -15.999997
v -10.000000 17.000002 -15.999997
v -12.000000 17.000004 -17.999998
v -10.000000 17.000004 -17.999998
v -12.000000 17.999996 25.000004
v -11.000000 17.999996 26.000004
v -12.000000 17.999996 26.000004
v -13.000000 17.999996 24.000004
v -13.000000 17.999996 25.000004
v -12.000000 17.999996 24.000004
v -12.000000 17.999996 23.000004
v -11.000000 17.999996 23.000004
v -12.000000 18.999996 23.000004
v -12.000000 18.999996 24.000004
v -13.000000 18.999996 24.000004
v -13.000000 18.999996 21.000004
v -12.000000 18.999996 21.000004
v -13.000000 16.999996 24.000002
v -12.000000 16.999996 24.000002
v -12.000000 16.999996 23.000002
v -13.000000 16.999996 22.000002
v -12.000000 16.999996 22.000002
v -10.000000 16.999996 23.000002
v -9.000000 16.999996 23.000002
v -10.000000 16.999996 21.000002
v -9.000000 16.999996 21.000002
v -10.000000 17.999996 25.000004
v -9.000000 17.999996 25.000004
v -10.000000 17.999996 23.000004
v -9.000000 17.999996 23.000004
v -12.000000 18.999996 26.000004
v -11.000000 18.999996 26.000004
v -12.000000 18.999996 25.000004
v -12.000000 18.999996 23.000004
v -11.000000 18.999996 23.000004
v -12.000000 18.999996 21.000004
v -10.000000 18.999996 23.000004
v -10.000000 18.999996 21.000004
v -12.000000 18.999996 20.000004
v -10.000000 18.999996 20.000004
v -12.000000 19.000000 4.000003
v -10.000000 19.000000 4.000003
v -12.000000 19.000000 -4.999997
v -10.000000 19.000000 -4.999997
v -12.000000 19.000002 -14.999997
v -11.000000 19.000002 -14.999997
v -10.000000 19.000002 -14.999997
v -12.000000 19.000002 -15.999997
v -11.000000 19.000002 -15.999997
v -10.000000 19.000002 -15.999997
v -12.000000 19.000004 -17.999996
v -10.000000 19.000004 -17.999996
v -13.000000 19.999996 25.000004
v -12.000000 19.999996 25.000004
v -12.000000 19.999996 21.000004
v -13.000000 19.999996 20.000004
v -9.000000 19.999996 21.000004
v -9.000000 19.999996 20.000004
vt 0.9941 0.5000
vt 0.9941 0.5000
vt 0.9941 0.5000
vt 0.9941 0.5000
vt 0.9941 0.5000
vt 0.9941 0.5000
vt 0.9941 0.5000
vt 0.9941 0.5000
vt 0.9941 0.5000
vt 0.9941 0.5000
vt 0.9941 0.5000
vt 0.9941 0.5000
vt 0.9941 0.5000
vt 0.9941 0.5000
vt 0.9941 0.5000
vt 0.9941 0.5000
vt 0.8809 0.5000
vt 0.8809 0.5000
vt 0.8809 0.5000
vt 0.8809 0.5000
vt 0.9941 0.5000
vt 0.9941 0.5000
vt 0.9941 0.5000
vt 0.9043 0.5000
vt 0.9043 0.5000
vt 0.9043 0.5000
vt 0.9941 0.5000
vt 0.9941 0.5000
vt 0.9941 0.5000
vt 0.9043 0.5000
vt 0.9941 0.5000
vt 0.9941 0.5000
vt 0.9941 0.5000
vt 0.9941 0.5000
vt 0.9941 0.5000
vt 0.9941 0.5000
vt 0.9941 0.5000
vt 0.8809 0.5000
vt 0.9941 0.5000
vt 0.8809 0.5000
vt 0.9941 0.5000
vt 0.9941 0.5000
vt 0.9941 0.5000
vt 0.9941 0.5000
vt 0.9941 0.5000
vt 0.8809 0.5000
vt 0.8809 0.5000
vt 0.8809 0.5000
vt 0.9941 0.5000
vt 0.9941 0.5000
vt 0.8809 0.5000
vt 0.9941 0.5000
vt 0.9941 0.5000
vt 0.9941 0.5000
vt 0.9941 0.5000
vt 0.9941 0.5000
vt 0.9941 0.5000
vt 0.9941 0.5000
vt 0.9941 0.5000
vt 0.9941 0.5000
vt 0.9941 0.5000
vt 0.9941 0.5000
vt 0.9941 0.5000
vt 0.9941 0.5000
vt 0.9941 0.5000
vt 0.9941 0.5000
vt 0.9941 0.5000
vt 0.9941 0.5000
vt 0.9941 0.5000
vt 0.9941 0.5000
vt 0.9941 0.5000
vt 0.9941 0.5000
vt 0.9941 0.5000
vt 0.9941 0.5000
vt 0.9941 0.5000
vt 0.9941 0.5000
vt 0.9941 0.5000
vt 0.8809 0.5000
vt 0.8809 0.5000
vt 0.8809 0.5000
vt 0.9941 0.5000
vt 0.9941 0.5000
vt 0.9941 0.5000
vt 0.8809 0.5000
vt 0.8809 0.5000
vt 0.8809 0.5000
vt 0.9941 0.5000
vt 0.9941 0.5000
vt 0.9941 0.5000
vt 0.8809 0.5000
vt 0.8809 0.5000
vt 0.8809 0.5000
vt 0.9941 0.5000
vt 0.9941 0.5000
vt 0.9941 0.5000
vt 0.9941 0.5000
vt 0.9941 0.5000
vt 0.9043 0.5000
vt 0.9043 0.5000
vt 0.9043 0.5000
vt 0.9941 0.5000
vt 0.9941 0.5000
vt 0.9043 0.5000
vt 0.9941 0.5000
vt 0.9941 0.5000
vt 0.9941 0.5000
vt 0.9941 0.5000
vt 0.9941 0.5000
vt 0.9941 0.5000
vt 0.9941 0.5000
vt 0.9941 0.5000
vt 0.9941 0.5000
vt 0.9941 0.5000
vt 0.9941 0.5000
vt 0.9941 0.5000
vt 0.9941 0.5000
vt 0.9941 0.5000
vt 0.9941 0.5000
vt 0.9941 0.5000
vt 0.9941 0.5000
vt 0.9941 0.5000
vt 0.9941 0.5000
vt 0.9941 0.5000
vt 0.9941 0.5000
vt 0.9941 0.5000
vt 0.9941 0.5000
vt 0.9941 0.5000
vt 0.9941 0.5000
vt 0.9941 0.5000
vt 0.9941 0.5000
vt 0.9941 0.5000
vt 0.9941 0.5000
vt 0.9941 0.5000
vt 0.9941 0.5000
vt 0.9941 0.5000
vt 0.9941 0.5000
vt 0.9941 0.5000
vt 0.9941 0.5000
vt 0.8809 0.5000
vt 0.8809 0.5000
vt 0.8809 0.5000
vt 0.9941 0.5000
vt 0.8809 0.5000
vt 0.8809 0.5000
vt 0.8809 0.5000
vt 0.8809 0.5000
vt 0.8809 0.5000
vt 0.9941 0.5000
vt 0.9941 0.5000
vt 0.9941 0.5000
vt 0.9941 0.5000
vt 0.9941 0.5000
vt 0.9941 0.5000
vt 0.9941 0.5000
vt 0.9941 0.5000
vt 0.9941 0.5000
vt 0.9941 0.5000
vt 0.9941 0.5000
vt 0.9941 0.5000
vt 0.9941 0.5000
vt 0.9941 0.5000
vt 0.9941 0.5000
vt 0.9941 0.5000
vt 0.9941 0.5000
vt 0.9941 0.5000
vt 0.9941 0.5000
vt 0.9941 0.5000
vt 0.9941 0.5000
vt 0.9941 0.5000
vt 0.9941 0.5000
vt 0.9941 0.5000
vt 0.9941 0.5000
vt 0.9941 0.5000
vt 0.9941 0.5000
vt 0.9941 0.5000
vt 0.9941 0.5000
vt 0.9941 0.5000
vt 0.9941 0.5000
vt 0.9941 0.5000
vt 0.9941 0.5000
vt 0.9941 0.5000
vt 0.9941 0.5000
vt 0.9941 0.5000
vt 0.9941 0.5000
vt 0.9941 0.5000
vt 0.9941 0.5000
vt 0.9941 0.5000
vt 0.9941 0.5000
vt 0.9941 0.5000
vt 0.9941 0.5000
vt 0.9941 0.5000
vt 0.9941 0.5000
vt 0.9941 0.5000
vt 0.9941 0.5000
vt 0.9941 0.5000
vt 0.9941 0.5000
vt 0.9941 0.5000
vt 0.9941 0.5000
vt 0.9941 0.5000
vt 0.9941 0.5000
vt 0.9941 0.5000
vt 0.9941 0.5000
vt 0.9941 0.5000
vt 0.9941 0.5000
vt 0.9941 0.5000
vt 0.9941 0.5000
vt 0.9941 0.5000
vt 0.9941 0.5000
vt 0.9941 0.5000
vt 0.9941 0.5000
vt 0.8809 0.5000
vt 0.8809 0.5000
vt 0.8809 0.5000
vt 0.8809 0.5000
vt 0.9941 0.5000
vt 0.9941 0.5000
vt 0.9941 0.5000
vt 0.9941 0.5000
vt 0.9941 0.5000
vt 0.9941 0.5000
vt 0.9941 0.5000
vt 0.9941 0.5000
vt 0.9941 0.5000
vt 0.9043 0.5000
vt 0.9043 0.5000
vt 0.9043 0.5000
vt 0.8809 0.5000
vt 0.8809 0.5000
vt 0.8809 0.5000
vt 0.9043 0.5000
vt 0.8809 0.5000
vt 0.9941 0.5000
vt 0.9941 0.5000
vt 0.9941 0.5000
vt 0.9941 0.5000
vt 0.9941 0.5000
vt 0.9941 0.5000
vt 0.9941 0.5000
vt 0.9941 0.5000
vt 0.9941 0.5000
vt 0.9941 0.5000
vt 0.9941 0.5000
vt 0.9941 0.5000
vt 0.9941 0.5000
vt 0.9941 0.5000
vt 0.9941 0.5000
vt 0.9941 0.5000
vt 0.9941 0.5000
vt 0.9941 0.5000
vt 0.9941 0.5000
vt 0.9941 0.5000
vt 0.9941 0.5000
vt 0.9941 0.5000
vt 0.9941 0.5000
vt 0.9941 0.5000
vt 0.9941 0.5000
vt 0.9941 0.5000
vt 0.9941 0.5000
vt 0.9941 0.5000
vt 0.9941 0.5000
vt 0.9941 0.5000
vt 0.9941 0.5000
vt 0.9941 0.5000
vt 0.9941 0.5000
vt 0.9941 0.5000
vt 0.9941 0.5000
vt 0.9941 0.5000
vt 0.8809 0.5000
vt 0.8809 0.5000
vt 0.8809 0.5000
vt 0.8809 0.5000
vt 0.8809 0.5000
vt 0.9941 0.5000
vt 0.9941 0.5000
vt 0.9941 0.5000
vt 0.9941 0.5000
vt 0.9941 0.5000
vt 0.9941 0.5000
vt 0.9941 0.5000
vt 0.9941 0.5000
vt 0.9941 0.5000
vt 0.8809 0.5000
vt 0.8809 0.5000
vt 0.8809 0.5000
vt 0.9043 0.5000
vt 0.9043 0.5000
vt 0.9043 0.5000
vt 0.8809 0.5000
vt 0.9043 0.5000
vt 0.9941 0.5000
vt 0.9941 0.5000
vt 0.9941 0.5000
vt 0.9941 0.5000
vt 0.9941 0.5000
vt 0.9941 0.5000
vt 0.9941 0.5000
vt 0.9941 0.5000
vt 0.9941 0.5000
vt 0.9941 0.5000
vt 0.9941 0.5000
vn -1.0000 0.0000 0.0000
vn 1.0000 0.0000 0.0000
vn 0.0000 0.0000 1.0000
vn 0.0000 0.0000 -1.0000
vn 0.0000 -1.0000 0.0000
vn 0.0000 1.0000 0.0000
usemtl palette.005
s 1
f 1/1/1 2/2/1 3/3/1
f 4/4/1 2/2/1 1/1/1
f 5/5/1 6/6/1 7/7/1
f 8/8/1 9/9/1 10/10/1
f 11/11/1 5/5/1 7/7/1
f 11/11/1 8/8/1 5/5/1
f 12/12/1 9/9/1 8/8/1
f 12/12/1 8/8/1 11/11/1
f 13/13/1 14/14/1 15/15/1
f 16/16/1 14/14/1 13/13/1
f 17/17/1 13/18/1 18/19/1
f 17/17/1 16/20/1 13/18/1
f 19/21/1 20/22/1 21/23/1
f 19/24/1 22/25/1 20/26/1
f 23/27/1 24/28/1 22/29/1
f 23/30/1 22/25/1 19/24/1
f 25/31/1 26/32/1 27/33/1
f 28/34/1 26/32/1 25/31/1
f 29/35/1 17/36/1 30/37/1
f 31/38/1 16/20/1 17/17/1
f 31/39/1 17/36/1 29/35/1
f 32/40/1 16/20/1 31/38/1
f 33/41/1 34/42/1 35/43/1
f 36/44/1 34/42/1 33/41/1
f 37/45/1 19/21/1 21/23/1
f 38/46/1 23/47/1 19/48/1
f 38/49/1 19/21/1 37/45/1
f 39/50/1 24/28/1 23/27/1
f 39/51/1 23/47/1 38/46/1
f 40/52/1 24/28/1 39/50/1
f 41/53/1 42/54/1 43/55/1
f 44/56/1 42/54/1 41/53/1
f 45/57/1 42/54/1 44/56/1
f 46/58/1 41/53/1 47/59/1
f 46/58/1 44/56/1 41/53/1
f 48/60/1 44/56/1 46/58/1
f 49/61/2 50/62/2 51/63/2
f 51/63/2 50/62/2 52/64/2
f 53/65/2 54/66/2 55/67/2
f 54/66/2 56/68/2 55/67/2
f 55/67/2 56/68/2 57/69/2
f 58/70/2 59/71/2 60/72/2
f 60/72/2 59/71/2 61/73/2
f 62/74/2 63/75/2 64/76/2
f 64/76/2 63/75/2 65/77/2
f 66/78/2 67/79/2 68/80/2
f 69/81/2 70/82/2 71/83/2
f 70/84/2 72/85/2 71/86/2
f 72/87/2 73/88/2 74/89/2
f 71/86/2 72/85/2 74/90/2
f 68/80/2 67/79/2 75/91/2
f 75/91/2 67/79/2 76/92/2
f 77/93/2 78/94/2 79/95/2
f 79/95/2 78/94/2 80/96/2
f 69/81/2 71/83/2 81/97/2
f 71/98/2 74/99/2 82/100/2
f 81/97/2 71/83/2 82/101/2
f 74/89/2 73/88/2 83/102/2
f 82/100/2 74/99/2 83/103/2
f 83/102/2 73/88/2 84/104/2
f 85/105/2 86/106/2 87/107/2
f 87/107/2 86/106/2 88/108/2
f 88/108/2 86/106/2 89/109/2
f 90/110/2 87/107/2 91/111/2
f 87/107/2 88/108/2 91/111/2
f 91/111/2 88/108/2 92/112/2
f 89/109/2 86/106/2 93/113/2
f 93/113/2 86/106/2 94/114/2
f 95/115/3 96/116/3 97/117/3
f 98/118/3 96/116/3 95/115/3
f 99/119/3 100/120/3 101/121/3
f 102/122/3 100/120/3 99/119/3
f 103/123/3 100/120/3 102/122/3
f 104/124/3 105/125/3 106/126/3
f 107/127/3 105/125/3 104/124/3
f 108/128/3 109/129/3 110/130/3
f 111/131/3 109/129/3 108/128/3
f 112/132/3 113/133/3 114/134/3
f 115/135/3 113/133/3 112/132/3
f 116/136/3 117/137/3 118/138/3
f 119/139/3 120/140/3 117/141/3
f 119/142/3 117/137/3 116/136/3
f 121/143/3 120/140/3 119/139/3
f 122/144/3 123/145/3 121/143/3
f 122/144/3 121/143/3 119/139/3
f 124/146/3 123/145/3 122/144/3
f 125/147/3 123/145/3 124/146/3
f 126/148/3 127/149/3 128/150/3
f 129/151/3 127/149/3 126/148/3
f 130/152/3 127/149/3 129/151/3
f 131/153/3 132/154/3 133/155/3
f 134/156/3 132/154/3 131/153/3
f 135/157/3 136/158/3 130/152/3
f 137/159/3 135/157/3 134/156/3
f 138/160/3 136/158/3 135/157/3
f 138/160/3 135/157/3 137/159/3
f 139/161/3 140/162/3 141/163/3
f 142/164/3 140/162/3 139/161/3
f 143/165/4 144/166/4 145/167/4
f 145/167/4 144/166/4 146/168/4
f 147/169/4 148/170/4 149/171/4
f 149/171/4 148/170/4 150/172/4
f 151/173/4 152/174/4 153/175/4
f 153/175/4 152/174/4 154/176/4
f 155/177/4 156/178/4 157/179/4
f 157/179/4 156/178/4 158/180/4
f 155/177/4 157/179/4 159/181/4
f 158/180/4 156/178/4 160/182/4
f 155/177/4 159/181/4 161/183/4
f 159/181/4 160/182/4 161/183/4
f 160/182/4 156/178/4 162/184/4
f 161/183/4 160/182/4 162/184/4
f 163/185/4 164/186/4 165/187/4
f 165/187/4 164/186/4 166/188/4
f 167/189/4 168/190/4 169/191/4
f 169/191/4 168/190/4 170/192/4
f 171/193/5 172/194/5 173/195/5
f 174/196/5 171/193/5 173/195/5
f 174/196/5 175/197/5 171/193/5
f 176/198/5 175/197/5 174/196/5
f 177/199/5 175/197/5 176/198/5
f 178/200/5 175/197/5 177/199/5
f 179/201/5 180/202/5 181/203/5
f 182/204/5 178/200/5 177/199/5
f 182/204/5 179/201/5 178/200/5
f 182/204/5 177/199/5 183/205/5
f 184/206/5 180/202/5 179/201/5
f 184/206/5 179/201/5 182/204/5
f 185/207/5 186/208/5 187/209/5
f 188/210/5 186/208/5 185/207/5
f 189/211/5 190/212/5 191/213/5
f 192/214/5 190/212/5 189/211/5
f 193/215/5 194/216/5 195/217/5
f 196/218/5 194/216/5 193/215/5
f 197/219/5 198/220/5 199/221/5
f 200/222/5 198/220/5 197/219/5
f 201/223/5 198/220/5 200/222/5
f 202/224/5 200/225/5 197/226/5
f 203/227/5 201/228/5 200/229/5
f 203/230/5 200/225/5 202/224/5
f 204/231/5 201/228/5 203/227/5
f 205/232/5 203/233/5 202/234/5
f 205/232/5 204/235/5 203/233/5
f 206/236/5 204/235/5 205/232/5
f 207/237/5 208/238/5 209/239/5
f 210/240/5 207/237/5 211/241/5
f 212/242/5 208/238/5 207/237/5
f 212/242/5 207/237/5 210/240/5
f 213/243/5 208/238/5 212/242/5
f 214/244/5 208/238/5 213/243/5
f 215/245/5 216/246/5 217/247/5
f 218/248/5 215/245/5 217/247/5
f 219/249/5 215/245/5 218/248/5
f 220/250/6 221/251/6 222/252/6
f 220/250/6 222/252/6 223/253/6
f 223/253/6 222/252/6 224/254/6
f 225/255/6 226/256/6 227/257/6
f 227/257/6 226/256/6 228/258/6
f 229/259/6 230/260/6 231/261/6
f 231/261/6 230/260/6 232/262/6
f 233/263/6 234/264/6 235/265/6
f 235/265/6 234/264/6 236/266/6
f 236/266/6 234/264/6 237/267/6
f 236/268/6 237/269/6 238/270/6
f 237/269/6 239/271/6 238/270/6
f 238/270/6 239/271/6 240/272/6
f 241/273/6 242/274/6 243/275/6
f 243/275/6 242/274/6 244/276/6
f 245/277/6 246/278/6 247/279/6
f 247/279/6 246/278/6 248/280/6
f 248/280/6 246/278/6 249/281/6
f 247/282/6 248/283/6 250/284/6
f 248/285/6 249/286/6 251/287/6
f 250/284/6 248/283/6 251/288/6
f 251/287/6 249/286/6 252/289/6
f 250/290/6 251/291/6 253/292/6
f 251/291/6 252/293/6 253/292/6
f 253/292/6 252/293/6 254/294/6
f 255/295/6 256/296/6 257/297/6
f 255/295/6 257/297/6 258/298/6
f 257/297/6 259/299/6 258/298/6
f 258/298/6 259/299/6 260/300/6
